<?xml version="1.0" standalone="no"?>
<!DOCTYPE svg PUBLIC "-//W3C//DTD SVG 20010904//EN"
 "http://www.w3.org/TR/2001/REC-SVG-20010904/DTD/svg10.dtd">
<svg version="1.0" xmlns="http://www.w3.org/2000/svg"
 width="2000.000000pt" height="2000.000000pt" viewBox="0 0 2000.000000 2000.000000"
 preserveAspectRatio="xMidYMid meet">

<g transform="translate(0.000000,2000.000000) scale(0.100000,-0.100000)"
fill="#000000" stroke="none">
<path d="M7970 18073 c-148 -15 -307 -63 -434 -131 -252 -136 -1029 -763
-1377 -1111 -201 -202 -320 -349 -382 -473 -57 -114 -71 -177 -65 -288 7 -115
63 -255 257 -645 194 -389 295 -576 571 -1060 341 -597 428 -761 898 -1700
204 -407 427 -846 495 -975 68 -129 154 -293 191 -365 38 -71 81 -152 96 -180
50 -90 51 -86 -48 -118 -161 -51 -276 -120 -382 -228 -107 -109 -172 -236
-192 -377 l-11 -79 -71 -12 c-247 -43 -547 -128 -799 -230 -945 -379 -1756
-1094 -2261 -1993 -336 -599 -527 -1232 -585 -1943 -13 -164 -6 -616 13 -790
91 -833 371 -1553 856 -2200 620 -828 1537 -1400 2555 -1595 300 -57 738 -86
1045 -68 1393 81 2708 866 3480 2078 400 627 638 1315 715 2065 22 219 14 791
-14 995 -125 908 -479 1699 -1045 2336 -61 69 -128 145 -149 168 l-37 42 25
61 c103 255 18 553 -249 863 -31 36 -56 69 -56 73 0 8 340 234 825 549 237
154 439 282 1062 672 886 556 2124 1362 2568 1674 408 286 452 345 462 627 10
273 -67 636 -228 1078 -141 387 -385 873 -587 1167 -84 123 -270 309 -382 383
-540 355 -2103 913 -3620 1292 -795 199 -1680 342 -2595 420 -176 15 -475 25
-545 18z m1243 -238 c444 -54 759 -102 1112 -171 182 -36 563 -120 688 -152
l69 -17 -129 -29 c-149 -32 -455 -119 -628 -178 -653 -221 -1606 -720 -2032
-1063 -37 -30 -71 -55 -75 -55 -5 0 -8 10 -8 23 0 42 -140 1043 -175 1251 -19
115 -34 210 -32 211 140 89 322 161 479 189 122 22 129 23 293 25 118 1 214
-7 438 -34z m-1223 -930 c50 -363 95 -690 100 -727 17 -116 32 -107 -137 -87
-82 10 -265 29 -408 44 -161 16 -263 31 -267 38 -31 48 21 447 81 628 70 209
183 399 348 584 77 86 183 188 190 181 1 -1 43 -299 93 -661z m3436 423 c371
-396 971 -1207 1379 -1863 211 -338 446 -727 442 -731 -2 -2 -21 3 -43 11
-944 351 -2287 770 -3081 960 -395 95 -1303 269 -1650 315 -51 7 -93 16 -93
20 0 10 22 23 275 165 631 354 1265 652 1885 886 144 54 814 287 831 288 3 1
28 -23 55 -51z m569 -77 c755 -218 1495 -476 2060 -721 185 -80 546 -260 551
-275 3 -8 -88 -126 -218 -282 -302 -362 -405 -488 -677 -828 -222 -277 -232
-292 -227 -325 3 -22 -32 38 -98 165 -426 827 -1009 1673 -1494 2166 -147 151
-164 177 -102 159 14 -4 106 -31 205 -59z m3014 -1381 c113 -166 290 -487 396
-719 213 -467 367 -992 391 -1334 8 -113 -2 -207 -21 -207 -7 0 -58 26 -112
57 -273 158 -1151 557 -1818 826 -115 46 -211 89 -213 95 -2 6 23 41 55 79 66
77 804 982 933 1143 46 58 105 139 132 180 76 115 64 112 136 34 35 -38 89
-107 121 -154z m-7264 -89 c66 -6 184 -18 262 -27 l141 -18 12 -85 c207 -1528
432 -2879 674 -4047 l43 -212 -39 -6 c-24 -4 -46 -2 -54 5 -32 27 -324 830
-610 1679 -134 399 -301 889 -369 1090 -241 704 -410 1263 -460 1515 -8 44
-18 91 -21 104 l-5 24 153 -6 c84 -4 207 -11 273 -16z m807 -101 c680 -102
1369 -254 2235 -491 751 -206 2273 -697 2273 -734 0 -3 -43 -51 -95 -106 -53
-56 -180 -201 -283 -322 -164 -193 -270 -324 -643 -787 -303 -377 -1010 -1339
-1457 -1981 -94 -136 -178 -249 -186 -252 -9 -4 -73 22 -144 57 -180 89 -331
148 -517 201 -204 59 -415 101 -580 116 -71 6 -136 17 -142 23 -7 6 -51 203
-98 436 -202 1010 -386 2106 -559 3315 -67 473 -79 565 -72 565 2 0 123 -18
268 -40z m5144 -1454 c570 -220 1131 -457 1527 -647 137 -65 287 -135 334
-156 l86 -37 -29 -23 c-182 -148 -1489 -1012 -1789 -1183 -93 -54 -363 -208
-600 -342 -236 -135 -529 -304 -650 -375 -121 -71 -364 -213 -540 -315 -176
-102 -419 -245 -540 -317 -293 -175 -395 -226 -454 -226 -42 0 -61 10 -203
103 -86 57 -161 109 -167 115 -6 8 76 128 266 387 848 1157 1083 1459 1892
2430 433 519 579 690 590 690 5 0 130 -47 277 -104z m-4636 -3287 c478 -39
999 -222 1412 -495 354 -234 620 -521 708 -762 60 -163 52 -318 -22 -428 -93
-136 -145 -125 -498 103 -595 385 -1005 574 -1525 703 -339 84 -577 116 -972
130 -148 5 -282 14 -300 19 -93 27 -128 75 -127 171 2 141 114 310 279 420
203 135 539 180 1045 139z m-1402 -748 c20 -24 57 -52 98 -72 l66 -33 221 -8
c479 -17 658 -38 987 -112 238 -54 321 -79 516 -157 314 -124 612 -288 1063
-582 311 -204 404 -234 537 -173 l57 26 25 -22 c105 -97 368 -425 494 -618
470 -718 721 -1606 695 -2455 -37 -1152 -484 -2216 -1272 -3024 -1073 -1102
-2603 -1555 -4049 -1200 -1204 296 -2197 1125 -2725 2275 -190 415 -306 834
-368 1334 -25 204 -25 712 0 925 70 587 218 1081 475 1579 391 758 952 1365
1652 1786 431 259 907 445 1445 563 43 10 53 6 83 -32z"/>
<path d="M7907 9480 c-569 -55 -1077 -266 -1552 -646 -145 -116 -397 -369
-517 -520 -598 -749 -901 -1658 -875 -2624 30 -1124 532 -2108 1357 -2661 125
-84 375 -210 516 -261 131 -47 348 -101 499 -124 168 -26 543 -26 705 -1 500
78 912 255 1336 575 367 277 667 624 918 1060 280 488 436 950 513 1527 26
192 26 794 0 985 -59 433 -174 816 -354 1174 -274 545 -739 1017 -1247 1265
-247 121 -440 181 -726 227 -173 27 -428 38 -573 24z m1559 -571 c157 -100
429 -365 578 -562 423 -564 643 -1252 649 -2037 2 -222 -5 -344 -34 -550 -67
-483 -224 -951 -455 -1363 -79 -140 -250 -391 -357 -525 -125 -156 -336 -368
-482 -485 -145 -117 -356 -257 -469 -312 -109 -54 -163 -63 -414 -70 -771 -20
-1459 241 -1963 744 -533 534 -810 1310 -750 2106 60 793 406 1533 990 2115
418 417 888 696 1433 850 300 85 560 117 969 119 l255 1 50 -31z m-1566 -9
c-13 -8 -12 -10 3 -10 9 0 17 4 17 9 0 6 9 9 20 8 25 -2 26 -16 3 -23 -10 -3
-26 -10 -37 -15 -14 -8 -16 -8 -10 3 4 7 -2 5 -13 -5 -21 -19 -58 -13 -50 8 3
6 -1 12 -9 12 -12 0 -12 -4 1 -24 14 -20 14 -23 0 -23 -8 0 -29 -9 -47 -20
-39 -24 -55 -26 -38 -5 7 8 16 13 20 10 4 -3 13 2 20 10 9 10 9 15 1 15 -6 0
-11 -5 -11 -11 0 -5 -4 -8 -9 -4 -5 3 -19 -7 -30 -21 -17 -21 -24 -24 -35 -15
-11 9 -16 9 -22 0 -4 -8 -3 -9 4 -5 7 4 12 3 12 -3 0 -11 -56 -43 -97 -55 -19
-6 -22 -4 -18 11 3 10 0 7 -7 -7 -14 -29 -29 -41 -40 -34 -4 3 -8 1 -8 -4 0
-5 -12 -8 -27 -5 -22 2 -24 2 -9 -5 18 -8 18 -9 3 -15 -11 -4 -25 1 -37 13
-28 28 -25 32 20 29 46 -4 52 1 54 38 1 16 5 34 10 41 4 7 5 16 1 20 -3 3 -9
2 -13 -4 -4 -7 -50 -11 -122 -11 -116 0 -117 5 -8 25 35 7 48 6 50 -3 2 -9 11
-9 38 2 l35 13 -35 -5 c-21 -3 -31 -2 -25 4 9 8 75 21 132 26 13 1 26 5 30 8
3 4 22 7 40 7 24 0 32 -4 28 -12 -4 -7 1 -4 9 6 14 17 20 16 18 -5 -1 -3 5 -6
13 -6 8 0 12 4 9 9 -8 13 47 29 93 27 23 -2 45 0 49 4 4 4 14 7 23 7 14 0 14
-2 1 -10z m100 6 c0 -2 -7 -7 -16 -10 -8 -3 -12 -2 -9 4 6 10 25 14 25 6z
m-720 -126 c0 -5 -12 -13 -27 -17 l-28 -7 30 -7 30 -7 -28 -1 c-15 0 -36 4
-46 11 -14 9 -23 7 -42 -7 -19 -14 -20 -16 -4 -10 23 9 27 8 80 -3 31 -7 14
-9 -75 -9 -63 0 -105 2 -92 4 12 3 22 9 22 14 0 5 5 9 11 9 5 0 7 -6 4 -12 -4
-7 0 -5 8 5 8 9 24 17 35 17 11 0 23 4 26 9 3 5 15 11 26 14 11 3 18 1 14 -4
-9 -15 13 -10 26 6 12 15 30 12 30 -5z m-243 -106 l4 -36 -48 6 c-27 2 -57 8
-67 12 -14 5 -17 4 -12 -4 5 -8 0 -12 -13 -12 -34 0 -24 17 17 31 20 7 39 13
42 14 3 0 16 7 29 14 17 10 21 10 16 1 -5 -8 -3 -11 6 -8 8 3 13 12 11 19 -2
8 0 11 4 6 4 -4 9 -23 11 -43z m394 25 c11 -11 18 -27 15 -35 -7 -18 -50 -35
-55 -22 -2 5 -8 0 -15 -12 -6 -13 -15 -23 -21 -23 -5 1 -27 -13 -48 -29 -20
-16 -57 -40 -82 -52 -24 -13 -42 -26 -38 -30 3 -3 -1 -6 -9 -6 -9 0 -18 -3
-20 -8 -1 -4 -27 -25 -55 -46 -57 -41 -54 -42 -57 21 -1 18 30 26 54 13 11 -6
17 -5 17 3 4 78 7 84 32 85 15 0 29 -5 33 -11 9 -15 38 -18 35 -4 -1 7 10 12
26 13 36 1 40 7 39 47 -1 30 2 33 30 35 16 1 37 -3 46 -10 13 -11 15 -10 9 5
-6 17 -4 18 33 21 10 0 25 7 32 15 10 11 10 12 0 7 -8 -5 -11 -2 -10 6 2 7 -4
13 -12 13 -8 0 -22 4 -30 9 -12 7 -12 6 -3 -4 12 -13 7 -40 -8 -40 -10 0 -12
43 -2 53 13 13 43 7 64 -14z m-18 -23 c4 -10 1 -13 -8 -9 -8 3 -12 9 -9 14 7
12 11 11 17 -5z m-544 -67 c-10 -6 -11 -9 -1 -9 6 0 12 -4 12 -10 0 -5 -14 -7
-30 -5 -17 2 -28 0 -24 -6 3 -5 10 -7 15 -4 5 4 17 2 26 -4 12 -6 1 -9 -42 -9
-98 1 -117 -1 -109 -13 3 -6 0 -15 -7 -20 -10 -6 -11 -9 -1 -9 6 0 12 -4 12
-10 0 -5 -14 -7 -30 -5 -17 2 -28 0 -24 -6 3 -5 10 -7 15 -4 5 4 17 2 26 -4
14 -7 10 -9 -17 -7 -50 4 -52 5 -45 15 3 5 1 12 -4 15 -5 3 -11 -4 -14 -15 -4
-16 -12 -20 -34 -17 -26 3 -28 1 -31 -38 -3 -40 -4 -42 -37 -42 -23 0 -32 4
-29 13 3 7 -1 16 -8 21 -7 4 -10 4 -6 -1 13 -13 -13 -35 -41 -35 -25 0 -24 1
12 25 20 14 42 23 49 19 7 -4 8 -3 4 4 -3 6 3 16 15 22 17 10 20 9 13 -2 -4
-7 5 0 21 15 21 21 30 24 37 15 5 -9 8 -7 8 7 0 15 3 17 9 7 6 -10 10 -9 14 7
4 15 10 19 23 14 12 -4 15 -3 10 5 -7 12 5 16 32 13 6 -1 12 3 12 9 0 10 48
35 63 32 4 -1 7 3 7 9 0 5 5 7 10 4 6 -3 10 -2 10 4 0 6 7 7 17 4 11 -4 14 -3
9 5 -7 12 5 16 32 13 6 -1 12 4 12 11 0 7 5 5 11 -6 9 -14 8 -20 -2 -27z m124
-223 c-4 -5 1 -7 10 -3 11 4 14 2 10 -9 -3 -7 -10 -14 -15 -14 -6 0 -17 -8
-24 -17 -11 -16 -13 -14 -11 19 2 27 6 36 19 35 9 -1 14 -5 11 -11z m-597 -31
c0 -19 -5 -35 -10 -35 -4 0 -6 10 -3 23 5 20 5 20 -7 5 -7 -10 -16 -15 -19
-11 -4 3 -7 1 -7 -6 0 -8 -7 -11 -15 -7 -16 6 -18 -1 -15 -51 1 -30 0 -31 -36
-29 -21 1 -38 -4 -41 -11 -3 -7 -9 -10 -14 -7 -5 3 -9 0 -9 -5 0 -6 5 -11 12
-11 9 0 9 -3 0 -12 -15 -15 -62 -18 -62 -5 0 5 -7 2 -15 -7 -18 -18 -20 -30
-2 -19 18 11 37 12 37 2 0 -5 -6 -9 -14 -9 -10 0 -16 -13 -18 -37 -2 -21 -9
-39 -15 -39 -7 -1 -30 -2 -50 -3 -21 -1 -33 -5 -27 -9 13 -8 15 -72 2 -72 -4
0 -7 3 -7 8 3 20 -2 33 -11 27 -6 -4 -8 -11 -5 -16 4 -5 -1 -12 -10 -16 -10
-3 -20 -1 -24 4 -4 7 -11 6 -19 -3 -7 -8 -9 -14 -3 -14 5 0 9 -16 8 -35 -1
-19 -5 -35 -9 -35 -4 0 -7 3 -7 8 3 20 -2 33 -11 27 -6 -4 -8 -11 -5 -16 4 -5
-1 -12 -10 -16 -10 -3 -21 0 -26 8 -7 12 -9 12 -9 -1 -1 -11 -4 -10 -15 4 -8
11 -15 15 -15 10 0 -6 5 -15 11 -21 7 -7 13 -27 14 -46 3 -34 2 -35 -29 -33
-18 2 -37 5 -42 9 -5 3 -9 -15 -9 -41 0 -45 -1 -45 -35 -49 -55 -5 -60 -6 -55
-11 2 -3 -1 -14 -7 -26 -10 -19 -10 -20 5 -7 15 12 17 11 15 -11 -2 -22 -28
-37 -28 -16 0 4 -5 8 -11 8 -5 0 -8 -4 -5 -8 2 -4 -6 -9 -20 -10 -22 -2 -23 0
-12 18 7 11 18 20 25 20 7 0 12 3 11 8 -1 4 4 19 11 34 10 19 19 25 34 22 15
-2 18 -1 10 7 -9 9 6 32 55 88 73 85 82 92 96 84 5 -4 6 -1 1 6 -10 16 84 113
103 106 7 -2 10 0 7 5 -8 13 33 52 47 44 6 -4 8 -3 5 3 -9 14 57 75 85 78 36
4 38 4 38 15 0 5 -8 7 -17 3 -10 -3 -6 4 9 16 15 12 32 20 37 17 5 -3 11 4 15
16 4 18 8 20 18 10 10 -10 10 -15 -2 -23 -13 -9 -13 -10 0 -6 9 2 14 14 12 27
-2 20 31 57 48 54 3 -1 11 7 18 17 7 11 20 19 28 19 8 0 14 5 14 10 0 6 2 10
4 10 2 0 3 -16 2 -35z m454 -45 c0 -5 -8 -7 -17 -4 -14 5 -15 4 -4 -4 11 -8
11 -10 0 -15 -9 -3 -10 -6 -2 -6 6 -1 15 4 18 9 10 17 25 11 19 -7 -5 -15 -4
-15 4 -3 7 9 7 18 1 26 -7 9 2 12 33 12 40 1 41 0 24 -14 -11 -8 -24 -14 -29
-14 -4 0 -5 -6 -1 -12 4 -7 4 -10 0 -6 -4 4 -22 -9 -39 -29 -29 -33 -32 -34
-44 -17 -7 10 -13 35 -13 56 0 34 3 38 25 38 14 0 25 -4 25 -10z m-53 -93 c16
-16 16 -17 0 -17 -9 0 -17 8 -18 18 0 11 -2 12 -6 4 -3 -7 0 -19 6 -26 6 -7 8
-16 4 -19 -3 -4 -12 -2 -19 4 -7 6 -19 9 -26 6 -8 -4 -7 -6 5 -6 27 -1 20 -23
-20 -61 -20 -19 -33 -28 -28 -20 5 8 -20 -14 -54 -50 -34 -36 -60 -60 -57 -53
4 6 2 14 -2 17 -5 3 -9 -5 -8 -17 1 -14 -16 -40 -49 -73 -27 -28 -61 -65 -74
-82 -23 -31 -51 -43 -51 -21 0 5 6 7 13 3 9 -6 9 -5 0 7 -7 8 -11 25 -10 37 1
19 3 20 17 7 19 -17 36 -19 45 -5 3 5 0 7 -7 5 -8 -3 -23 5 -35 19 l-21 24 41
-3 42 -3 0 40 c0 32 4 42 18 44 9 1 15 -1 12 -6 -3 -4 6 -3 20 3 14 7 25 19
26 27 1 8 2 24 3 35 1 20 6 21 67 24 28 1 46 26 27 37 -6 4 -8 3 -4 -4 3 -6 2
-13 -4 -17 -5 -3 -10 3 -10 14 0 12 6 21 13 21 9 0 8 3 -2 9 -18 12 -2 20 37
19 20 -1 29 -5 25 -12 -4 -6 1 -5 10 3 10 8 14 18 9 25 -7 9 -9 45 -3 59 3 11
53 -1 68 -16z m-562 -47 c3 -5 1 -10 -4 -10 -6 0 -11 5 -11 10 0 6 2 10 4 10
3 0 8 -4 11 -10z m158 -348 c-4 -9 -8 -11 -10 -5 -6 16 -31 5 -43 -17 -7 -13
-6 -19 4 -23 10 -4 12 0 9 14 -5 17 -2 19 23 15 16 -2 33 -5 37 -5 4 -1 -3
-13 -16 -27 -21 -23 -27 -25 -48 -14 -24 11 -24 11 1 -9 16 -14 19 -19 7 -15
-12 5 -16 2 -12 -9 4 -8 0 -17 -8 -20 -12 -5 -15 7 -14 62 l1 67 38 1 c30 2
36 -1 31 -15z m-111 -157 c-3 -5 2 -4 11 4 32 26 27 5 -11 -47 -20 -28 -43
-52 -50 -52 -9 0 -10 5 -2 19 5 11 10 29 10 40 0 20 19 25 31 7 4 -4 10 -3 13
3 4 6 2 12 -3 12 -6 1 -16 2 -23 3 -24 2 -19 26 5 24 15 -1 23 -7 19 -13z
m-604 -50 c1 -40 -1 -45 -21 -46 -12 0 -16 -3 -9 -6 24 -10 12 -25 -15 -19
-20 5 -24 4 -13 -3 22 -15 2 -27 -21 -13 -18 12 -19 11 -11 -5 5 -10 10 -32
10 -50 1 -29 -1 -31 -18 -21 -18 11 -18 14 -3 30 13 14 14 21 5 30 -9 9 -12 7
-12 -9 0 -12 -5 -25 -11 -28 -22 -14 -19 5 8 49 16 26 33 43 37 39 4 -4 4 0 0
10 -3 10 -1 17 5 17 6 0 11 5 11 11 0 16 33 58 46 59 7 0 12 -19 12 -45z m511
-27 c8 -7 11 -8 8 -2 -3 6 1 11 9 11 8 0 13 -6 10 -12 -2 -7 0 -17 6 -23 14
-14 -19 -62 -44 -62 -16 0 -19 6 -17 50 3 53 7 58 28 38z m-509 -58 c0 -5 -4
-10 -10 -10 -5 0 -10 5 -10 10 0 6 5 10 10 10 6 0 10 -4 10 -10z m500 -50 c0
-5 -4 -10 -10 -10 -5 0 -10 5 -10 10 0 6 5 10 10 10 6 0 10 -4 10 -10z m-603
-33 c2 -3 -11 -6 -30 -9 -25 -3 -33 0 -30 9 5 12 48 11 60 0z m573 -17 c0 -5
-5 -10 -11 -10 -5 0 -7 -5 -4 -10 3 -6 -1 -13 -9 -16 -9 -3 -14 -9 -11 -13 9
-15 -27 -52 -44 -46 -13 5 -14 4 -3 -6 16 -17 15 -29 -3 -29 -8 0 -15 5 -15
10 0 6 -7 10 -15 10 -9 0 -12 6 -8 17 4 11 3 14 -6 9 -6 -4 -9 -16 -6 -27 4
-10 2 -19 -3 -19 -4 0 -8 14 -8 31 0 29 2 30 35 27 33 -3 36 -1 39 27 2 17 5
36 7 43 5 14 65 17 65 2z m-632 -51 c1 -22 -3 -49 -8 -60 -7 -13 -7 -19 0 -19
5 0 10 -4 10 -8 0 -4 -16 -8 -36 -9 -42 -1 -55 -16 -47 -55 4 -20 1 -28 -8
-28 -11 0 -11 -2 -1 -9 20 -12 9 -65 -14 -70 -16 -3 -17 -1 -5 13 8 9 11 19 7
23 -3 3 -6 0 -6 -7 0 -9 -6 -7 -19 6 -18 18 -19 40 -1 29 4 -3 10 4 13 16 5
18 3 18 -11 7 -15 -11 -14 -10 1 8 9 11 17 26 17 32 0 7 5 12 11 12 5 0 7 5 4
10 -3 6 -1 10 6 10 7 0 9 3 6 6 -3 4 -1 16 5 27 10 20 11 20 24 -4 7 -13 13
-20 14 -16 0 5 -5 17 -10 28 -8 14 -6 28 10 59 11 22 24 40 29 40 4 0 8 -18 9
-41z m520 -97 c-12 -14 -10 -14 10 -3 23 12 23 12 -4 -28 -31 -47 -44 -52 -44
-15 0 17 4 23 13 18 9 -5 9 -4 0 6 -10 11 -9 17 3 32 20 21 40 13 22 -10z
m-29 -103 c-4 -9 -16 -19 -25 -23 -9 -3 -14 -12 -11 -20 3 -8 -1 -23 -8 -34
-8 -10 -11 -22 -7 -26 3 -4 -2 -4 -13 0 -16 5 -18 4 -8 -6 14 -15 -4 -51 -22
-44 -6 3 -12 -2 -12 -11 0 -9 6 -14 14 -11 11 5 11 1 -2 -16 -8 -13 -15 -30
-15 -39 0 -9 -7 -22 -15 -29 -8 -7 -12 -16 -9 -21 3 -5 -2 -12 -10 -15 -9 -3
-14 -10 -11 -14 3 -5 1 -11 -4 -14 -5 -4 -9 31 -8 83 1 50 5 84 9 78 5 -8 8
-5 8 8 0 17 2 17 10 5 6 -10 10 -11 10 -2 0 6 3 11 8 11 32 -5 37 2 35 57 -2
42 0 53 10 48 8 -5 7 -2 -2 9 -12 15 -12 19 3 30 9 7 32 12 50 12 29 1 33 -2
25 -16z m-623 -30 c10 -16 -9 -30 -26 -19 -11 7 -11 10 -2 10 7 0 10 5 7 10
-3 6 -2 10 4 10 5 0 13 -5 17 -11z m-29 -94 c2 -38 -2 -67 -8 -71 -8 -4 -7 -9
2 -15 9 -6 -3 -9 -33 -9 -38 0 -46 3 -42 15 4 8 10 15 16 15 5 0 7 4 4 9 -8
13 12 63 22 57 4 -2 14 0 22 6 12 8 12 9 -2 4 -10 -3 -18 -2 -18 2 0 7 29 52
33 52 1 0 3 -29 4 -65z m-80 -175 c2 -51 -1 -70 -10 -70 -7 0 -8 -3 -2 -8 13
-9 17 -112 4 -112 -5 0 -9 -7 -9 -15 0 -8 5 -15 10 -15 6 0 10 -4 10 -9 0 -6
-9 -9 -19 -8 -11 0 -17 5 -15 9 3 4 0 8 -5 8 -6 0 -11 -4 -11 -10 0 -5 -9 -10
-20 -10 -20 0 -28 24 -10 35 5 3 7 12 4 19 -3 8 -1 17 5 20 6 4 8 13 4 21 -4
11 -1 13 11 9 9 -3 16 -1 16 5 0 6 -4 11 -10 11 -5 0 -10 7 -10 16 0 11 6 14
23 8 21 -6 21 -6 6 12 -18 21 -14 42 10 62 14 11 14 11 -3 5 -15 -5 -17 -3
-10 8 4 8 10 20 11 27 3 14 11 46 12 50 4 12 6 -9 8 -68z m577 -55 c-4 -8 -8
-15 -10 -15 -2 0 -4 7 -4 15 0 8 4 15 10 15 5 0 7 -7 4 -15z m-58 -37 c-5 8 1
12 18 12 30 0 29 0 16 -34 -9 -24 -33 -38 -27 -17 1 5 -2 11 -7 13 -5 1 -10
-5 -12 -15 -1 -9 1 -15 5 -13 4 3 13 1 20 -3 10 -6 9 -12 -4 -24 -9 -9 -13
-21 -10 -27 3 -5 3 -16 -2 -22 -4 -7 -9 -22 -10 -33 -2 -11 -8 -24 -14 -30 -7
-7 -9 4 -7 35 3 29 9 44 17 42 7 -1 10 2 6 8 -3 6 -11 8 -16 4 -8 -4 -8 42 0
110 1 5 9 2 18 -5 11 -10 14 -10 9 -1z m-599 -343 c0 -96 -3 -173 -7 -170 -4
2 -7 -2 -7 -10 0 -8 4 -12 9 -9 4 3 8 0 8 -5 0 -6 -18 -11 -40 -11 -38 0 -49
8 -32 24 4 4 8 22 9 39 1 18 4 48 7 67 3 19 8 49 10 65 5 42 5 42 16 25 6 -9
10 -10 10 -3 0 6 -4 15 -10 18 -5 3 -10 11 -10 16 0 6 6 7 13 3 9 -6 9 -4 -1
8 -8 10 -9 18 -3 22 6 4 8 13 5 20 -3 8 -1 17 5 20 5 4 8 18 5 31 -2 14 -1 25
4 25 4 0 8 -79 9 -175z m516 101 c-4 -5 -1 -6 8 0 22 14 37 13 35 -2 -1 -7 -6
-17 -11 -21 -4 -4 -5 -2 0 6 6 10 4 12 -4 7 -9 -6 -9 -11 0 -22 7 -9 8 -14 1
-14 -5 0 -8 -9 -5 -20 3 -11 1 -20 -5 -20 -6 0 -8 -9 -5 -20 5 -19 -4 -25 -32
-21 -5 1 -3 -5 6 -12 15 -11 15 -19 5 -59 -6 -26 -14 -50 -17 -53 -3 -3 -6 51
-5 119 0 69 4 122 8 120 4 -3 8 -1 8 5 0 5 -6 11 -12 14 -7 3 -3 4 9 4 12 -1
19 -5 16 -11z m-26 -298 c-3 -8 -6 -5 -6 6 -1 11 2 17 5 13 3 -3 4 -12 1 -19z
m-18 -22 c8 -10 7 -17 -4 -26 -9 -7 -12 -17 -7 -24 5 -6 9 -21 10 -33 0 -18
-4 -22 -21 -19 -12 2 -21 9 -19 16 1 6 -2 9 -8 5 -6 -4 -5 -13 2 -25 9 -14 14
-16 20 -7 6 9 8 8 9 -3 1 -8 0 -19 -1 -25 -1 -5 -2 -36 -3 -67 0 -32 -4 -58
-9 -58 -5 0 -7 4 -4 8 3 5 -1 9 -9 9 -13 0 -13 -3 -2 -16 9 -10 13 -38 12 -76
-3 -74 -2 -72 -18 -72 -8 0 -13 14 -13 39 0 21 3 38 8 38 5 0 6 -6 2 -12 -4
-7 -3 -9 1 -5 14 12 14 36 1 31 -9 -3 -13 12 -14 51 -1 43 3 60 17 74 21 21
16 38 -6 20 -16 -14 -16 -9 -3 25 5 14 6 26 2 26 -14 0 -14 91 0 108 7 9 8 13
2 9 -6 -3 -11 0 -11 7 0 17 52 18 66 2z m11 -36 c0 -5 -5 -10 -11 -10 -5 0 -7
5 -4 10 3 6 8 10 11 10 2 0 4 -4 4 -10z m-561 -164 c0 -30 -4 -58 -9 -61 -11
-7 -12 47 -3 93 8 34 10 27 12 -32z m-1 -126 c0 -27 -3 -50 -7 -50 -3 0 -7 23
-7 50 0 28 3 50 7 50 4 0 8 -22 7 -50z m-7 -153 c1 -48 -1 -90 -5 -94 -3 -3
-6 38 -6 92 0 121 8 122 11 2z m519 -64 c0 -68 -3 -93 -12 -93 -10 0 -10 -2 0
-8 8 -6 12 -25 9 -55 -2 -26 -1 -47 3 -47 11 0 9 -44 -3 -59 -8 -10 -8 -13 -1
-8 8 5 13 -7 16 -36 2 -23 1 -44 -4 -45 -4 -2 -5 -9 -1 -15 4 -7 9 -21 10 -32
3 -17 1 -17 -8 -5 -8 12 -9 10 -4 -9 5 -16 4 -21 -4 -17 -17 11 -13 0 6 -15
10 -8 14 -9 10 -2 -4 6 -3 14 3 18 6 4 10 -6 10 -24 0 -31 -13 -41 -25 -20 -4
6 -12 8 -19 6 -15 -6 -17 95 -2 105 8 6 7 8 -1 8 -7 0 -11 12 -9 28 1 17 7 26
17 24 10 -2 9 1 -3 11 -13 11 -16 28 -15 85 1 40 5 72 10 72 4 0 7 5 7 11 0 5
-4 8 -9 5 -10 -7 -15 209 -5 225 14 24 24 -19 24 -108z m-513 -93 c1 -27 -2
-50 -6 -50 -4 0 -7 23 -7 50 0 28 3 50 7 50 3 0 6 -22 6 -50z m0 -92 c-3 -7
-5 -2 -5 12 0 14 2 19 5 13 2 -7 2 -19 0 -25z m83 -154 c0 -8 -4 -13 -9 -9 -5
3 -12 1 -16 -5 -3 -5 0 -10 8 -10 10 0 14 -18 13 -80 0 -76 -1 -80 -20 -75
-20 5 -20 5 0 -6 17 -9 21 -20 21 -60 0 -27 -3 -46 -7 -44 -5 3 -11 -1 -13 -7
-3 -7 -7 1 -8 17 -4 52 -5 59 -17 100 -6 22 -13 66 -15 96 -3 31 -8 62 -12 69
-5 9 -4 11 3 6 7 -4 12 -3 12 3 0 5 -6 11 -12 13 -7 3 6 5 30 6 32 1 42 -2 42
-14z m453 -154 c33 0 10 -13 -34 -19 -3 -1 -6 -7 -6 -15 0 -13 3 -13 21 0 26
18 40 18 33 0 -3 -7 0 -19 6 -25 8 -8 1 -11 -29 -9 -40 1 -41 2 -41 37 0 34
18 62 25 41 2 -6 13 -10 25 -10z m34 -142 c-3 -8 -6 -5 -6 6 -1 11 2 17 5 13
3 -3 4 -12 1 -19z m-490 -23 c0 -8 -4 -15 -9 -15 -10 0 -11 14 -1 23 9 10 10
9 10 -8z m499 -20 c-2 -7 0 -17 6 -23 13 -13 1 -35 -14 -26 -6 4 -5 10 3 15 8
5 9 9 3 9 -6 0 -11 11 -11 25 0 13 4 22 9 19 5 -3 7 -12 4 -19z m-481 -49 c7
3 16 0 20 -6 6 -9 10 -9 16 1 7 12 9 12 9 1 0 -8 -9 -25 -20 -39 -23 -29 -27
-50 -6 -31 8 7 12 15 10 17 -5 6 16 31 26 31 11 0 9 -189 -2 -196 -16 -10 -20
3 -9 25 10 17 9 20 -4 15 -8 -4 -15 -2 -16 2 0 5 -2 17 -4 27 -2 9 1 15 6 11
5 -3 9 9 9 26 0 18 4 29 10 25 6 -3 10 -1 10 5 0 21 -24 4 -31 -21 -4 -13 -8
-21 -9 -16 -1 4 -3 10 -5 15 -1 4 -5 15 -9 24 -4 9 -3 25 3 37 15 28 14 38 -2
17 -10 -14 -14 -15 -15 -5 -1 8 -3 28 -5 44 -3 17 -2 20 0 8 3 -13 9 -20 18
-17z m495 -23 c0 -23 1 -28 12 -40 6 -7 8 -13 5 -13 -3 0 0 -15 8 -34 8 -18
11 -36 8 -39 -3 -4 0 -14 8 -23 8 -10 13 -18 11 -18 -2 -1 1 -14 7 -29 6 -16
9 -33 5 -38 -3 -5 -1 -9 4 -9 5 0 12 -9 15 -20 6 -24 1 -25 -18 -6 -8 8 -15
30 -17 49 l-2 36 -34 -15 c-44 -18 -42 -19 -42 16 0 17 5 30 13 30 8 0 7 4 -3
10 -13 9 -13 11 0 20 11 7 11 10 2 10 -10 0 -10 5 -1 21 8 15 8 19 0 15 -7 -5
-11 4 -11 24 0 17 4 29 8 26 5 -3 9 1 9 9 0 8 -4 12 -9 9 -4 -3 -8 1 -8 9 0 7
7 14 15 14 8 0 15 -6 15 -14z m-431 -263 c0 -9 -4 -8 -9 5 -5 11 -9 27 -9 35
0 9 4 8 9 -5 5 -11 9 -27 9 -35z m521 -40 c12 -12 18 -25 15 -30 -3 -5 -1 -11
5 -15 6 -4 8 -11 5 -16 -4 -5 3 -21 14 -35 12 -15 21 -34 21 -43 0 -10 6 -26
14 -37 13 -17 12 -20 -6 -30 -18 -10 -18 -12 -4 -17 10 -4 15 -3 11 3 -3 6 -2
10 3 10 5 0 20 -21 33 -47 13 -27 32 -59 41 -72 10 -13 15 -27 12 -32 -3 -5 1
-9 8 -9 8 -1 5 -7 -7 -16 -20 -16 -19 -16 4 -9 15 5 21 3 17 -3 -3 -5 1 -13
10 -16 8 -3 12 -10 9 -16 -3 -5 -1 -10 6 -10 31 0 -11 -22 -50 -26 -41 -5 -42
-4 -39 23 2 17 8 27 16 25 8 -1 11 2 7 8 -3 6 -11 8 -16 4 -6 -3 -8 14 -6 45
3 33 0 51 -7 52 -6 1 -24 2 -41 3 l-30 1 -1 80 c-1 44 -2 86 -3 93 -1 17 -21
15 -21 -3 0 -8 -5 -15 -11 -15 -5 0 -7 5 -4 10 3 6 -1 10 -9 10 -9 0 -16 6
-16 14 0 8 -6 17 -12 19 -8 3 -5 6 5 6 11 1 17 7 14 14 -2 6 -9 11 -14 10 -5
-1 -11 18 -11 43 -2 48 7 55 38 24z m-479 -2 c0 -10 2 -10 6 0 6 16 33 16 33
-1 0 -7 -6 -19 -12 -26 -7 -8 -8 -11 -2 -8 7 4 10 -14 10 -53 -1 -59 4 -66 37
-61 4 0 7 -5 7 -11 0 -9 4 -8 10 2 8 12 10 12 10 -5 0 -14 3 -16 8 -8 5 8 8
-1 8 -21 0 -19 -4 -32 -8 -30 -4 3 -8 0 -8 -5 0 -6 4 -11 8 -11 5 0 8 -22 8
-50 -1 -34 2 -50 11 -50 7 0 13 7 13 15 0 8 5 15 11 15 5 0 7 -4 4 -10 -3 -5
1 -10 9 -10 9 0 16 -6 16 -14 0 -8 6 -17 13 -19 7 -3 5 -6 -5 -6 -22 -1 -24
-17 -3 -25 18 -7 20 -47 3 -65 -9 -9 -9 -12 -1 -7 6 3 19 -1 27 -10 9 -8 16
-11 16 -5 0 6 11 11 25 11 20 0 25 -5 25 -25 0 -14 -6 -25 -12 -25 -9 0 -9 -3
-2 -8 5 -4 11 -25 12 -46 3 -34 1 -38 -13 -26 -12 10 -13 15 -3 28 11 13 10
14 -8 8 -13 -4 -26 -1 -34 9 -17 21 -90 165 -83 165 3 0 0 7 -7 15 -10 12 -10
15 1 16 8 0 4 4 -8 9 -16 7 -21 14 -16 26 5 13 3 15 -8 9 -12 -8 -12 -6 0 8 8
10 11 20 7 24 -3 3 -6 1 -6 -5 0 -23 -20 -11 -26 16 -4 15 -13 39 -21 55 -7
15 -10 27 -5 27 5 0 9 7 9 15 0 8 -8 15 -18 15 -9 0 -19 9 -22 20 -3 13 -1 18
6 14 7 -3 3 2 -8 11 -17 14 -18 17 -5 25 12 8 12 10 -5 11 -17 1 -17 2 -2 6 9
2 17 8 17 13 0 5 -7 7 -16 3 -14 -5 -15 -3 -4 18 12 22 12 23 -3 10 -10 -7
-17 -12 -18 -10 -6 29 -3 49 8 49 7 0 13 -6 14 -12z m464 -147 c-6 -5 -25 10
-25 20 0 5 6 4 14 -3 8 -7 12 -15 11 -17z m-270 -172 c11 -16 1 -19 -13 -3 -7
8 -8 14 -3 14 5 0 13 -5 16 -11z m511 -155 c-3 -8 -2 -13 3 -10 5 3 25 -19 45
-49 21 -33 31 -55 24 -56 -7 0 -3 -4 10 -9 19 -8 21 -13 13 -29 -8 -15 -7 -20
5 -25 8 -3 12 -11 9 -16 -5 -8 -12 -7 -23 2 -14 10 -15 10 -5 -1 6 -7 9 -20 6
-27 -6 -16 -33 -19 -33 -3 0 5 5 7 11 3 7 -4 7 1 -1 16 -9 16 -9 25 -1 33 6 6
11 16 11 22 0 5 -5 3 -11 -5 -7 -11 -9 -8 -6 15 7 50 -6 70 -44 70 -30 0 -34
3 -36 30 -3 37 3 55 18 55 6 0 8 -7 5 -16z m-343 -169 c6 -6 10 -6 14 2 3 9
10 10 24 3 13 -8 19 -7 19 0 0 6 5 8 12 4 9 -6 9 -9 0 -12 -8 -2 -9 -9 -2 -22
7 -13 6 -20 -3 -23 -23 -10 15 -25 54 -22 l37 3 -2 -41 -1 -42 43 4 c36 2 42
0 42 -18 0 -11 -4 -23 -10 -26 -21 -13 11 -40 48 -40 36 0 37 -1 37 -38 0 -46
-9 -55 -28 -27 -7 11 -17 17 -22 12 -5 -4 -6 -2 -3 3 6 11 -23 44 -31 35 -7
-8 -80 53 -86 73 -4 9 -11 15 -16 11 -5 -3 -8 0 -7 8 2 7 -3 12 -10 10 -7 -1
-37 23 -68 53 -31 30 -53 55 -48 55 4 0 16 -7 26 -17 25 -23 34 -9 10 15 -14
14 -28 19 -43 15 -18 -5 -21 -3 -16 11 4 10 3 15 -3 11 -5 -3 -18 -1 -27 4
-15 9 -11 10 17 8 19 -1 39 -6 43 -12z m477 -21 c0 -8 5 -14 12 -14 6 0 9 -2
6 -5 -3 -3 8 -19 24 -35 16 -17 27 -34 23 -40 -3 -5 0 -10 8 -10 8 0 27 -17
43 -37 15 -21 35 -43 42 -49 11 -8 4 -11 -32 -11 -48 0 -54 5 -34 25 8 8 15 9
25 1 22 -19 14 -3 -9 17 -12 10 -18 14 -15 7 4 -6 2 -15 -4 -19 -8 -5 -10 3
-7 25 l5 32 -43 -6 -42 -5 0 42 c0 64 -1 70 -12 63 -6 -4 -8 -10 -6 -14 3 -4
-1 -8 -9 -8 -19 0 -19 5 0 23 12 12 13 20 3 37 -10 20 -10 21 5 8 10 -7 17
-20 17 -27z m219 -258 c21 -22 22 -26 7 -26 -11 0 -15 5 -10 13 6 10 4 10 -7
0 -25 -25 -45 -15 -46 22 0 29 2 33 16 26 9 -5 27 -21 40 -35z m-299 -54 c0
-16 -4 -21 -12 -16 -9 5 -9 2 1 -9 17 -21 7 -22 -24 -1 -14 9 -22 20 -19 25 3
5 2 9 -3 8 -15 -3 -24 1 -20 9 3 4 21 7 41 7 31 0 36 -3 36 -23z m378 -24 l22
-24 -38 0 c-35 0 -37 2 -38 33 0 36 13 34 54 -9z m-292 -48 c4 -8 8 -19 8 -25
1 -9 92 -63 109 -64 4 -1 7 4 7 10 0 5 -4 8 -9 4 -5 -3 -12 -1 -16 4 -3 6 7 9
25 8 27 -2 30 -5 28 -34 l-2 -32 -45 27 c-48 27 -103 62 -111 72 -3 3 -17 11
-32 19 -16 8 -28 17 -28 21 0 14 60 5 66 -10z m42 8 c-3 -7 -11 -13 -18 -13
-7 0 -15 6 -17 13 -3 7 4 12 17 12 13 0 20 -5 18 -12z m32 -10 c0 -16 -3 -19
-11 -11 -6 6 -8 16 -5 22 11 17 16 13 16 -11z m291 -37 c0 -10 2 -12 6 -3 2 6
9 10 14 6 18 -11 -2 -24 -37 -24 -31 0 -35 3 -32 23 2 12 7 25 13 29 12 9 35
-10 36 -31z m-302 15 c17 -20 -3 -30 -30 -15 -17 9 -19 13 -8 20 19 12 25 11
38 -5z m371 -63 c12 -16 18 -21 14 -13 -4 8 10 0 32 -19 21 -19 39 -40 39 -45
0 -6 9 -10 20 -9 11 1 14 0 8 -3 -7 -3 -13 -13 -12 -22 0 -11 2 -12 6 -4 8 21
43 14 52 -11 5 -13 17 -29 27 -37 16 -13 16 -11 -1 9 -13 16 -15 22 -6 19 29
-9 36 -35 17 -57 -11 -12 -15 -21 -10 -21 5 0 2 -5 -6 -10 -14 -9 -13 -10 18
-10 4 0 7 10 7 23 1 13 6 21 14 19 9 -2 11 3 7 13 -4 12 -2 13 12 6 9 -5 26
-17 37 -25 19 -15 19 -16 1 -9 -13 4 -17 3 -12 -5 4 -7 2 -12 -4 -12 -7 0 -10
7 -7 15 4 8 1 17 -5 21 -6 4 -8 3 -4 -4 3 -6 2 -13 -4 -17 -6 -4 -8 -11 -5
-16 4 -5 1 -9 -6 -9 -7 0 -4 -7 7 -15 18 -14 18 -14 -6 -15 -15 0 -30 4 -35 9
-6 5 -21 11 -34 13 -34 4 -37 24 -7 40 19 10 23 17 16 28 -8 13 -10 12 -10 -2
0 -10 -5 -18 -11 -18 -6 0 -8 9 -4 23 5 19 4 20 -5 4 -6 -9 -9 -21 -6 -25 2
-4 -1 -15 -8 -24 -11 -15 -16 -14 -58 7 -25 13 -49 21 -52 18 -3 -4 -6 -1 -6
5 0 6 5 14 10 17 6 3 10 11 10 17 0 5 -8 0 -18 -12 -11 -14 -23 -19 -35 -15
-9 4 -14 11 -11 16 3 5 -2 6 -10 3 -11 -4 -16 0 -16 10 0 18 25 22 35 6 3 -5
12 -10 18 -10 8 0 7 4 -2 9 -11 7 -6 10 18 13 31 3 34 6 36 41 2 34 0 37 -24
38 -14 1 -33 1 -41 0 -12 -1 -16 9 -16 39 0 47 7 50 36 13z m-201 -65 c11 -11
12 -10 7 0 -6 10 2 12 33 11 39 -3 41 -4 41 -36 0 -18 -4 -33 -10 -33 -5 0
-10 6 -10 13 0 8 -9 22 -20 32 -11 10 -20 13 -20 8 0 -6 7 -14 16 -17 9 -4 14
-9 11 -13 -7 -7 -73 23 -82 37 -9 14 19 12 34 -2z m131 -78 c0 -5 -5 -10 -11
-10 -5 0 -7 5 -4 10 3 6 8 10 11 10 2 0 4 -4 4 -10z m364 -95 c-8 -13 -13 -29
-9 -36 5 -7 1 -10 -9 -7 -10 1 -17 8 -17 13 -1 6 -6 16 -12 24 -10 12 -8 13
11 9 12 -4 20 -2 17 2 -3 5 3 11 12 13 10 3 19 5 21 6 1 0 -5 -10 -14 -24z
m94 -25 c16 0 62 -41 62 -55 0 -10 -10 -10 -49 3 -27 10 -48 19 -46 22 2 4 -5
11 -16 18 -21 14 -25 3 -6 -18 10 -12 9 -12 -5 -1 -10 7 -18 10 -19 5 0 -5 -4
0 -9 11 -5 13 -3 26 8 37 14 17 16 16 42 -2 16 -11 32 -20 38 -20z m125 -68
c15 -6 27 -13 27 -16 0 -7 -40 6 -45 15 -3 4 -12 6 -20 2 -8 -3 -15 -1 -15 5
0 12 13 10 53 -6z"/>
<path d="M7630 8864 c0 -4 8 -13 18 -21 12 -10 14 -16 4 -19 -6 -3 -10 -10 -6
-15 3 -5 12 -2 20 6 9 8 19 13 23 11 4 -3 8 1 8 9 0 8 -3 14 -6 13 -23 -2 -41
4 -36 12 3 6 -1 10 -9 10 -9 0 -16 -3 -16 -6z"/>
<path d="M7580 8841 c-8 -6 -18 -7 -22 -5 -4 3 -8 0 -8 -6 0 -6 11 -8 28 -4
21 4 24 3 12 -5 -18 -13 -3 -13 25 -1 18 8 18 9 2 9 -10 1 -15 6 -12 11 8 12
-5 13 -25 1z"/>
<path d="M7570 8791 c0 -5 -10 -7 -22 -4 -13 3 -21 3 -18 0 3 -3 17 -8 32 -11
20 -3 25 -1 21 10 -6 16 -13 19 -13 5z"/>
<path d="M7597 8789 c6 -6 10 -17 9 -23 -2 -6 -1 -8 1 -3 3 4 10 4 16 0 7 -3
3 3 -7 15 -11 12 -22 22 -25 22 -3 0 0 -5 6 -11z"/>
<path d="M7535 8729 c-4 -6 -5 -12 -2 -15 2 -3 7 2 10 11 7 17 1 20 -8 4z"/>
<path d="M6938 8663 c6 -2 18 -2 25 0 6 3 1 5 -13 5 -14 0 -19 -2 -12 -5z"/>
<path d="M7306 8615 c-9 -26 -7 -32 5 -12 6 10 9 21 6 23 -2 3 -7 -2 -11 -11z"/>
<path d="M7146 8518 c3 -4 11 -5 19 -1 21 7 19 12 -4 10 -11 0 -18 -5 -15 -9z"/>
<path d="M7050 8458 c0 -4 5 -10 10 -13 6 -3 10 -1 10 4 0 6 4 11 10 11 5 0 7
-8 4 -17 -5 -15 -4 -15 4 -3 6 8 9 17 6 21 -6 10 -44 7 -44 -3z"/>
<path d="M6105 8149 c-4 -6 -5 -12 -2 -15 2 -3 7 2 10 11 7 17 1 20 -8 4z"/>
<path d="M6138 8120 c-2 -6 -13 -12 -26 -13 -12 -1 -18 -5 -13 -10 10 -10 51
9 51 23 0 13 -7 13 -12 0z"/>
<path d="M6050 8106 c0 -2 7 -7 16 -10 8 -3 12 -2 9 4 -6 10 -25 14 -25 6z"/>
<path d="M6025 8049 c-11 -16 -1 -19 13 -3 7 8 8 14 3 14 -5 0 -13 -5 -16 -11z"/>
<path d="M5990 8037 c-8 -7 -22 -21 -30 -31 -14 -18 -14 -18 6 -6 12 7 26 21
33 31 13 22 12 23 -9 6z"/>
<path d="M5945 7969 c-11 -16 -1 -19 13 -3 7 8 8 14 3 14 -5 0 -13 -5 -16 -11z"/>
<path d="M5854 7898 l-19 -23 23 19 c21 18 27 26 19 26 -2 0 -12 -10 -23 -22z"/>
<path d="M5869 7883 c-13 -16 -12 -17 4 -4 9 7 17 15 17 17 0 8 -8 3 -21 -13z"/>
<path d="M5817 7834 c-3 -3 -3 -13 0 -22 4 -10 2 -13 -5 -8 -8 5 -10 2 -6 -9
8 -20 16 -12 19 20 3 26 2 29 -8 19z"/>
<path d="M6733 8215 c0 -6 6 -12 12 -12 6 0 12 6 12 12 0 6 -6 12 -12 12 -6 0
-12 -6 -12 -12z"/>
<path d="M6621 8063 c3 -18 -2 -27 -9 -17 -5 9 -10 8 -19 -1 -10 -10 -9 -14 2
-18 17 -7 51 28 35 38 -6 3 -10 3 -9 -2z"/>
<path d="M6490 7981 c0 -10 19 -25 25 -20 1 2 -3 10 -11 17 -8 7 -14 8 -14 3z"/>
<path d="M6250 7608 c-12 -22 -12 -22 6 -6 10 10 15 20 12 24 -4 3 -12 -5 -18
-18z"/>
<path d="M5651 7636 c-9 -10 -8 -15 2 -19 8 -3 13 3 14 14 2 23 -1 24 -16 5z"/>
<path d="M6180 7555 c7 -9 15 -13 17 -11 7 7 -7 26 -19 26 -6 0 -6 -6 2 -15z"/>
<path d="M6094 7408 c0 -10 1 -18 3 -18 1 0 7 8 12 18 7 13 6 19 -2 19 -7 0
-13 -9 -13 -19z"/>
<path d="M5497 7350 c-3 -11 -1 -20 4 -20 5 0 9 9 9 20 0 11 -2 20 -4 20 -2 0
-6 -9 -9 -20z"/>
<path d="M5944 7112 c3 -5 0 -13 -6 -15 -9 -4 -10 -6 -1 -6 17 -1 25 16 12 25
-7 4 -9 3 -5 -4z"/>
<path d="M5850 6960 c0 -5 5 -10 11 -10 5 0 7 5 4 10 -3 6 -8 10 -11 10 -2 0
-4 -4 -4 -10z"/>
<path d="M5310 7035 c0 -4 5 -15 10 -26 8 -13 7 -19 0 -19 -6 0 -8 -5 -4 -11
10 -16 23 9 17 32 -5 18 -23 37 -23 24z"/>
<path d="M5155 6346 c1 -22 6 -32 19 -34 13 -3 16 0 10 10 -14 23 -15 50 -2
42 7 -4 9 -3 5 1 -18 20 -33 12 -32 -19z"/>
<path d="M5155 6270 c3 -5 8 -10 11 -10 2 0 4 5 4 10 0 6 -5 10 -11 10 -5 0
-7 -4 -4 -10z"/>
<path d="M5702 6445 c0 -16 2 -22 5 -12 2 9 2 23 0 30 -3 6 -5 -1 -5 -18z"/>
<path d="M5638 6223 c7 -3 16 -2 19 1 4 3 -2 6 -13 5 -11 0 -14 -3 -6 -6z"/>
<path d="M5614 6168 c-4 -6 -3 -8 4 -4 6 3 13 2 17 -4 8 -13 25 -13 25 1 0 5
-4 7 -10 4 -5 -3 -10 -1 -10 4 0 15 -17 14 -26 -1z"/>
<path d="M5613 5680 c0 -47 2 -66 4 -42 2 23 2 61 0 85 -2 23 -4 4 -4 -43z"/>
<path d="M5613 5355 c0 -8 4 -12 9 -9 5 3 6 10 3 15 -9 13 -12 11 -12 -6z"/>
<path d="M5145 5301 c-3 -5 -2 -12 3 -15 5 -3 9 1 9 9 0 17 -3 19 -12 6z"/>
<path d="M5161 5263 c-7 -16 -9 -25 -5 -21 4 4 13 0 21 -10 13 -15 13 -15 4 5
-6 12 -8 29 -5 37 10 27 -2 18 -15 -11z"/>
<path d="M5160 5194 c0 -8 5 -12 10 -9 6 4 8 11 5 16 -9 14 -15 11 -15 -7z"/>
<path d="M5170 5111 c0 -6 4 -12 8 -15 5 -3 9 1 9 9 0 8 -4 15 -9 15 -4 0 -8
-4 -8 -9z"/>
<path d="M5725 4779 c-4 -6 -4 -13 -1 -16 3 -4 6 -1 6 6 0 7 5 9 12 5 7 -4 8
-3 4 4 -9 15 -13 15 -21 1z"/>
<path d="M5693 4748 c-2 -18 0 -20 7 -8 12 18 13 30 2 30 -4 0 -9 -10 -9 -22z"/>
<path d="M5801 4554 c0 -11 3 -14 6 -6 3 7 2 16 -1 19 -3 4 -6 -2 -5 -13z"/>
<path d="M5859 4388 c-5 -15 -9 -61 -5 -58 6 7 16 60 10 60 -2 0 -4 -1 -5 -2z"/>
<path d="M5880 4376 c0 -2 7 -7 16 -10 8 -3 12 -2 9 4 -6 10 -25 14 -25 6z"/>
<path d="M5935 4270 c-3 -5 -2 -10 4 -10 5 0 13 5 16 10 3 6 2 10 -4 10 -5 0
-13 -4 -16 -10z"/>
<path d="M5973 4204 c9 -11 15 -24 12 -27 -3 -4 -2 -5 2 -2 4 3 8 13 9 21 1 9
0 13 -3 10 -4 -3 -13 0 -22 6 -12 10 -12 7 2 -8z"/>
<path d="M5945 4189 c-4 -6 -4 -13 -1 -16 3 -4 6 -1 6 6 0 7 5 9 12 5 7 -4 8
-3 4 4 -9 15 -13 15 -21 1z"/>
<path d="M5406 4363 c-6 -14 -5 -15 5 -6 7 7 10 15 7 18 -3 3 -9 -2 -12 -12z"/>
<path d="M5468 4248 c-3 -7 5 -27 19 -43 22 -26 23 -27 12 -5 -7 14 -11 25 -9
25 2 0 -1 8 -7 19 -8 14 -11 15 -15 4z"/>
<path d="M5523 4125 c0 -8 4 -12 9 -9 5 3 6 10 3 15 -9 13 -12 11 -12 -6z"/>
<path d="M5556 4092 c-3 -5 1 -9 9 -9 8 0 12 4 9 9 -3 4 -7 8 -9 8 -2 0 -6 -4
-9 -8z"/>
<path d="M6010 4099 c0 -5 5 -7 10 -4 6 3 10 8 10 11 0 2 -4 4 -10 4 -5 0 -10
-5 -10 -11z"/>
<path d="M5715 3960 c20 -22 31 -20 22 5 -4 8 -14 15 -23 15 -16 0 -16 -2 1
-20z"/>
<path d="M5720 3905 c0 -1 17 -15 38 -31 l37 -29 -23 30 c-19 23 -52 43 -52
30z"/>
<path d="M5780 3886 c0 -2 8 -10 18 -17 15 -13 16 -12 3 4 -13 16 -21 21 -21
13z"/>
<path d="M5859 3826 c-9 -15 -2 -39 18 -58 l26 -23 -14 23 c-8 12 -18 22 -24
22 -5 0 3 9 18 19 l29 19 -26 0 c-14 0 -26 -1 -27 -2z"/>
<path d="M5940 3744 c0 -6 9 -19 19 -28 15 -14 21 -15 27 -4 4 7 4 10 -1 6 -4
-4 -16 3 -26 15 -10 12 -18 17 -19 11z"/>
<path d="M6183 3906 c5 -11 3 -22 -3 -26 -8 -5 -5 -10 6 -14 10 -4 15 -4 11 0
-4 4 -2 13 3 19 7 9 5 17 -7 26 -15 12 -16 12 -10 -5z"/>
<path d="M6335 3720 c-3 -5 -1 -10 4 -10 6 0 11 5 11 10 0 6 -2 10 -4 10 -3 0
-8 -4 -11 -10z"/>
<path d="M6496 3545 c-3 -8 -1 -15 4 -15 13 0 22 18 11 24 -5 3 -11 -1 -15 -9z"/>
<path d="M6660 3420 c-10 -6 -11 -10 -2 -10 6 0 12 -5 12 -11 0 -5 -4 -8 -9
-4 -6 3 -9 -4 -8 -15 2 -24 4 -24 22 -7 8 9 10 19 5 27 -5 8 -6 18 -4 22 7 10
2 10 -16 -2z"/>
<path d="M6723 3364 c1 -13 -4 -18 -14 -16 -9 1 -19 -4 -23 -13 -9 -24 27 -18
42 6 9 14 10 25 4 31 -7 7 -10 4 -9 -8z"/>
<path d="M6668 3299 c18 -12 35 -19 38 -16 3 3 -8 13 -25 21 -43 23 -52 19
-13 -5z"/>
<path d="M6909 3243 c-13 -16 -12 -17 4 -4 16 13 21 21 13 21 -2 0 -10 -8 -17
-17z"/>
<path d="M6980 3200 c19 -13 30 -13 30 0 0 6 -10 10 -22 10 -19 0 -20 -2 -8
-10z"/>
</g>
</svg>
