<svg xmlns="http://www.w3.org/2000/svg" version="1.1" viewBox="-5.0 -10.0 110.0 135.0">
 <g>
  <path d="m25.781 7.8125c0.86328 0 1.5625-0.69922 1.5625-1.5625s-0.69922-1.5625-1.5625-1.5625h-4.6875c-0.86328 0-1.5625 0.69922-1.5625 1.5625s0.69922 1.5625 1.5625 1.5625z"/>
  <path d="m18.75 68.75c-0.86328 0-1.5625 0.69922-1.5625 1.5625s0.69922 1.5625 1.5625 1.5625h9.375c0.86328 0 1.5625-0.69922 1.5625-1.5625s-0.69922-1.5625-1.5625-1.5625z"/>
  <path d="m32.578 50.312c0.95312-0.20703 1.9492-0.066406 2.8125 0.39062 0.71484 0.43359 1.6445 0.22656 2.1094-0.46875 7.5781-11.484 1.875-24.297 1.6406-24.844-1.25-3.2031-3.2031-5.2344-5.625-6.25-1.9297-0.72266-4.0508-0.77734-6.0156-0.15625-5.5469-2.8125-10.078-1.875-12.969-0.54688-3.168 1.4922-5.6289 4.1523-6.875 7.4219-5.5469 14.062 0.9375 24.375 1.25 24.844 0.29297 0.44531 0.79297 0.71094 1.3281 0.70312l0.625-0.15625c1.5586-0.53516 3.2305-0.64453 4.8438-0.3125 2.0742 1.9961 4.7266 3.2812 7.5781 3.6719h0.9375c2.3047-0.015625 4.5352-0.8125 6.3281-2.2656 0.75391-0.59766 1.4336-1.2773 2.0312-2.0312zm-21.953-23.281c0.94531-2.5039 2.8203-4.5469 5.2344-5.7031 3.4375-1.5625 7.0312-1.3281 10.781 0.78125 0.42969 0.24609 0.95312 0.27734 1.4062 0.078125 1.3984-0.55859 2.957-0.58594 4.375-0.078125 1.6133 0.67578 2.918 2.2148 3.9062 4.6094 0.078125 0.078125 4.8438 11.016-0.70312 20.781l-1.1719-0.23438c1.5273-3.6172 2.375-7.4844 2.5-11.406 0.15625-8.4375-5.4688-11.016-5.7031-11.094-0.42969-0.23047-0.94141-0.25-1.3828-0.050781-0.44531 0.19922-0.76953 0.59375-0.88281 1.0664 0 0.078125-1.1719 6.5625-16.172 5-0.83594-0.09375-1.5977 0.49609-1.7188 1.3281-0.078125 0.39062-1.4844 9.0625 2.1094 15.547l-2.2656 0.3125c-1.3281-2.7344-4.375-10.703-0.3125-20.938zm17.969 22.891c-1.3359 1.1641-3.0742 1.7539-4.8438 1.6406-2.8203-0.33594-5.3711-1.8398-7.0312-4.1406-3.0469-4.2188-2.9688-10.547-2.7344-13.359 11.562 0.85938 15.781-2.9688 17.266-5.625 1.1719 1.0938 2.5781 3.2812 2.5 7.1875-0.39062 6.875-2.1875 11.797-5.1562 14.297z"/>
  <path d="m78.906 31.25c0.86328 0 1.5625-0.69922 1.5625-1.5625s-0.69922-1.5625-1.5625-1.5625h-4.6875c-0.86328 0-1.5625 0.69922-1.5625 1.5625s0.69922 1.5625 1.5625 1.5625z"/>
  <path d="m100 96.875v-70.312c0-0.82812-0.32812-1.625-0.91406-2.2109-0.58594-0.58594-1.3828-0.91406-2.2109-0.91406h-40.625c-1.7266 0-3.125 1.3984-3.125 3.125v30.703c1.0039-0.38672 2.0547-0.65234 3.125-0.78125v-29.922h40.625v70.312h-40.625v-11.328c-1.0938 1.0938-2.1367 2.2148-3.125 3.3594v7.9688c0 0.82812 0.32812 1.625 0.91406 2.2109 0.58594 0.58594 1.3828 0.91406 2.2109 0.91406h40.625c0.82812 0 1.625-0.32812 2.2109-0.91406 0.58594-0.58594 0.91406-1.3828 0.91406-2.2109z"/>
  <path d="m3.125 76.562h30.703l-0.39062-0.46875c-0.60156-0.83594-1.125-1.7227-1.5625-2.6562h-28.75v-70.312h40.625v53.281c1.0742 0.16016 2.1211 0.44531 3.125 0.85938v-54.141c0-0.82812-0.32812-1.625-0.91406-2.2109-0.58594-0.58594-1.3828-0.91406-2.2109-0.91406h-40.625c-1.7266 0-3.125 1.3984-3.125 3.125v70.312c0 0.82812 0.32812 1.625 0.91406 2.2109 0.58594 0.58594 1.3828 0.91406 2.2109 0.91406z"/>
  <path d="m59.531 49.297c-0.34375 0.75781-0.035156 1.6484 0.70312 2.0312l0.46875 0.15625c-0.375 1.6953-0.42578 3.4414-0.15625 5.1562 1.2695 0.30078 2.4805 0.80078 3.5938 1.4844-0.78125-2.2656-1.0156-5.3125 0.78125-9.1406 0.25391-0.49609 0.22656-1.0938-0.078125-1.5625v-0.15625c2.4219-2.5781 6.875-5.5469 13.906-4.1406h0.15625c0.078125 0 6.7969 0.70312 10.078 5.625 2.1094 3.2031 2.3438 7.6562 0.70312 13.047-0.77344-1.1797-1.1562-2.5742-1.0938-3.9844 0.15234-3.3672-2.0586-6.3906-5.3125-7.2656h-0.54688c-4.8438 0.70312-9.7656 0.70312-14.609 0-0.53125-0.10156-1.0742 0.078125-1.4414 0.47656-0.36719 0.39844-0.5 0.95703-0.35547 1.4766 0.46875 1.6406 0 4.2188-0.625 6.4844 0.92578 0.90625 1.6914 1.9648 2.2656 3.125 0.90625-2.5625 1.4062-5.25 1.4844-7.9688 4.3945 0.44922 8.8281 0.37109 13.203-0.23438 1.7344 0.60547 2.832 2.3125 2.6562 4.1406-0.078125 5.625 3.5938 7.8125 3.75 7.8906 0.35547 0.20312 0.77734 0.25781 1.1719 0.15625-0.023437 0.60938-0.12891 1.2148-0.3125 1.7969-0.17188 0.70703-0.43359 1.3906-0.78125 2.0312-0.47266-0.23828-1.0352-0.22266-1.4961 0.046875-0.45703 0.26953-0.74609 0.75-0.76953 1.2812 0 0.3125-0.625 8.3594-8.2031 9.0625s-9.6875-6.3281-10.156-7.7344c-0.50781 1.1953-1.1641 2.3242-1.9531 3.3594 1.875 3.5156 5.5469 7.6562 11.25 7.6562h1.1719c6.9531-0.70312 9.9219-6.25 10.703-10.234 1.875-0.39062 2.6562-2.8125 3.125-4.5312s0.85938-3.9844-0.625-5.2344c2.1094-6.6406 1.7969-12.109-0.9375-16.25-3.9062-5.9375-11.328-6.9531-12.344-7.0312-13.594-2.8125-19.297 8.9062-19.375 8.9844z"/>
  <path d="m71.875 92.188c-0.86328 0-1.5625 0.69922-1.5625 1.5625s0.69922 1.5625 1.5625 1.5625h9.375c0.86328 0 1.5625-0.69922 1.5625-1.5625s-0.69922-1.5625-1.5625-1.5625z"/>
  <path d="m40.625 78.906 1.1719 1.0156c2.2656 2.0039 4.3594 4.1992 6.25 6.5625 0.21094 0.50781 0.67188 0.87109 1.2188 0.94922 0.54297 0.082031 1.0898-0.13281 1.4375-0.55859 2.1094-2.4688 4.4375-4.7422 6.9531-6.7969l1.25-1.0156c1.8086-1.3477 3.457-2.8945 4.9219-4.6094 2.2656-2.8125 3.125-6.0156 2.3438-8.75s-4.7656-6.4062-8.8281-6.1719c-2.8867 0.16406-5.5781 1.5195-7.4219 3.75-1.8789-2.2461-4.5781-3.6523-7.5-3.9062-3.8906-0.13281-7.3867 2.3672-8.5156 6.0938-0.70312 2.7344 0 5.9375 2.1094 8.75 1.3555 1.7305 2.9023 3.3047 4.6094 4.6875zm-3.75-12.578c0.67969-2.2461 2.7344-3.793 5.0781-3.8281h0.23438c2.5781 0.15625 5.3906 2.1094 6.1719 4.2969 0.21875 0.58984 0.77344 0.99219 1.4062 1.0156 0.66016 0.007812 1.2539-0.39844 1.4844-1.0156 1.1055-2.4141 3.4453-4.0312 6.0938-4.2188 2.5-0.078125 5.0781 1.6406 5.625 3.8281s-0.15625 4.0625-1.7969 6.0156c-1.3281 1.5391-2.8203 2.9297-4.4531 4.1406l-1.3281 1.0156c-2.1406 1.7812-4.1523 3.7109-6.0156 5.7812-1.7539-2.0898-3.6602-4.0469-5.7031-5.8594l-1.0156-0.9375c-1.5273-1.2227-2.918-2.6133-4.1406-4.1406-1.4844-2.0312-2.1094-4.2969-1.6406-6.0938z"/>
  <path d="m25.859 44.219c-0.91016 0.89453-2.3711 0.89453-3.2812 0-0.62109-0.46484-1.4922-0.40625-2.043 0.14453-0.55078 0.55078-0.60938 1.4219-0.14453 2.043 2.125 2.0859 5.5312 2.0859 7.6562 0 0.46484-0.62109 0.40625-1.4922-0.14453-2.043-0.55078-0.55078-1.4219-0.60938-2.043-0.14453z"/>
  <path d="m81.484 74.844c0.46484-0.62109 0.40625-1.4922-0.14453-2.043-0.55078-0.55078-1.4219-0.60938-2.043-0.14453-0.91016 0.89453-2.3711 0.89453-3.2812 0-0.62109-0.46484-1.4922-0.40625-2.043 0.14453-0.55078 0.55078-0.60938 1.4219-0.14453 2.043 2.125 2.0859 5.5312 2.0859 7.6562 0z"/>
 </g>
<text x="0.0" y="117.5" font-size="5.0" font-weight="bold" font-family="Arbeit Regular, Helvetica, Arial-Unicode, Arial, Sans-serif" fill="#000000">Created by Creative Mahira</text><text x="0.0" y="122.5" font-size="5.0" font-weight="bold" font-family="Arbeit Regular, Helvetica, Arial-Unicode, Arial, Sans-serif" fill="#000000">from Noun Project</text></svg>