<?xml version="1.0" standalone="no"?>
<!DOCTYPE svg PUBLIC "-//W3C//DTD SVG 20010904//EN"
 "http://www.w3.org/TR/2001/REC-SVG-20010904/DTD/svg10.dtd">
<svg version="1.0" xmlns="http://www.w3.org/2000/svg"
 width="736.000000pt" height="736.000000pt" viewBox="0 0 736.000000 736.000000"
 preserveAspectRatio="xMidYMid meet">

<g transform="translate(0.000000,736.000000) scale(0.100000,-0.100000)"
fill="#000000" stroke="none">
<path d="M3995 6293 c-89 -47 -139 -141 -168 -318 -2 -13 -9 -3 -20 31 -10 28
-33 65 -52 84 -46 45 -122 53 -187 21 -73 -36 -135 -168 -158 -341 -6 -46 -13
-88 -16 -91 -2 -4 -6 -38 -9 -76 -7 -99 -32 -294 -61 -484 -14 -91 -25 -176
-23 -190 1 -13 -1 -31 -4 -39 -10 -26 -56 -390 -63 -500 -11 -179 -42 -453
-57 -505 -8 -27 -18 -68 -22 -90 -4 -22 -19 -86 -35 -142 -16 -56 -32 -133
-36 -172 -3 -39 -10 -71 -15 -71 -12 0 -114 139 -123 168 -4 12 -23 46 -42 75
-32 48 -61 103 -113 217 -28 61 -85 153 -137 221 -23 31 -47 66 -53 77 -19 36
-129 110 -196 132 -95 31 -178 41 -223 26 -42 -14 -72 -61 -72 -113 0 -35 43
-157 112 -323 25 -58 55 -136 68 -175 36 -111 150 -366 176 -396 8 -9 23 -38
33 -65 10 -27 45 -121 78 -209 58 -154 78 -222 104 -350 6 -33 20 -89 30 -124
11 -35 19 -70 19 -78 0 -19 120 -326 130 -333 4 -3 22 -34 40 -70 65 -129 179
-282 378 -509 72 -81 104 -127 137 -196 47 -100 83 -212 92 -286 7 -59 19 -63
28 -9 4 22 11 40 17 40 6 0 8 12 4 30 -3 18 -2 29 4 25 5 -3 8 22 6 62 -2 38
-1 47 1 21 2 -27 8 -48 14 -48 6 0 7 19 3 50 -6 46 -5 50 15 50 23 0 28 15 9
24 -7 3 5 3 27 -1 37 -6 39 -5 26 11 -13 16 -9 16 55 10 89 -9 78 3 -17 19
-40 7 -74 18 -77 25 -2 6 4 12 13 12 8 0 26 7 40 16 13 8 38 14 57 12 29 -3
33 -6 30 -30 -1 -16 2 -28 8 -28 5 0 10 14 10 30 0 30 1 30 54 30 30 0 58 5
61 11 5 7 -12 10 -51 8 -57 -2 -59 -1 -56 21 1 14 11 33 21 45 20 22 47 137
37 154 -4 6 0 21 8 33 15 21 16 18 16 -53 0 -63 3 -79 20 -94 13 -12 18 -25
14 -38 -4 -12 -2 -17 4 -13 6 3 13 2 17 -4 10 -16 26 -12 23 7 -2 10 11 23 38
37 50 25 59 58 43 155 -9 61 -9 63 19 99 16 20 33 45 39 55 7 14 12 -32 16
-158 3 -98 9 -181 14 -186 5 -5 7 80 5 190 l-4 200 48 63 c26 35 51 68 56 75
5 6 5 14 0 17 -5 3 -29 -24 -53 -60 l-44 -64 -7 62 c-4 35 -3 133 2 218 16
277 32 762 29 876 l-4 112 45 -31 c128 -88 373 -374 448 -524 33 -64 47 -80
56 -64 10 16 -84 169 -187 305 -19 24 -95 102 -168 172 -74 71 -135 131 -137
135 -1 3 4 12 13 19 19 16 19 30 0 30 -8 0 -15 7 -15 17 0 14 -2 14 -20 -2
-22 -20 -28 -44 -7 -26 18 14 30 2 15 -16 -9 -11 -14 -11 -29 3 -16 14 -19 32
-19 98 l0 80 93 -91 c162 -160 271 -239 427 -306 126 -55 339 -129 360 -125 8
2 -58 29 -147 60 -166 59 -361 146 -381 171 -9 10 -8 18 4 33 15 18 15 18 9
-3 -6 -21 2 -28 28 -24 4 0 7 -6 7 -14 0 -8 7 -15 16 -15 8 0 13 4 9 9 -3 6 3
14 12 20 14 8 15 12 6 22 -10 10 -16 9 -29 -2 -10 -8 -15 -9 -11 -3 6 10 -40
51 -47 42 -2 -2 -9 -13 -18 -25 l-15 -23 -69 57 c-38 32 -113 100 -166 152
l-98 94 0 69 c0 37 3 68 6 68 4 0 40 -32 81 -71 94 -89 178 -144 262 -170 56
-17 88 -20 214 -17 81 1 147 5 147 9 0 14 62 29 75 19 9 -8 14 -4 20 12 l7 23
7 -24 c7 -25 31 -42 31 -22 0 6 -4 11 -10 11 -5 0 -10 5 -10 10 0 6 7 10 16
10 10 0 14 6 10 15 -3 8 0 15 5 15 7 0 9 -11 6 -26 -5 -29 19 -46 34 -23 7 12
9 12 9 0 0 -11 4 -9 15 5 8 11 15 14 15 7 0 -7 4 -13 8 -13 4 0 8 12 7 27 0
18 -6 29 -17 31 -10 2 -18 -1 -18 -7 0 -6 -6 -11 -14 -11 -8 0 -16 -8 -18 -17
-3 -13 -6 -9 -10 10 -4 23 0 30 28 48 19 11 34 25 34 30 0 11 -8 7 -64 -33
-40 -29 -66 -36 -66 -18 0 20 -22 9 -55 -26 -27 -28 -40 -35 -60 -32 -14 3
-25 1 -25 -3 0 -5 -61 -9 -135 -9 -109 0 -146 4 -191 20 -55 19 -130 62 -169
97 -11 10 -56 49 -99 87 -76 68 -78 71 -73 107 3 21 2 39 -3 41 -4 2 -10 22
-13 46 -4 36 -3 41 9 31 11 -9 14 -9 14 1 0 7 7 10 15 6 19 -7 20 18 1 33 -11
9 -15 9 -18 0 -9 -26 -28 4 -28 44 -1 44 -30 103 -30 61 -1 -17 -2 -17 -10 -2
-12 20 -50 12 -51 -11 0 -12 -2 -11 -9 4 -8 18 -9 17 -9 -8 -1 -25 2 -27 22
-21 12 4 25 12 29 18 4 7 9 4 14 -7 3 -9 10 -15 14 -12 4 3 10 -5 14 -18 7
-26 7 -107 -1 -89 -12 29 -66 4 -56 -27 3 -12 1 -11 -11 3 -16 19 -16 19 -16
-1 0 -28 20 -40 34 -22 19 24 45 22 57 -5 15 -32 5 -58 -18 -49 -14 5 -13 0 7
-27 18 -25 24 -49 27 -101 2 -38 1 -69 -1 -69 -3 0 -31 24 -62 53 -31 28 -67
59 -80 67 -31 19 -30 30 3 30 21 0 24 3 15 12 -10 10 -17 10 -31 1 -15 -10
-22 -8 -39 10 -36 41 -55 77 -46 90 15 20 10 52 -9 55 -20 4 -24 -24 -4 -31 9
-4 9 -6 0 -6 -7 -1 -37 25 -68 56 -30 31 -57 54 -61 50 -3 -3 13 -25 36 -49
53 -54 71 -75 99 -115 28 -41 11 -43 -23 -3 -14 17 -29 29 -33 28 -4 -2 -29
12 -54 29 -25 18 -59 35 -75 39 -20 4 -7 -7 41 -38 113 -71 252 -177 337 -257
51 -48 58 -59 58 -93 0 -21 -7 -50 -16 -63 -9 -13 -13 -29 -9 -36 6 -8 10 -8
16 2 6 11 9 10 15 -4 12 -33 -5 -29 -88 21 -178 106 -213 119 -423 152 -71 11
-161 27 -200 35 -38 8 -97 15 -130 16 -62 1 -134 16 -88 18 30 1 38 18 18 38
-11 11 -13 18 -5 23 17 11 -16 33 -40 27 -34 -9 -22 3 23 23 l42 19 -34 -2
c-25 -2 -34 2 -36 16 -2 9 1 15 6 11 5 -3 7 -10 4 -15 -8 -12 -5 -11 35 2 30
11 34 10 51 -12 10 -13 21 -20 25 -16 4 4 -5 18 -20 32 -22 21 -25 28 -16 45
8 15 8 20 -2 20 -8 0 -9 3 -3 8 6 4 16 17 23 30 11 19 10 22 -5 22 -14 0 -15
2 -4 9 11 7 11 9 0 14 -9 4 -7 6 6 7 l20 1 -20 9 c-18 8 -18 9 -2 9 10 1 16 5
12 10 -3 5 -1 12 5 16 6 4 8 10 5 15 -3 5 4 11 15 15 18 6 18 8 5 21 -8 9 -15
20 -15 25 0 13 18 11 23 -3 3 -9 14 -3 31 16 15 15 24 31 21 35 -4 3 -15 -4
-25 -17 -10 -12 -25 -20 -32 -17 -8 3 -27 1 -42 -5 -15 -5 -25 -6 -21 -1 3 6
-2 14 -11 19 -11 6 -13 11 -5 16 6 4 11 2 11 -4 0 -6 5 -8 12 -4 7 4 8 3 4 -4
-10 -16 -5 -15 45 8 28 12 37 20 24 20 -11 0 7 12 40 26 79 34 195 35 310 4
44 -12 89 -22 100 -21 45 1 158 -36 150 -50 -3 -4 8 -7 25 -6 34 2 39 13 10
22 -11 3 -20 11 -20 16 0 12 142 12 176 -1 47 -18 39 -1 -11 20 -40 17 -59 19
-125 14 -43 -4 -91 -3 -106 1 -27 8 -24 9 31 21 l60 12 -71 1 c-79 1 -78 1
-91 86 -7 50 -8 268 0 303 4 21 3 31 -3 27 -14 -9 -12 2 10 65 10 30 23 56 29
58 6 2 9 7 6 12 -3 5 15 16 40 26 81 31 42 44 -54 18 -21 -6 -22 -5 -12 14 17
31 134 72 209 72 89 0 77 17 -15 22 -63 4 -90 0 -140 -17 -52 -19 -60 -20 -56
-6 3 12 0 11 -11 -3 -17 -21 -22 -11 -7 13 5 7 14 11 19 7 6 -4 16 2 21 13 20
36 154 48 275 25 38 -8 72 -11 76 -9 4 3 14 -3 21 -13 13 -15 12 -16 -4 -3
-17 13 -18 12 -13 -14 3 -15 12 -35 21 -45 13 -14 13 -17 1 -17 -8 0 -14 3
-13 6 1 3 -4 16 -11 29 -7 12 -9 22 -5 23 4 0 -3 5 -16 10 -28 11 -57 4 -64
-15 -4 -9 3 -16 17 -20 26 -6 106 -89 106 -108 0 -7 -9 2 -21 21 -11 18 -22
31 -25 28 -3 -3 1 -16 10 -29 17 -26 34 -98 40 -168 2 -25 7 -54 11 -64 6 -15
5 -17 -5 -11 -10 6 -12 4 -6 -11 5 -10 10 -28 12 -39 3 -14 1 -13 -7 5 -12 25
-13 25 -16 3 -2 -12 0 -39 6 -60 6 -20 7 -40 3 -43 -10 -7 -8 -88 2 -119 6
-16 5 -21 -3 -16 -8 4 -10 -7 -7 -42 4 -45 4 -47 -9 -23 -8 14 -14 19 -15 12
0 -7 5 -23 11 -34 8 -15 8 -19 0 -14 -6 4 -11 2 -11 -4 0 -6 -4 -9 -8 -6 -4 2
-14 1 -21 -3 -9 -6 1 -15 31 -31 24 -12 53 -32 65 -45 27 -26 177 -88 201 -82
13 3 10 7 -11 15 -55 23 -105 73 -131 132 -26 58 -36 101 -16 70 15 -24 12 5
-5 47 -19 45 -19 64 0 39 19 -25 30 -15 15 13 -6 12 -8 21 -5 21 3 0 1 9 -5
20 -8 14 -8 20 0 20 6 0 4 12 -5 30 -14 27 -14 32 1 55 15 24 15 29 0 68 -9
23 -16 47 -15 52 0 6 5 -1 10 -14 16 -39 19 -19 5 29 -7 25 -16 59 -20 75 -6
30 -6 30 14 -5 23 -42 26 -27 5 23 -17 42 -19 50 -6 42 5 -3 13 -1 16 5 4 6
21 17 38 24 21 10 26 15 14 15 -10 1 -28 -4 -40 -10 l-22 -12 20 23 c17 20 18
23 3 17 -10 -4 -18 -2 -18 3 0 5 21 11 48 13 l47 3 -52 2 c-35 1 -53 6 -53 15
0 25 17 36 58 39 23 2 42 6 42 11 0 4 12 7 28 8 l27 0 -25 10 c-14 6 -46 9
-73 7 -36 -2 -47 0 -48 12 -4 62 -3 130 3 130 10 0 2 79 -12 114 -8 22 -8 31
1 36 8 6 8 13 -1 29 -6 12 -9 27 -6 34 2 7 5 5 5 -5 1 -9 5 -19 9 -22 12 -7 4
86 -14 158 -8 32 -12 61 -9 64 3 3 5 -1 5 -9 0 -9 6 -24 14 -34 12 -16 13 -12
9 41 -2 32 -6 65 -8 72 -3 9 1 11 13 8 22 -7 198 -18 192 -12 -3 2 -40 9 -83
15 -88 12 -133 30 -82 31 l30 2 -35 13 -35 13 50 4 50 4 -52 2 c-38 1 -53 6
-53 16 0 8 7 16 15 19 13 5 12 11 -1 42 -8 20 -13 42 -10 48 3 8 5 8 5 -1 1
-7 6 -10 11 -7 8 5 8 11 0 20 -12 14 -16 313 -5 360 12 47 44 94 77 111 33 17
88 12 124 -11 29 -19 81 -121 92 -185 6 -30 14 -64 18 -74 6 -15 4 -17 -6 -11
-10 6 -12 4 -6 -11 5 -10 11 -28 13 -39 l5 -20 -16 20 c-15 19 -15 17 -1 -23
8 -24 10 -40 5 -37 -6 3 -10 2 -10 -4 0 -5 5 -13 10 -16 6 -3 10 -16 10 -28 0
-20 0 -20 -15 -1 -19 25 -19 5 0 -23 15 -21 11 -58 -6 -48 -4 3 -6 -13 -3 -36
5 -37 3 -40 -16 -34 -27 9 -26 -3 3 -15 17 -7 18 -9 5 -9 -23 -1 -23 -13 1
-28 15 -10 20 -10 24 0 2 7 9 1 17 -13 12 -22 11 -24 -2 -13 -8 7 -18 10 -21
7 -3 -3 -16 4 -29 15 -24 23 -49 24 -55 4 -3 -7 7 -15 22 -19 14 -3 23 -9 20
-12 -3 -3 9 -22 27 -41 18 -19 24 -29 14 -21 -18 14 -19 14 -5 -10 15 -28 19
-70 7 -70 -5 0 1 -19 13 -42 15 -30 17 -39 7 -30 -13 10 -17 10 -22 -3 -3 -9
-2 -25 4 -34 5 -10 7 -21 4 -24 -3 -3 1 -16 10 -29 18 -26 21 -42 5 -32 -6 3
-3 -8 6 -26 9 -17 14 -34 11 -38 -3 -3 -6 0 -6 6 0 7 -5 12 -10 12 -6 0 -3
-15 6 -32 16 -30 16 -32 1 -19 -21 17 -21 14 2 -35 10 -21 22 -50 26 -64 5
-20 2 -18 -16 10 -20 31 -24 32 -27 14 -1 -11 11 -49 27 -84 17 -35 29 -65 27
-67 -1 -2 -21 3 -44 11 -23 8 -44 11 -46 7 -3 -4 -26 -5 -51 -1 -28 4 -44 3
-42 -3 1 -5 29 -11 62 -14 38 -2 63 -9 68 -19 4 -7 13 -14 18 -14 6 0 7 4 4
10 -3 6 1 7 10 4 14 -6 14 -8 -2 -21 -13 -10 -15 -16 -5 -19 28 -13 8 -21 -39
-16 -45 4 -51 3 -47 -13 2 -12 20 -23 50 -32 26 -7 54 -23 63 -35 12 -18 15
-19 15 -6 0 9 -4 20 -10 23 -14 9 -12 22 3 22 7 0 13 -7 13 -16 0 -9 3 -27 7
-41 4 -14 4 -19 1 -12 -3 6 -10 10 -15 6 -5 -3 -12 2 -15 10 -3 9 -11 16 -16
16 -5 0 1 -19 14 -42 31 -53 41 -81 28 -73 -6 3 -10 12 -10 20 0 8 -5 17 -12
21 -8 5 -9 2 -5 -9 3 -10 2 -17 -2 -17 -5 0 0 -19 11 -42 13 -28 17 -43 9 -46
-7 -2 -4 -17 9 -43 11 -21 16 -39 11 -39 -5 0 -14 15 -21 33 -7 17 -14 27 -16
21 -3 -6 1 -24 7 -40 7 -16 13 -36 14 -44 1 -9 8 -27 15 -40 13 -24 12 -24 -5
-10 -17 13 -18 13 -13 0 3 -8 9 -24 13 -35 7 -20 6 -20 -9 -1 -9 11 -18 17
-21 14 -3 -3 10 -24 30 -48 19 -23 35 -47 35 -53 0 -6 -13 4 -30 23 -16 19
-29 30 -30 23 0 -6 5 -15 10 -18 6 -3 17 -21 26 -38 l17 -32 -25 23 c-36 32
-44 27 -13 -10 17 -20 22 -33 15 -38 -6 -4 -8 -15 -4 -26 6 -16 5 -17 -7 -6
-21 19 -34 14 -16 -6 22 -24 22 -38 0 -21 -15 12 -16 12 -10 -3 4 -11 2 -18
-5 -18 -6 0 -1 -12 13 -26 l24 -27 -25 13 -25 13 20 -23 20 -23 -22 12 c-26
13 -36 14 -28 2 3 -5 -6 -18 -20 -29 -31 -25 -31 -32 -2 -32 25 0 104 -34 127
-55 8 -7 42 -23 75 -36 33 -12 78 -36 100 -54 41 -32 105 -68 112 -62 2 2 -18
23 -44 46 -27 23 -60 52 -74 65 -15 12 -40 42 -57 65 -31 43 -35 66 -34 216 0
22 -4 43 -9 46 -6 3 -6 15 -1 30 5 13 7 39 5 57 -7 45 11 83 53 110 20 13 33
18 28 11 -5 -9 -2 -10 10 -6 10 4 35 7 57 7 22 0 39 5 39 11 0 7 -16 9 -50 4
-30 -4 -50 -3 -50 3 0 5 -12 8 -27 6 -25 -4 -24 -2 7 10 19 8 45 15 57 15 12
1 25 6 29 13 12 19 -76 0 -123 -28 -46 -27 -68 -32 -37 -9 16 12 16 14 3 15
-13 0 -18 14 -24 56 -4 31 -4 58 -1 61 3 4 1 12 -5 20 -7 7 -14 44 -17 81 -4
62 -2 70 22 99 18 22 40 34 69 39 l42 8 -40 6 -40 6 35 11 c30 10 31 11 10 12
-41 1 -72 -10 -66 -25 3 -7 0 -16 -6 -20 -8 -5 -9 3 -5 25 6 28 4 34 -14 38
-14 4 -19 12 -16 24 3 11 1 21 -3 24 -5 3 -4 21 1 41 6 19 8 41 6 47 -3 7 -9
-4 -13 -23 -7 -35 -8 -35 -15 -8 -4 14 -3 48 2 74 6 32 6 50 -2 54 -14 9 -9
149 8 214 25 96 64 128 133 107 29 -8 48 -24 70 -56 16 -24 27 -50 24 -58 -3
-8 -1 -18 5 -22 6 -3 11 -16 11 -28 0 -13 7 -33 16 -45 9 -13 13 -26 10 -29
-3 -4 -6 -1 -6 5 0 7 -5 12 -10 12 -7 0 -7 -7 0 -21 7 -11 9 -23 6 -26 -3 -3
1 -18 10 -34 9 -18 10 -29 4 -29 -6 0 -4 -12 5 -30 19 -37 19 -49 0 -24 -15
19 -15 19 -8 -1 3 -11 12 -29 19 -40 6 -11 15 -31 18 -45 5 -19 2 -17 -13 10
-27 46 -27 20 0 -31 11 -23 15 -38 8 -33 -9 5 -10 2 -6 -9 3 -10 2 -17 -2 -17
-5 0 -11 7 -15 15 -3 8 -11 15 -17 15 -7 0 -4 -9 8 -22 25 -29 43 -59 22 -40
-26 24 -26 11 -1 -40 14 -29 29 -60 33 -69 4 -9 5 -26 3 -36 -3 -11 2 -37 10
-58 18 -43 20 -59 6 -50 -13 8 -13 -1 1 -27 8 -15 8 -22 -1 -28 -9 -6 -8 -15
4 -38 20 -38 21 -66 1 -32 -8 14 -14 20 -15 13 0 -18 22 -63 29 -59 3 2 6 -7
6 -20 0 -13 -1 -24 -2 -24 -1 0 -10 16 -19 35 -9 19 -20 35 -25 35 -5 0 -1
-12 8 -27 l18 -27 -25 17 c-28 19 -40 22 -40 7 0 -5 6 -10 13 -10 25 0 59 -47
62 -87 1 -21 7 -53 13 -71 8 -23 8 -31 0 -26 -7 5 -9 1 -5 -9 3 -9 1 -17 -4
-19 -5 -2 -1 -28 11 -62 24 -70 25 -87 5 -60 -19 25 -19 15 1 -31 8 -20 13
-42 10 -48 -2 -7 -5 -4 -5 6 -1 9 -6 17 -12 17 -7 0 -8 -7 -4 -17 4 -10 9 -36
10 -58 2 -22 8 -51 14 -65 l11 -25 -4 25 c-2 14 -7 36 -11 50 l-6 25 15 -26
c8 -14 14 -46 13 -73 l-2 -49 -14 37 c-7 20 -18 36 -22 36 -5 0 0 -23 11 -51
12 -29 15 -47 8 -43 -8 5 -9 2 -3 -12 15 -36 45 -136 45 -147 -1 -7 -7 2 -15
18 -16 35 -20 19 -5 -21 6 -15 15 -77 21 -138 5 -61 14 -142 20 -181 11 -79
15 -396 5 -465 -22 -156 -86 -441 -132 -593 -51 -167 -76 -227 -140 -337 -14
-24 -30 -71 -34 -103 -8 -51 -5 -70 20 -145 19 -59 30 -120 35 -186 6 -91 16
-136 32 -136 5 0 -4 97 -13 135 -4 14 0 12 13 -7 32 -50 40 -29 12 30 -16 31
-29 63 -29 70 0 8 -12 48 -26 90 -37 105 -31 145 44 307 59 128 114 286 145
415 9 36 25 103 36 150 59 247 78 550 52 810 -6 58 -13 182 -16 275 -3 94 -9
199 -15 235 -5 36 -10 106 -10 156 0 146 -44 598 -74 769 -26 146 -36 224 -30
240 7 17 -16 134 -47 237 -59 200 -212 273 -288 138 -25 -45 -50 -148 -52
-215 l-1 -50 -8 50 c-6 40 -13 330 -12 515 0 103 -42 319 -81 411 -37 90 -112
137 -190 119 -45 -10 -71 -30 -87 -71 -15 -34 -30 -29 -30 11 0 89 -72 220
-141 255 -37 19 -116 18 -154 -2z m180 -38 c19 -20 47 -59 63 -88 26 -50 27
-57 27 -206 -1 -108 -4 -156 -12 -158 -9 -3 -9 -12 -3 -29 7 -19 7 -23 -2 -18
-7 5 -9 2 -6 -7 8 -22 18 -65 12 -51 -3 6 -10 12 -15 12 -5 0 -4 -10 2 -22 11
-21 11 -22 -4 -9 -21 17 -22 3 -2 -23 22 -30 18 -42 -5 -15 -19 24 -19 24 -20
3 0 -12 7 -27 15 -34 8 -7 15 -18 15 -24 0 -6 -4 -5 -9 3 -5 7 -14 10 -20 6
-14 -8 -11 -46 4 -57 19 -14 -36 -8 -58 6 -28 19 -173 34 -163 17 5 -7 -1 -11
-16 -12 -13 0 -32 -4 -43 -9 -14 -6 3 -9 52 -7 40 1 73 5 73 10 0 14 85 -6
103 -25 10 -10 22 -16 26 -14 5 3 18 -5 30 -17 l21 -23 -45 -3 c-25 -1 -63 -8
-85 -16 -25 -9 -58 -12 -89 -8 -28 3 -56 1 -67 -5 -15 -9 -8 -12 41 -13 87 -2
146 2 174 12 19 8 28 6 40 -7 15 -15 14 -16 -6 -9 -29 8 -29 -6 -2 -31 11 -10
26 -28 31 -39 11 -20 11 -20 -11 -1 -25 23 -27 15 -5 -20 16 -23 15 -24 -1
-17 -14 5 -16 3 -10 -8 5 -7 10 -23 12 -34 5 -38 10 -180 6 -167 -3 6 -9 12
-14 12 -5 0 -2 -14 7 -31 8 -17 11 -28 5 -25 -12 8 -9 -47 4 -78 6 -15 5 -17
-5 -11 -10 6 -12 3 -6 -16 11 -36 13 -119 3 -119 -4 0 -5 -6 -1 -12 5 -9 2 -9
-9 1 -9 7 -17 9 -17 4 0 -5 -14 -7 -31 -5 -22 3 -27 7 -18 13 11 7 9 9 -6 10
-53 3 -204 -1 -237 -7 -44 -7 -107 4 -88 16 10 6 10 15 0 43 -7 24 -8 42 -2
54 6 9 7 26 2 37 -4 12 -4 46 0 76 4 30 5 69 3 86 -3 17 1 42 8 55 18 32 19
71 1 64 -10 -4 -10 0 2 16 8 12 12 28 9 35 -3 8 2 26 12 40 9 14 14 29 10 32
-3 4 -10 0 -15 -8 -8 -12 -10 -12 -10 -2 0 8 14 27 30 42 26 25 28 29 13 33
-13 3 -11 5 7 6 14 1 36 8 50 16 29 16 100 19 148 6 18 -6 32 -6 32 -1 0 18
-185 34 -230 20 -8 -3 -14 0 -12 8 4 21 -14 13 -28 -13 -7 -14 -15 -23 -18
-21 -2 3 0 11 4 18 5 7 9 22 10 33 1 11 5 29 9 39 6 14 5 17 -4 11 -10 -6 -11
-3 -2 13 6 11 11 23 11 27 0 3 -5 3 -11 -1 -7 -4 -7 1 1 16 18 33 24 84 10 75
-9 -6 -9 -2 -2 12 15 27 24 136 12 128 -6 -4 -7 3 -1 19 6 13 10 33 10 43 0
34 11 115 17 124 3 5 1 9 -5 9 -5 0 -3 14 6 30 8 17 12 37 10 45 -3 7 0 18 6
23 7 6 21 31 32 56 28 62 81 96 152 96 47 0 56 -4 88 -35z m-447 -164 c32 -17
60 -63 72 -117 14 -61 -5 -361 -26 -413 -8 -18 -14 -44 -14 -57 0 -13 -4 -24
-8 -24 -5 0 -8 -16 -7 -35 2 -26 -3 -39 -17 -46 -10 -5 -15 -15 -12 -21 5 -7
2 -8 -6 -3 -7 4 -53 9 -104 10 -50 2 -104 8 -120 14 -16 6 -37 9 -47 6 -11 -4
-29 -3 -40 0 -17 6 -19 9 -8 16 11 7 11 9 1 9 -7 0 -10 5 -7 10 3 6 11 10 16
10 6 0 7 -4 4 -10 -3 -5 -1 -10 5 -10 6 0 8 11 6 25 -4 20 1 28 20 37 13 6 24
15 24 20 0 11 -14 10 -26 -2 -6 -6 -18 -8 -28 -4 -14 5 -14 9 -4 22 7 8 12 18
11 21 -2 3 0 6 5 7 24 3 40 18 40 40 0 24 -1 24 -19 8 -13 -12 -16 -20 -8 -25
8 -5 8 -8 0 -13 -6 -4 -11 -2 -11 4 0 6 -5 8 -11 4 -8 -4 -8 0 0 15 7 11 9 21
6 21 -3 0 -1 9 5 21 7 11 14 18 17 15 3 -3 0 -14 -8 -23 -11 -14 -9 -14 9 2
13 11 19 21 13 23 -17 6 -13 27 9 47 11 10 18 20 15 23 -3 3 -14 -3 -25 -13
-11 -10 -20 -14 -20 -8 0 5 14 19 31 32 17 13 28 25 25 28 -3 3 -14 0 -23 -8
-10 -7 -8 -2 5 12 31 35 28 48 -5 18 -15 -13 -22 -16 -14 -7 7 9 9 23 5 29 -4
7 -3 9 3 6 12 -8 39 20 29 30 -3 3 1 15 11 25 23 26 4 22 -26 -4 -14 -13 -20
-16 -13 -7 7 9 9 24 6 33 -4 11 5 31 25 56 31 39 39 56 21 45 -22 -14 -8 11
27 47 34 35 36 55 3 26 -8 -7 -6 -3 4 10 38 45 123 55 184 23z m582 -663 c0
-5 -4 -8 -10 -8 -5 0 -10 10 -10 23 0 18 2 19 10 7 5 -8 10 -18 10 -22z m255
12 c3 -6 -1 -7 -9 -4 -18 7 -21 14 -7 14 6 0 13 -4 16 -10z m-1071 -58 c2 -4
-5 -9 -17 -9 -12 -1 -32 -5 -44 -8 -36 -9 -27 3 10 14 42 12 45 12 51 3z m221
-24 c27 -29 49 -198 26 -198 -5 0 -8 -34 -6 -75 1 -41 -1 -75 -6 -75 -4 0 -3
-13 2 -29 6 -17 9 -40 6 -53 -4 -20 -4 -20 -6 5 0 15 -6 27 -12 27 -11 0 -7
-43 8 -88 4 -14 3 -15 -6 -2 -18 26 -22 3 -4 -28 13 -23 15 -34 7 -42 -9 -9
-14 -9 -19 1 -5 8 -4 10 3 5 17 -10 15 7 -4 30 -12 14 -14 15 -11 3 4 -13 1
-15 -14 -12 -12 3 -19 14 -19 29 0 30 -17 31 -23 2 -4 -20 -4 -19 -6 5 -1 25
-21 41 -21 17 0 -6 -10 -1 -22 10 -20 18 -33 20 -110 18 -76 -1 -89 -4 -94
-21 -7 -23 3 -36 12 -13 8 20 24 21 24 1 0 -9 9 -15 25 -15 19 0 25 6 26 23 2
22 2 22 6 -1 4 -22 5 -23 18 -5 14 17 14 17 15 -6 0 -19 4 -22 24 -17 15 4 26
1 29 -7 3 -6 6 -1 7 13 1 25 1 25 14 -5 8 -19 15 -25 20 -17 5 9 11 9 22 -3 9
-8 24 -15 34 -15 20 0 36 -17 26 -28 -4 -3 -20 2 -36 11 -23 14 -36 16 -62 8
-18 -5 -26 -10 -18 -10 8 -1 36 -11 62 -24 47 -23 75 -50 97 -97 11 -24 11
-23 -9 3 -12 15 -26 27 -31 27 -5 0 -2 -12 8 -27 l17 -28 -22 19 c-12 11 -22
14 -22 9 0 -6 7 -16 15 -23 8 -7 15 -20 15 -29 0 -9 7 -25 15 -35 21 -27 19
-35 -6 -29 -12 4 -20 2 -17 -3 28 -59 38 -89 34 -101 -5 -12 -9 -13 -21 -3
-10 8 -15 9 -15 2 0 -6 5 -14 10 -17 6 -3 10 -11 10 -16 0 -6 -5 -7 -11 -3
-12 7 -8 -20 7 -60 5 -12 2 -15 -10 -10 -14 5 -13 0 5 -30 12 -20 19 -40 15
-43 -3 -4 -6 -2 -6 3 0 5 -10 10 -21 11 -17 2 -19 -1 -10 -10 16 -16 14 -37
-4 -31 -18 7 -20 -7 -2 -25 10 -11 9 -13 -6 -8 -15 6 -18 2 -16 -16 2 -12 -3
-32 -10 -45 -7 -13 -10 -30 -7 -39 4 -10 2 -13 -8 -10 -8 3 -16 2 -18 -3 -2
-5 -43 -12 -93 -15 -60 -4 -83 -2 -70 4 16 8 12 10 -22 10 -36 1 -43 4 -43 20
0 11 -5 23 -11 27 -8 4 -7 9 2 15 24 15 -17 11 -59 -6 -33 -13 -35 -13 -18 0
11 8 25 15 30 15 6 1 0 7 -14 15 l-25 14 31 6 c37 8 63 42 39 51 -8 4 -25 4
-38 1 -21 -6 -21 -6 -3 8 34 26 -11 19 -47 -7 -18 -12 -26 -15 -20 -7 7 9 10
19 6 23 -4 4 -1 11 7 16 8 5 15 15 15 21 0 7 7 14 15 16 13 4 13 3 0 -6 -11
-8 -12 -11 -2 -11 7 0 10 -5 6 -11 -4 -8 1 -9 17 -4 38 11 43 22 14 29 -14 4
-23 11 -20 16 9 15 -8 12 -35 -7 l-25 -17 20 24 c15 18 16 22 4 18 -22 -9 -20
24 3 40 10 7 16 17 13 22 -3 5 4 14 15 20 11 6 18 15 15 20 -3 4 0 10 6 12 9
3 9 9 1 25 -9 16 -9 23 1 27 6 4 2 4 -11 2 -12 -2 -20 0 -16 5 3 5 -1 9 -8 9
-7 0 1 9 17 20 17 11 26 20 22 20 -5 0 -6 4 -2 10 3 5 15 0 27 -12 l21 -21 18
21 c21 26 14 62 -12 62 -10 0 -22 -8 -28 -17 -8 -15 -12 -16 -22 -5 -10 9 -10
12 -1 12 7 0 12 5 12 10 0 7 -7 7 -20 0 -11 -6 -18 -15 -15 -20 3 -6 -1 -7
-10 -3 -34 12 41 45 116 51 48 3 66 8 57 14 -8 6 1 8 27 4 22 -3 67 -8 100
-10 l60 -5 -70 15 c-48 11 -96 14 -153 10 -96 -7 -105 8 -12 19 33 4 60 11 60
16 0 14 61 11 113 -5 26 -8 47 -10 47 -5 0 5 -1 9 -2 9 -2 0 -36 7 -77 15 -52
11 -76 13 -81 5 -4 -6 -33 -13 -66 -16 -32 -3 -65 -7 -72 -9 -7 -3 -10 0 -7 5
3 6 19 10 35 10 16 0 32 5 35 11 5 7 -6 8 -32 5 -38 -6 -37 -5 7 8 43 13 43
14 13 15 -38 1 -89 -19 -72 -29 7 -5 6 -9 -4 -13 -13 -5 -16 9 -7 33 1 3 2 8
2 11 -1 4 9 5 21 2 21 -5 21 -5 3 9 -15 12 -16 17 -6 23 8 5 11 4 6 -3 -3 -5
0 -12 6 -15 20 -7 192 4 201 13 11 9 -50 21 -113 21 -75 0 -98 4 -92 13 3 5
-3 6 -14 3 -18 -7 -18 -7 0 8 14 11 16 15 5 15 -12 0 -12 2 0 9 18 12 23 41 8
41 -7 0 6 11 28 25 29 17 34 24 21 25 -20 0 -20 0 0 15 17 13 16 14 -16 3 -19
-6 -29 -13 -22 -16 13 -4 7 -22 -8 -22 -18 0 -2 32 26 51 31 20 26 26 -8 8
-11 -6 -22 -8 -25 -6 -3 3 9 13 26 22 18 9 29 20 26 25 -4 6 -1 10 6 10 7 0
10 2 7 5 -3 3 -13 2 -22 -1 -14 -5 -15 -9 -4 -15 7 -5 9 -9 3 -9 -5 0 -16 4
-24 9 -11 7 -7 13 15 25 27 16 28 16 4 11 -19 -4 -16 0 10 13 37 19 51 42 24
42 -8 0 -12 -4 -9 -10 4 -6 -1 -7 -11 -3 -12 4 -15 3 -10 -5 4 -8 2 -10 -7 -6
-18 7 -15 37 4 42 11 3 11 1 -1 -7 -19 -13 0 -14 20 -1 13 9 13 10 0 10 -9 1
-6 6 10 16 23 14 12 13 -26 -2 -6 -3 -11 2 -11 10 0 8 4 13 9 10 4 -3 16 0 25
6 16 10 16 11 1 6 -12 -4 -16 0 -13 15 3 16 0 19 -13 15 -14 -5 -13 -3 2 9 14
11 16 15 5 15 -12 0 -12 2 1 10 20 13 39 12 20 -1 -12 -8 -11 -9 6 -5 15 5 24
0 32 -19 14 -29 30 -32 48 -7 13 16 13 16 14 -1 0 -10 4 -16 10 -12 5 3 7 13
4 23 -4 11 2 8 16 -8 l22 -25 -6 27 c-3 15 -2 30 4 33 5 3 10 -3 10 -15 0 -24
28 -39 40 -20 5 9 9 9 14 1 4 -6 23 -10 42 -7 24 2 37 -1 41 -10 11 -28 21
-13 20 29 -2 35 -6 42 -24 45 -19 3 -23 -1 -23 -22 0 -19 -5 -26 -20 -26 -11
0 -20 5 -20 10 0 6 5 10 11 10 5 0 7 5 4 10 -3 6 -1 10 4 10 6 0 11 5 11 10 0
13 -37 13 -45 0 -4 -7 -11 -8 -18 -1 -7 5 -30 8 -52 8 -33 -2 -40 -6 -45 -27
-6 -25 -6 -25 -12 -2 -6 23 -32 30 -43 12 -3 -5 -13 -10 -21 -10 -8 0 -12 4
-9 10 4 7 -3 7 -22 0 -23 -8 -25 -8 -13 2 21 18 25 42 5 34 -10 -3 -13 -2 -10
5 4 5 15 7 25 4 9 -3 30 -1 45 5 16 6 66 13 113 15 47 3 87 7 89 9 4 4 63 -10
68 -16z m-175 -52 c0 -3 -4 -8 -10 -11 -5 -3 -10 -1 -10 4 0 6 5 11 10 11 6 0
10 -2 10 -4z m-63 -40 c-4 -9 -11 -16 -17 -16 -11 0 -14 33 -3 43 11 11 26
-10 20 -27z m113 8 c0 -14 -4 -23 -9 -20 -5 3 -7 15 -4 26 7 28 13 25 13 -6z
m1061 -130 c12 -25 19 -47 17 -50 -2 -2 -14 19 -25 46 -12 28 -19 50 -17 50 3
0 14 -21 25 -46z m-1106 -273 c-3 -6 -11 -8 -17 -5 -6 4 -5 9 3 15 16 10 23 4
14 -10z m1109 3 c3 -8 2 -12 -4 -9 -6 3 -10 10 -10 16 0 14 7 11 14 -7z m-824
-74 c0 -5 -4 -10 -9 -10 -6 0 -13 5 -16 10 -3 6 1 10 9 10 9 0 16 -4 16 -10z
m-121 -51 c15 -23 14 -24 -5 -6 -10 10 -28 24 -39 32 -19 14 -19 15 4 7 14 -5
32 -20 40 -33z m177 -4 c-33 -14 -62 -23 -64 -20 -4 4 25 19 78 38 47 17 35 2
-14 -18z m914 1 c0 -2 -8 -10 -17 -17 -16 -13 -17 -12 -4 4 13 16 21 21 21 13z
m-1491 -52 c-12 -15 -11 -16 9 -10 32 11 27 0 -9 -18 -26 -13 -29 -13 -19 -1
10 12 10 15 -1 15 -9 1 -8 5 5 15 26 20 32 19 15 -1z m1345 -53 c-1 -2 -16 0
-31 4 -25 7 -26 8 -8 15 17 6 49 -9 39 -19z m-1264 -20 c0 -20 -17 -37 -27
-28 -7 8 7 47 18 47 5 0 9 -9 9 -19z m-71 -125 c-2 -2 -15 -9 -29 -15 -24 -11
-24 -11 -6 3 16 13 49 24 35 12z m-974 -201 c17 -7 51 -28 78 -49 52 -39 67
-46 46 -18 -7 9 3 2 23 -17 21 -19 45 -55 54 -82 12 -32 21 -44 26 -36 5 8 10
0 14 -21 6 -32 24 -55 24 -31 0 7 14 -7 30 -29 17 -23 30 -46 30 -51 0 -5 6
-11 14 -14 14 -6 28 -54 16 -59 -15 -7 -82 -89 -77 -94 12 -12 96 67 100 94 4
26 4 26 6 -3 0 -18 -9 -46 -24 -67 -14 -20 -25 -41 -25 -46 0 -5 -17 -22 -37
-37 l-38 -27 29 27 c45 41 22 41 -28 -1 -51 -43 -142 -144 -129 -144 5 0 25
15 45 33 69 61 138 108 149 102 6 -4 22 4 37 16 25 23 26 23 8 2 -10 -13 -40
-35 -65 -50 -36 -21 -42 -28 -27 -31 10 -2 37 6 59 19 l40 22 17 -21 c14 -16
20 -18 31 -9 7 7 5 2 -4 -10 -27 -31 -3 -39 26 -8 l24 26 -2 -23 c-1 -13 -6
-23 -11 -23 -22 -1 -35 -17 -24 -30 7 -8 9 -19 5 -25 -3 -5 -1 -10 5 -10 6 0
8 -10 4 -25 -8 -34 10 -32 42 3 l24 27 -15 -30 c-19 -39 -20 -62 -2 -46 8 6
17 8 20 4 4 -3 9 2 13 11 3 9 10 16 15 16 5 0 3 -13 -6 -30 -10 -19 -12 -30
-4 -30 6 0 9 -6 6 -12 -2 -7 2 -17 10 -23 7 -5 14 -23 15 -39 2 -16 11 -34 20
-40 10 -6 18 -16 18 -23 0 -7 7 -16 16 -21 24 -13 9 -50 -51 -125 -32 -40 -52
-73 -49 -82 9 -23 18 -18 39 22 23 44 67 85 76 72 3 -6 11 -4 18 5 6 8 20 13
29 11 9 -1 24 2 32 8 12 9 13 9 3 -3 -19 -20 -16 -29 7 -23 16 4 19 2 14 -11
-6 -17 -3 -18 83 -20 24 -1 43 2 43 7 0 4 5 7 11 7 5 0 8 -4 4 -9 -3 -6 15
-13 40 -16 25 -4 45 -10 45 -14 0 -4 27 -15 60 -25 33 -10 62 -22 65 -26 2 -4
29 -19 58 -34 31 -15 87 -59 135 -106 83 -81 100 -94 83 -62 -32 59 -217 217
-315 268 -39 21 -91 51 -116 67 l-44 31 28 7 c30 8 100 -2 149 -20 34 -13 47
-14 47 -3 0 10 -138 52 -172 52 -12 0 -34 9 -48 19 l-25 19 30 7 c17 4 35 8
41 10 6 2 44 -5 83 -15 61 -16 83 -29 145 -82 40 -35 88 -85 107 -111 18 -27
35 -44 37 -38 8 25 -131 176 -203 221 -38 23 -141 50 -194 50 -24 0 -41 5 -41
11 0 7 -8 18 -17 25 -13 9 -14 13 -4 14 7 0 11 6 7 15 -3 8 -1 15 4 15 20 0 9
29 -12 34 -13 2 40 4 117 2 139 -2 141 -2 204 -36 107 -57 296 -280 390 -461
108 -205 129 -492 64 -889 -8 -52 -18 -101 -22 -108 -6 -11 -56 47 -91 108 -5
8 -12 11 -16 7 -4 -3 16 -38 45 -77 60 -82 60 -81 -3 -210 -51 -104 -106 -190
-123 -190 -7 0 -30 -9 -52 -21 -45 -23 -144 -52 -136 -39 3 4 21 11 40 14 19
4 35 11 35 15 0 4 -21 3 -47 -4 -83 -21 -113 -25 -113 -15 0 6 13 10 29 10 17
0 32 4 35 9 4 5 -21 8 -56 6 -35 -2 -51 -1 -35 1 15 3 25 9 22 14 -3 4 -14 6
-25 3 -14 -4 -22 1 -29 18 -9 22 -10 22 -11 4 -1 -16 -4 -15 -12 8 -5 15 -14
27 -19 27 -6 0 -7 -6 -4 -12 4 -7 -5 0 -20 16 l-26 28 20 22 c24 26 28 48 6
40 -9 -4 -15 0 -15 10 0 21 -6 20 -32 -4 -17 -16 -19 -23 -10 -32 9 -9 12 -8
12 5 0 9 4 17 10 17 6 0 5 -10 -2 -26 -10 -22 -13 -24 -23 -10 -7 9 -15 13
-18 9 -4 -3 -10 3 -14 13 -4 10 -19 32 -35 47 -33 34 -34 37 -8 65 24 25 26
52 5 52 -9 0 -15 -10 -15 -26 0 -21 -4 -24 -20 -19 -15 5 -20 2 -20 -12 -1
-10 -12 3 -26 29 l-24 48 20 20 c24 24 26 50 5 50 -28 0 -75 -30 -75 -48 0
-15 2 -15 10 -2 5 8 10 11 10 5 0 -5 4 -3 10 5 5 8 12 11 17 7 4 -5 2 -12 -6
-16 -10 -7 -7 -19 14 -61 14 -28 21 -49 14 -44 -9 5 -10 2 -6 -9 9 -24 0 -21
-14 4 -8 15 -8 19 0 15 14 -9 14 0 0 26 -8 14 -13 17 -19 9 -4 -7 -18 12 -34
51 -26 58 -26 63 -10 75 13 9 21 10 31 2 13 -12 43 -6 43 9 0 4 -6 17 -14 27
-13 18 -15 18 -47 -8 l-33 -26 -12 27 c-15 34 -18 5 -4 -35 9 -25 9 -26 -4
-10 -18 23 -116 260 -116 280 0 8 -7 28 -15 43 -8 16 -15 37 -15 47 0 9 -4 17
-9 17 -5 0 -14 33 -20 73 -7 39 -14 87 -17 105 -3 18 -9 30 -15 27 -5 -4 -9
11 -9 32 -1 21 -7 56 -15 78 -8 22 -16 78 -17 125 -1 60 -3 70 -5 33 -3 -33
-9 -53 -19 -57 -11 -4 -12 -1 -6 12 5 9 8 51 7 92 -3 71 -1 79 42 165 25 50
63 115 84 145 45 63 42 83 -4 26 -33 -40 -45 -60 -106 -163 -36 -60 -54 -79
-59 -63 -2 6 -8 8 -13 4 -5 -3 -9 6 -9 20 0 27 -15 35 -23 14 -3 -7 -6 -1 -6
14 -1 15 -6 30 -11 33 -6 4 -8 15 -5 25 3 10 1 21 -5 25 -6 3 -10 -3 -10 -15
0 -37 -19 -11 -26 37 -7 46 -37 89 -54 78 -6 -4 -10 1 -10 11 0 9 -8 33 -19
53 -20 39 -55 114 -79 171 -8 19 -18 43 -23 52 -5 10 -9 32 -9 49 0 24 -4 30
-15 25 -10 -4 -15 1 -15 16 0 12 -7 29 -15 38 -8 9 -16 30 -19 46 -5 45 -18
88 -28 95 -5 3 -12 25 -16 50 -4 24 -13 45 -20 45 -25 3 -27 5 -12 14 13 8 13
16 -4 62 -10 29 -27 72 -37 95 -10 23 -19 45 -19 49 0 4 -18 31 -41 61 -38 51
-40 55 -25 77 27 42 124 52 201 21z m2545 10 c0 -2 -18 -14 -40 -25 -48 -25
-53 -18 -7 10 32 20 47 25 47 15z m-131 -75 c0 -10 -3 -8 -9 5 -12 27 -12 43
0 25 5 -8 9 -22 9 -30z m-1412 24 c-3 -3 -12 -4 -19 -1 -8 3 -5 6 6 6 11 1 17
-2 13 -5z m-1158 -127 c55 -113 77 -197 50 -197 -5 0 -8 4 -5 9 10 15 -33 138
-72 209 -20 37 -29 61 -19 54 9 -8 30 -42 46 -75z m2561 55 c0 -15 -2 -15 -10
-2 -13 20 -13 33 0 25 6 -3 10 -14 10 -23z m-1470 14 c0 -2 -7 -7 -16 -10 -8
-3 -12 -2 -9 4 6 10 25 14 25 6z m402 -23 c-10 -4 -10 -8 0 -21 12 -14 10 -14
-11 -3 -19 10 -21 15 -10 22 8 5 19 8 24 8 6 0 4 -3 -3 -6z m-378 -45 c-5 -7
-2 -9 7 -6 40 15 63 20 54 10 -15 -14 -63 -24 -69 -13 -3 4 -3 11 1 15 10 10
15 7 7 -6z m1840 -84 c3 -8 2 -12 -4 -9 -6 3 -10 10 -10 16 0 14 7 11 14 -7z
m-1101 -11 c-7 -2 -21 -2 -30 0 -10 3 -4 5 12 5 17 0 24 -2 18 -5z m-743 -18
c0 -2 -6 -5 -13 -8 -8 -3 -14 1 -14 8 0 7 6 11 14 8 7 -3 13 -6 13 -8z m1420
-45 c8 -5 11 -12 7 -16 -4 -4 -15 0 -24 9 -18 18 -8 23 17 7z m-25 -78 c-3 -3
-11 0 -18 7 -9 10 -8 11 6 5 10 -3 15 -9 12 -12z m35 8 c0 -5 -2 -10 -4 -10
-3 0 -8 5 -11 10 -3 6 -1 10 4 10 6 0 11 -4 11 -10z m-1471 -4 c-2 -2 -20 -11
-39 -20 l-35 -17 25 20 c14 11 31 21 39 21 8 0 12 -2 10 -4z m1911 -71 c0 -5
-5 -3 -10 5 -5 8 -10 20 -10 25 0 6 5 3 10 -5 5 -8 10 -19 10 -25z m-2470 -68
l-34 -32 30 36 c16 20 31 34 33 32 3 -2 -10 -18 -29 -36z m520 -17 c-8 -5 -19
-10 -25 -10 -5 0 -3 5 5 10 8 5 20 10 25 10 6 0 3 -5 -5 -10z m-425 -22 c-1
-12 -9 -22 -18 -24 -15 -2 -15 0 0 22 19 29 20 30 18 2z m415 -2 c0 -2 -7 -7
-16 -10 -8 -3 -12 -2 -9 4 6 10 25 14 25 6z m-40 -141 c-14 -8 -29 -14 -35
-14 -5 0 1 6 15 14 14 8 30 14 35 14 6 0 -1 -6 -15 -14z m-10 -55 c-8 -5 -19
-10 -25 -10 -5 0 -3 5 5 10 8 5 20 10 25 10 6 0 3 -5 -5 -10z m-257 -35 c-3
-9 -8 -14 -10 -11 -3 3 -2 9 2 15 9 16 15 13 8 -4z m8 -32 c-12 -20 -14 -14
-5 12 4 9 9 14 11 11 3 -2 0 -13 -6 -23z m760 -9 c129 -21 180 -39 282 -98
174 -100 177 -103 177 -138 0 -11 -5 -15 -14 -12 -8 3 -17 0 -21 -5 -3 -6 -10
-9 -15 -6 -5 3 -14 -3 -20 -14 -16 -31 20 -40 53 -13 13 11 16 5 19 -45 6 -82
-15 -692 -32 -898 -4 -55 -5 -143 -3 -195 l5 -95 -38 -59 -39 -59 -12 42 c-6
23 -21 54 -32 69 -19 27 -19 32 -6 88 7 32 22 126 31 207 11 88 21 141 25 130
6 -13 8 -14 8 -3 1 13 2 13 11 0 9 -13 11 -13 20 0 8 12 10 11 10 -8 0 -13 4
-20 10 -17 24 15 -8 55 -45 55 l-23 0 -4 188 c-5 231 1 262 40 213 11 -14 12
-13 10 9 -3 22 -8 25 -40 24 -45 -1 -50 11 -9 19 24 5 28 10 24 27 -5 20 -43
29 -43 10 0 -5 6 -10 13 -10 8 0 7 -3 -3 -9 -19 -13 -27 -6 -35 32 -10 43 -78
178 -126 249 -36 52 -49 88 -33 88 4 0 13 -8 20 -17 12 -16 13 -15 14 15 0 27
-3 32 -24 32 -17 0 -26 -6 -28 -20 -2 -16 -17 -3 -68 61 -36 45 -87 99 -115
122 -27 22 -54 44 -59 49 -14 12 8 10 115 -8z m-740 -31 c-12 -20 -14 -14 -5
12 4 9 9 14 11 11 3 -2 0 -13 -6 -23z m-224 -455 c-2 -13 -4 -5 -4 17 -1 22 1
32 4 23 2 -10 2 -28 0 -40z m1271 -1065 c37 -73 36 -99 -4 -143 -20 -22 -40
-40 -44 -40 -5 0 -10 12 -12 28 -4 22 -6 24 -12 10 -23 -51 28 -64 71 -18 28
30 28 30 35 8 3 -13 6 -49 7 -81 1 -46 -2 -59 -16 -64 -10 -3 -31 -15 -47 -26
l-29 -20 -18 24 c-15 19 -19 42 -19 119 0 85 3 102 32 168 17 39 33 72 35 72
1 0 11 -17 21 -37z m-788 -59 c0 -8 -19 -13 -24 -6 -3 5 1 9 9 9 8 0 15 -2 15
-3z m635 -209 c-7 -33 -24 -78 -39 -99 -14 -21 -26 -45 -26 -52 0 -16 -36 -19
-45 -4 -3 6 -24 10 -46 10 -21 0 -39 5 -39 10 0 6 -8 10 -18 10 -11 0 -18 7
-18 19 0 14 10 21 38 25 20 3 41 12 45 19 10 16 83 59 83 49 0 -5 -18 -26 -40
-47 -22 -21 -40 -46 -40 -55 0 -19 91 80 126 138 15 24 28 42 29 40 2 -2 -3
-30 -10 -63z m-267 -82 c-10 -2 -28 -2 -40 0 -13 2 -5 4 17 4 22 1 32 -1 23
-4z m105 -90 c-7 -2 -19 -2 -25 0 -7 3 -2 5 12 5 14 0 19 -2 13 -5z m-58 -32
c3 -5 1 -12 -5 -16 -5 -3 -10 1 -10 9 0 18 6 21 15 7z m-78 -293 c-3 -8 -6 -5
-6 6 -1 11 2 17 5 13 3 -3 4 -12 1 -19z"/>
<path d="M3855 5600 c-3 -5 -3 -14 0 -20 3 -5 1 -19 -5 -31 -21 -38 -4 -30 24
11 31 47 33 60 6 35 -18 -17 -20 -17 -14 -2 7 18 -1 23 -11 7z"/>
<path d="M4190 5496 c0 -2 8 -10 18 -17 15 -13 16 -12 3 4 -13 16 -21 21 -21
13z"/>
<path d="M3987 5384 c-12 -12 -8 -96 4 -89 6 4 8 13 5 21 -3 7 -1 16 4 19 6 4
10 -1 10 -9 0 -15 18 -32 25 -24 7 6 -22 82 -32 85 -5 2 -12 0 -16 -3z m23
-24 c0 -5 -4 -10 -10 -10 -5 0 -10 5 -10 10 0 6 5 10 10 10 6 0 10 -4 10 -10z"/>
<path d="M4043 5373 c3 -10 8 -31 11 -46 4 -15 11 -25 17 -21 6 3 7 19 4 35
-5 22 -3 29 9 29 9 0 16 5 16 10 0 6 -14 10 -31 10 -24 0 -29 -4 -26 -17z"/>
<path d="M3925 5369 c-9 -13 -9 -78 -1 -86 3 -4 6 3 6 15 0 12 4 22 9 22 5 0
7 -9 4 -20 -4 -14 0 -20 12 -20 15 0 17 6 11 38 -3 20 -6 43 -6 50 0 15 -26
16 -35 1z m25 -19 c0 -5 -4 -10 -10 -10 -5 0 -10 5 -10 10 0 6 5 10 10 10 6 0
10 -4 10 -10z"/>
<path d="M3865 5260 c-3 -6 1 -7 9 -4 18 7 21 14 7 14 -6 0 -13 -4 -16 -10z"/>
<path d="M3480 5905 c-20 -24 -6 -28 15 -5 10 11 13 20 8 20 -6 0 -16 -7 -23
-15z"/>
<path d="M3544 5589 c-3 -6 -12 -8 -19 -5 -7 2 -16 2 -20 -2 -4 -4 -12 -7 -18
-7 -7 0 -13 -12 -15 -27 -2 -16 1 -28 7 -28 6 0 11 7 11 15 0 8 7 15 15 15 8
0 15 -7 15 -15 0 -8 8 -16 18 -16 9 -1 24 -2 32 -3 8 0 18 6 22 14 5 12 7 11
7 -3 1 -28 26 -14 29 16 2 15 8 27 13 27 6 0 8 -16 4 -37 -5 -36 -5 -36 7 -13
7 14 17 28 23 33 16 12 -16 27 -53 24 -25 -1 -34 -8 -39 -25 -3 -13 -10 -21
-17 -19 -13 5 -9 39 6 48 5 4 3 9 -6 12 -8 3 -18 2 -22 -4z m-7 -41 c-3 -8 -6
-5 -6 6 -1 11 2 17 5 13 3 -3 4 -12 1 -19z"/>
<path d="M3429 5533 c-13 -15 -12 -15 9 -4 23 12 28 21 13 21 -5 0 -15 -7 -22
-17z"/>
<path d="M3676 5525 c-20 -31 -20 -39 0 -31 8 3 12 2 9 -4 -6 -10 24 -50 37
-50 5 0 6 11 2 24 -3 13 -1 27 5 30 13 8 15 26 3 26 -5 0 -14 -10 -20 -22 -10
-20 -11 -18 -6 15 7 43 -6 49 -30 12z"/>
<path d="M3511 5441 c-8 -5 -9 -11 -3 -15 12 -7 192 -17 192 -11 0 3 -16 12
-36 20 -39 16 -131 20 -153 6z m124 -11 c13 -5 14 -9 5 -9 -8 0 -24 4 -35 9
-13 5 -14 9 -5 9 8 0 24 -4 35 -9z"/>
<path d="M3408 5413 c7 -3 16 -2 19 1 4 3 -2 6 -13 5 -11 0 -14 -3 -6 -6z"/>
<path d="M3398 5253 c7 -3 16 -2 19 1 4 3 -2 6 -13 5 -11 0 -14 -3 -6 -6z"/>
<path d="M3350 4890 c-13 -8 -12 -10 3 -10 9 0 17 5 17 10 0 12 -1 12 -20 0z"/>
<path d="M3433 4653 c-7 -2 -13 -21 -13 -41 0 -33 1 -35 14 -16 14 18 15 18
25 -8 15 -39 21 -35 18 10 -4 55 -14 68 -44 55z m27 -23 c0 -5 -7 -10 -16 -10
-8 0 -12 5 -9 10 3 6 10 10 16 10 5 0 9 -4 9 -10z"/>
<path d="M3497 4643 c-2 -5 -2 -25 0 -45 5 -39 28 -52 39 -23 5 13 8 13 21 0
17 -17 33 -20 33 -5 0 6 -7 10 -16 10 -13 0 -14 3 -4 15 6 8 9 19 5 24 -3 7 0
8 9 5 9 -3 16 -1 16 5 0 14 -37 15 -45 1 -4 -6 -12 -4 -21 5 -17 16 -30 19
-37 8z m33 -44 c0 -10 -4 -19 -9 -19 -5 0 -8 11 -8 25 0 13 3 22 8 19 5 -3 9
-14 9 -25z"/>
<path d="M3623 4633 c-7 -3 -13 -20 -13 -39 0 -36 15 -47 23 -16 4 14 6 14 12
-5 11 -35 24 -27 22 13 -3 36 -21 55 -44 47z m27 -23 c0 -5 -4 -10 -10 -10 -5
0 -10 5 -10 10 0 6 5 10 10 10 6 0 10 -4 10 -10z"/>
<path d="M3305 4560 c-3 -5 1 -10 9 -10 9 0 16 5 16 10 0 6 -4 10 -9 10 -6 0
-13 -4 -16 -10z"/>
<path d="M3690 4513 c1 -13 29 -59 30 -48 0 21 -13 55 -21 55 -5 0 -9 -3 -9
-7z"/>
<path d="M3300 4440 c-13 -8 -13 -10 2 -10 9 0 20 5 23 10 8 13 -5 13 -25 0z"/>
<path d="M3281 4404 c-21 -15 -22 -18 -6 -26 12 -7 21 -6 28 2 9 10 8 12 -8 6
-17 -5 -17 -3 4 14 28 24 15 27 -18 4z"/>
<path d="M3685 4310 c3 -5 8 -10 11 -10 2 0 4 5 4 10 0 6 -5 10 -11 10 -5 0
-7 -4 -4 -10z"/>
<path d="M3265 4290 c-3 -5 -2 -10 4 -10 5 0 13 5 16 10 3 6 2 10 -4 10 -5 0
-13 -4 -16 -10z"/>
<path d="M3320 4200 c20 -13 40 -13 40 0 0 6 -12 10 -27 10 -22 0 -25 -2 -13
-10z"/>
<path d="M2534 3983 c17 -62 18 -64 39 -61 11 2 22 9 25 16 2 7 -2 10 -12 6
-12 -5 -18 2 -22 25 -4 17 -13 31 -21 31 -9 0 -12 -7 -9 -17z"/>
<path d="M2480 3965 c0 -44 12 -66 34 -63 11 2 19 8 16 13 -2 6 -10 9 -17 7
-7 -2 -13 5 -13 15 0 10 -5 25 -10 33 -8 12 -10 12 -10 -5z"/>
<path d="M2450 3918 c0 -32 4 -58 10 -58 13 0 13 80 0 100 -7 11 -10 -2 -10
-42z"/>
<path d="M2418 3935 c3 -20 1 -24 -11 -19 -10 3 -17 -1 -20 -13 -3 -14 -5 -12
-11 10 -5 15 -12 27 -18 27 -9 0 -6 -18 13 -67 11 -29 29 -30 29 -1 0 17 3 19
12 10 21 -21 28 -13 28 33 0 31 -4 45 -14 45 -9 0 -12 -8 -8 -25z"/>
<path d="M2520 3508 c0 -39 1 -40 15 -22 14 19 14 19 15 -3 0 -40 17 -33 23
10 6 43 -2 57 -35 57 -14 0 -18 -9 -18 -42z"/>
<path d="M2589 3490 c-1 -16 -2 -36 -3 -42 -1 -7 10 -14 24 -16 22 -2 23 -1 8
8 -22 14 -23 30 -2 30 14 0 14 3 4 15 -10 12 -9 15 4 15 10 0 14 5 11 10 -3 6
-15 10 -26 10 -14 0 -19 -7 -20 -30z"/>
<path d="M2662 3488 c-6 -7 -14 -27 -18 -43 -7 -27 -6 -29 9 -16 15 12 17 11
17 -8 0 -28 20 -27 21 2 3 58 -10 88 -29 65z"/>
<path d="M2720 3451 c0 -12 5 -21 10 -21 6 0 10 -7 10 -15 0 -18 -16 -20 -23
-2 -3 6 -6 2 -6 -11 -1 -19 4 -23 22 -20 13 1 32 -5 41 -15 23 -23 46 -6 46
34 0 31 -25 40 -48 17 -9 -9 -12 -9 -13 3 -1 7 -2 21 -3 29 -2 24 -36 25 -36
1z m86 -57 c-3 -9 -6 -17 -6 -20 0 -2 -7 -1 -15 2 -12 5 -13 10 -4 20 16 19
33 18 25 -2z"/>
<path d="M3280 3451 c0 -4 20 -11 44 -13 85 -10 209 -88 278 -176 69 -85 159
-271 177 -362 30 -156 43 -220 52 -257 38 -173 -42 -609 -156 -839 -30 -61
-55 -120 -55 -131 0 -21 18 -34 48 -32 12 0 10 3 -5 9 -26 11 -29 27 -8 54 27
36 124 300 145 396 11 52 25 114 30 136 20 91 32 234 27 330 -2 56 -1 108 4
115 7 11 9 10 9 -4 0 -10 5 -15 10 -12 6 3 10 1 10 -4 0 -6 5 -11 10 -11 6 0
10 8 10 18 0 20 -42 48 -58 38 -10 -6 -27 42 -17 52 3 3 5 -1 5 -10 0 -8 11
-20 25 -26 14 -6 25 -8 25 -3 0 5 -6 12 -12 14 -10 4 -10 6 0 6 24 2 12 19
-18 26 -16 4 -30 11 -30 16 0 5 10 5 25 -1 13 -5 27 -5 30 -1 6 10 -18 21 -44
21 -14 0 -21 14 -30 58 -22 103 -42 155 -102 267 -78 146 -132 209 -222 264
-94 58 -207 91 -207 62z"/>
<path d="M2823 3370 c-12 -31 -6 -39 15 -18 9 9 12 6 12 -16 0 -37 22 -29 34
12 10 35 1 55 -14 32 -8 -13 -10 -12 -10 3 0 28 -25 20 -37 -13z"/>
<path d="M3263 2959 c-25 -9 -31 -29 -10 -29 19 0 52 26 41 32 -5 3 -19 2 -31
-3z"/>
<path d="M3330 2961 c0 -10 47 -21 54 -13 3 3 3 9 0 13 -7 12 -54 12 -54 0z"/>
<path d="M3424 2935 c10 -8 23 -12 28 -9 14 9 -2 24 -25 24 -21 -1 -21 -1 -3
-15z"/>
<path d="M3193 2917 c-22 -10 -31 -27 -15 -27 12 0 48 28 42 33 -3 2 -15 0
-27 -6z"/>
<path d="M3490 2910 c0 -11 33 -30 52 -30 7 0 2 9 -12 20 -28 22 -40 25 -40
10z"/>
<path d="M3130 2855 c-22 -27 -5 -37 19 -11 19 20 21 26 9 26 -9 0 -21 -7 -28
-15z"/>
<path d="M3580 2855 c7 -8 17 -15 22 -15 6 0 5 7 -2 15 -7 8 -17 15 -22 15 -6
0 -5 -7 2 -15z"/>
<path d="M3820 2853 c0 -14 20 -39 20 -25 0 6 9 12 20 12 11 0 20 5 20 10 0 6
-13 10 -30 10 -16 0 -30 -3 -30 -7z"/>
<path d="M3186 2809 c-8 -42 -8 -49 4 -49 6 0 10 12 10 27 0 20 3 24 11 16 6
-6 18 -9 26 -6 11 4 13 0 7 -21 -5 -20 -2 -26 10 -26 12 0 16 10 16 45 0 46
-7 54 -28 33 -9 -9 -15 -9 -24 0 -19 19 -25 15 -32 -19z"/>
<path d="M3293 2803 c-13 -37 -6 -53 22 -53 15 0 26 7 30 20 17 53 -34 85 -52
33z m37 -13 c0 -11 -7 -20 -15 -20 -18 0 -19 12 -3 28 16 16 18 15 18 -8z"/>
<path d="M3366 2808 c-12 -26 -3 -62 16 -66 20 -4 42 40 35 67 -3 10 -9 3 -18
-19 l-14 -35 -6 35 c-4 26 -7 31 -13 18z"/>
<path d="M3427 2783 c-6 -38 -2 -53 14 -53 5 0 9 15 10 33 l1 32 11 -27 c17
-43 32 -36 38 16 3 17 -1 31 -8 33 -8 3 -13 -5 -14 -19 l0 -23 -9 23 c-14 34
-37 27 -43 -15z"/>
<path d="M3520 2814 c0 -4 7 -12 15 -18 12 -9 13 -18 6 -44 -8 -25 -7 -32 2
-29 7 2 13 18 15 35 2 24 8 32 23 32 23 0 25 15 3 24 -21 8 -64 8 -64 0z"/>
<path d="M3620 2812 c0 -5 9 -17 20 -27 22 -20 26 -14 10 16 -11 19 -30 26
-30 11z"/>
<path d="M3095 2789 c-4 -11 -4 -23 0 -27 7 -7 25 17 25 36 0 20 -18 14 -25
-9z"/>
<path d="M3652 2728 c2 -12 8 -23 14 -25 7 -2 10 6 7 22 -6 30 -26 34 -21 3z"/>
<path d="M3067 2723 c-4 -3 -7 -18 -7 -32 1 -25 1 -25 15 -7 23 30 15 63 -8
39z"/>
<path d="M3668 2645 c-5 -25 3 -40 16 -28 9 10 7 53 -3 53 -5 0 -11 -11 -13
-25z"/>
<path d="M3045 2620 c-8 -36 5 -63 16 -34 11 27 11 64 0 64 -5 0 -12 -13 -16
-30z"/>
<path d="M3316 2615 c-24 -24 0 -70 31 -58 17 7 17 47 -1 62 -11 9 -17 8 -30
-4z m20 -32 c-10 -10 -19 5 -10 18 6 11 8 11 12 0 2 -7 1 -15 -2 -18z"/>
<path d="M3386 2618 c-11 -35 -16 -68 -10 -68 14 0 65 61 59 70 -9 14 -45 12
-49 -2z"/>
<path d="M3659 2588 c-6 -24 -5 -68 2 -68 5 0 9 16 9 35 0 19 -2 35 -5 35 -3
0 -5 -1 -6 -2z"/>
<path d="M3874 2579 c-10 -17 13 -36 27 -22 12 12 4 33 -11 33 -5 0 -12 -5
-16 -11z"/>
<path d="M3030 2511 c0 -17 5 -33 10 -36 6 -4 10 8 10 29 0 20 -4 36 -10 36
-5 0 -10 -13 -10 -29z"/>
<path d="M3887 2520 c7 -26 22 -35 35 -22 8 8 7 16 -2 27 -18 22 -39 19 -33
-5z"/>
<path d="M3651 2479 c-14 -40 -14 -39 4 -39 10 0 15 11 15 35 0 43 -5 44 -19
4z"/>
<path d="M3242 2451 c-8 -5 -12 -23 -10 -47 2 -32 7 -40 26 -42 12 -2 22 1 22
6 0 5 -10 13 -22 16 -23 6 -23 7 -4 21 11 8 14 15 8 15 -7 0 -12 5 -12 11 0 6
7 8 16 5 10 -4 14 -1 12 6 -6 16 -20 20 -36 9z"/>
<path d="M3883 2446 c11 -9 14 -17 8 -20 -6 -4 -7 -14 -4 -23 4 -11 3 -14 -5
-9 -7 4 -12 3 -12 -2 0 -10 23 -22 41 -22 5 0 7 11 3 25 -4 15 -2 25 5 25 20
0 12 17 -14 28 -34 16 -44 15 -22 -2z"/>
<path d="M3120 2447 c0 -8 41 -87 45 -87 3 0 14 18 25 40 16 31 17 40 6 40 -7
0 -17 -12 -21 -27 l-8 -28 -13 33 c-8 17 -19 32 -24 32 -6 0 -10 -1 -10 -3z"/>
<path d="M3316 2409 c-8 -42 -8 -49 3 -49 5 0 11 12 13 28 l3 27 18 -33 c23
-41 37 -33 36 21 -1 23 -3 34 -6 25 -6 -22 -19 -23 -27 -3 -10 26 -33 16 -40
-16z"/>
<path d="M3424 2426 c-3 -8 -4 -27 -2 -43 3 -31 35 -44 49 -21 12 18 11 68 -1
68 -5 0 -10 -13 -10 -30 0 -18 -5 -30 -13 -30 -9 0 -12 11 -9 35 4 35 -4 47
-14 21z"/>
<path d="M3510 2421 c0 -11 9 -25 21 -32 15 -8 18 -14 10 -22 -7 -7 -15 -6
-26 3 -24 20 -28 6 -4 -15 15 -15 24 -17 37 -9 27 18 25 41 -5 59 -15 9 -20
14 -10 11 12 -4 17 -2 15 6 -8 23 -38 21 -38 -1z"/>
<path d="M3054 2400 c3 -14 6 -28 6 -32 0 -5 5 -8 10 -8 15 0 12 24 -6 46 -15
18 -15 18 -10 -6z"/>
<path d="M3627 2403 c-4 -3 -7 -15 -7 -26 0 -16 3 -17 15 -7 8 7 15 19 15 26
0 15 -12 19 -23 7z"/>
<path d="M3870 2363 c0 -5 5 -14 12 -21 9 -9 8 -12 -5 -12 -25 0 -21 -17 6
-24 56 -15 65 10 17 44 -16 12 -30 17 -30 13z"/>
<path d="M3106 2315 c7 -18 44 -40 44 -27 0 10 -33 42 -43 42 -3 0 -4 -7 -1
-15z"/>
<path d="M3557 2306 c-15 -12 -27 -25 -27 -29 0 -9 56 19 65 32 12 20 -11 18
-38 -3z"/>
<path d="M3860 2280 c0 -5 5 -10 12 -10 13 0 2 -14 -13 -16 -23 -3 -22 -6 6
-18 17 -7 36 -11 43 -8 21 7 13 38 -13 50 -32 15 -35 15 -35 2z"/>
<path d="M3190 2251 c0 -5 14 -14 30 -20 33 -11 41 2 11 19 -24 12 -41 13 -41
1z"/>
<path d="M3475 2252 c-29 -6 -43 -22 -19 -21 27 1 60 15 48 21 -5 2 -18 3 -29
0z"/>
<path d="M3287 2234 c-12 -12 4 -24 31 -24 26 1 26 1 8 15 -22 17 -30 18 -39
9z"/>
<path d="M3370 2225 c0 -10 10 -15 30 -15 32 0 40 14 14 24 -27 10 -44 7 -44
-9z"/>
<path d="M3834 2215 c-9 -22 4 -35 37 -35 19 0 29 5 29 14 0 22 -16 28 -30 11
-7 -8 -16 -12 -22 -9 -5 3 -4 12 3 20 9 10 9 14 0 14 -6 0 -14 -7 -17 -15z"/>
<path d="M3191 1961 c-8 -5 -11 -16 -6 -30 5 -16 3 -20 -9 -15 -9 3 -16 1 -16
-5 0 -22 35 -10 48 16 13 29 5 47 -17 34z"/>
<path d="M3090 1943 c0 -4 5 -15 10 -23 8 -13 10 -13 10 2 0 9 -4 20 -10 23
-5 3 -10 3 -10 -2z"/>
<path d="M3250 1855 c-7 -9 -10 -18 -7 -22 8 -7 37 15 37 28 0 14 -16 11 -30
-6z"/>
<path d="M3276 1825 c-15 -15 -12 -45 4 -45 24 0 40 15 40 36 0 28 -21 32 -44
9z m29 -15 c-3 -5 -10 -10 -16 -10 -5 0 -9 5 -9 10 0 6 7 10 16 10 8 0 12 -4
9 -10z"/>
<path d="M3760 3330 c0 -24 4 -30 22 -30 17 0 19 3 10 12 -7 7 -12 20 -12 30
0 10 -4 18 -10 18 -5 0 -10 -13 -10 -30z"/>
<path d="M3817 3323 c-11 -11 -8 -51 5 -59 6 -4 17 1 23 10 11 14 13 15 19 1
3 -8 15 -15 26 -15 11 0 20 -4 20 -9 0 -5 7 -12 16 -15 12 -4 15 -2 10 9 -3 8
-1 15 5 15 6 0 7 5 4 10 -3 6 1 10 10 10 11 0 15 -5 11 -15 -20 -51 -20 -51
-4 -37 8 7 22 10 30 7 17 -7 33 34 19 48 -5 5 -35 9 -67 10 -40 1 -65 8 -78
20 -21 18 -38 22 -49 10z m19 -40 c-10 -10 -19 5 -10 18 6 11 8 11 12 0 2 -7
1 -15 -2 -18z m159 -13 c3 -5 1 -10 -4 -10 -6 0 -11 5 -11 10 0 6 2 10 4 10 3
0 8 -4 11 -10z"/>
<path d="M3867 3223 c-26 -25 31 -75 60 -52 10 9 13 6 14 -12 0 -13 3 -19 5
-12 3 7 12 9 20 6 9 -3 14 2 14 17 0 11 -4 19 -9 15 -5 -3 -16 2 -25 11 -9 8
-20 13 -25 10 -5 -4 -16 1 -24 9 -17 17 -21 18 -30 8z"/>
<path d="M4005 3189 c-11 -4 -14 -8 -7 -8 6 -1 12 -10 12 -22 0 -24 15 -17 23
11 6 24 -2 30 -28 19z"/>
<path d="M3926 3113 c-3 -4 -6 -18 -5 -32 0 -14 3 -20 6 -13 8 21 35 14 28 -8
-4 -11 -2 -20 4 -20 6 0 12 9 13 20 0 11 1 25 2 31 1 13 -39 31 -48 22z"/>
<path d="M3990 3084 c-13 -33 -13 -54 0 -34 8 13 10 12 10 -2 0 -10 5 -18 10
-18 6 0 10 8 11 18 0 10 3 12 6 5 7 -20 33 -15 33 6 0 14 6 17 25 13 14 -2 22
-8 20 -13 -3 -4 -12 -6 -20 -2 -8 3 -15 0 -15 -6 0 -13 46 -15 54 -2 10 15 -5
41 -23 41 -14 0 -14 2 -1 10 10 6 3 8 -24 7 -28 -2 -41 -8 -47 -22 -7 -19 -8
-18 -8 3 -1 30 -19 28 -31 -4z"/>
<path d="M3982 2962 c-16 -2 -22 -8 -18 -19 3 -8 6 -17 6 -19 0 -2 5 -4 11 -4
6 0 9 6 6 14 -4 10 2 16 16 18 12 2 18 5 12 9 -5 3 -20 3 -33 1z"/>
<path d="M3995 2890 c-3 -5 3 -10 14 -10 12 0 21 5 21 10 0 6 -6 10 -14 10 -8
0 -18 -4 -21 -10z"/>
<path d="M4034 2689 c-9 -15 11 -33 30 -26 9 4 13 13 10 22 -7 17 -30 20 -40
4z"/>
<path d="M4037 2639 c6 -6 9 -19 5 -28 -5 -13 -3 -14 10 -3 13 10 17 10 21 0
3 -7 6 -3 6 8 1 20 -16 34 -42 34 -8 0 -8 -3 0 -11z"/>
<path d="M4040 2528 c0 -21 1 -21 13 -3 8 10 19 15 25 11 6 -3 13 -2 17 4 4 6
-6 10 -24 10 -25 0 -31 -4 -31 -22z"/>
<path d="M4040 2470 c20 -13 53 -13 45 0 -3 6 -18 10 -33 10 -21 0 -24 -2 -12
-10z"/>
<path d="M4030 2444 c0 -2 14 -19 31 -37 l31 -32 -4 29 c-2 23 -10 31 -30 37
-16 4 -28 5 -28 3z"/>
<path d="M4430 5472 c0 -4 18 -8 40 -8 22 -1 40 2 40 7 0 5 -18 9 -40 9 -22 0
-40 -3 -40 -8z"/>
<path d="M4520 5380 c0 -5 7 -10 16 -10 8 0 12 5 9 10 -3 6 -10 10 -16 10 -5
0 -9 -4 -9 -10z"/>
<path d="M5030 4811 c0 -5 5 -13 10 -16 6 -3 10 -2 10 4 0 5 -4 13 -10 16 -5
3 -10 2 -10 -4z"/>
<path d="M4650 4785 c0 -8 4 -15 10 -15 5 0 7 7 4 15 -4 8 -8 15 -10 15 -2 0
-4 -7 -4 -15z"/>
<path d="M4955 4740 c28 -12 57 -12 50 0 -3 6 -21 10 -38 9 -27 0 -29 -2 -12
-9z"/>
<path d="M4310 4700 c0 -5 5 -10 11 -10 5 0 7 5 4 10 -3 6 -8 10 -11 10 -2 0
-4 -4 -4 -10z"/>
<path d="M4341 4706 c2 -2 21 -6 42 -10 27 -5 37 -4 32 3 -3 6 -22 11 -42 11
-20 0 -34 -2 -32 -4z"/>
<path d="M4465 4700 c17 -4 41 -8 55 -9 20 0 22 1 10 9 -8 5 -33 9 -55 9 -39
-1 -39 -2 -10 -9z"/>
<path d="M4104 4612 c-14 -9 -27 -72 -15 -72 5 0 12 6 14 13 4 8 12 4 25 -12
13 -16 21 -20 26 -12 4 7 3 18 -3 25 -6 7 -8 21 -5 31 10 24 -19 43 -42 27z
m26 -16 c0 -3 -4 -8 -10 -11 -5 -3 -10 -1 -10 4 0 6 5 11 10 11 6 0 10 -2 10
-4z"/>
<path d="M3856 4603 c-3 -3 -6 -21 -6 -40 0 -37 23 -46 40 -14 6 13 17 17 30
14 22 -6 28 12 8 20 -7 3 -1 6 15 6 24 1 27 -3 27 -30 0 -17 4 -28 10 -24 6 3
10 17 10 31 0 13 5 24 10 24 6 0 10 4 10 10 0 12 -98 11 -106 -1 -3 -5 -13 -5
-23 1 -10 5 -21 6 -25 3z m20 -50 c-11 -11 -17 4 -9 23 7 18 8 18 11 1 2 -10
1 -21 -2 -24z"/>
<path d="M4027 4603 c-4 -3 -7 -19 -7 -35 0 -23 4 -28 23 -27 20 0 21 1 2 8
-19 8 -19 8 0 19 11 6 14 12 8 12 -7 0 -13 5 -13 11 0 5 4 8 9 4 5 -3 12 -1
16 5 7 11 -28 14 -38 3z"/>
<path d="M4480 4589 c0 -12 8 -23 20 -26 11 -3 20 -12 20 -20 0 -10 -6 -13
-16 -9 -10 4 -14 1 -12 -6 3 -7 12 -14 21 -16 25 -5 32 41 12 72 -21 31 -45
34 -45 5z"/>
<path d="M4592 4598 c-16 -16 -15 -63 2 -77 14 -12 46 -5 46 9 0 15 -18 21
-26 9 -10 -16 -23 8 -17 32 5 19 6 19 19 2 12 -16 13 -16 14 -2 0 25 -24 41
-38 27z"/>
<path d="M4456 4565 c4 -23 2 -35 -5 -35 -6 0 -11 14 -11 30 0 23 -5 30 -19
30 -11 0 -23 -5 -26 -10 -4 -6 -14 -9 -23 -8 -13 2 -18 -6 -20 -29 -2 -19 1
-33 7 -33 6 0 11 10 11 22 0 12 3 18 7 15 3 -4 12 -2 18 3 9 8 11 4 8 -14 -3
-13 0 -27 6 -30 7 -5 12 6 13 31 1 37 1 37 5 6 3 -25 9 -33 24 -33 16 0 19 7
19 45 0 25 -5 45 -10 45 -7 0 -8 -13 -4 -35z"/>
<path d="M4155 4581 c-3 -5 -1 -12 4 -15 12 -8 41 3 41 15 0 12 -37 12 -45 0z"/>
<path d="M4550 4550 c0 -22 5 -40 10 -40 6 0 10 18 10 40 0 22 -4 40 -10 40
-5 0 -10 -18 -10 -40z"/>
<path d="M3900 4538 c0 -14 5 -18 16 -14 9 3 20 6 25 6 17 0 1 17 -21 23 -15
4 -20 0 -20 -15z"/>
<path d="M3836 4473 c-9 -23 -7 -43 4 -43 6 0 10 6 10 14 0 8 7 16 15 20 11 4
15 -2 15 -25 0 -24 4 -30 16 -25 9 3 20 6 25 6 5 0 9 15 8 33 l-1 32 -11 -30
-11 -30 -6 29 c-4 22 -11 29 -32 32 -16 1 -29 -3 -32 -13z"/>
<path d="M4016 4458 c-6 -31 3 -55 11 -30 6 17 23 15 23 -3 0 -8 5 -15 11 -15
10 0 4 52 -8 73 -10 18 -31 4 -37 -25z"/>
<path d="M3946 4458 c-8 -32 -7 -38 4 -38 6 0 10 8 10 18 1 16 1 16 11 0 16
-28 29 -21 28 15 0 25 -2 28 -8 13 -7 -18 -8 -18 -14 -3 -9 24 -24 21 -31 -5z"/>
<path d="M4080 4471 c0 -12 29 -23 41 -15 5 3 7 10 4 15 -8 12 -45 12 -45 0z"/>
<path d="M3830 4381 c0 -5 6 -11 13 -14 9 -3 12 -16 9 -36 -2 -18 0 -31 6 -31
6 0 12 15 14 33 2 19 8 31 16 30 22 -5 13 14 -10 21 -32 8 -48 7 -48 -3z"/>
<path d="M3966 4365 c-9 -25 -7 -53 4 -60 18 -11 41 17 38 44 -3 29 -32 40
-42 16z m27 -25 c-3 -11 -9 -20 -14 -20 -10 0 -12 24 -2 33 13 13 21 7 16 -13z"/>
<path d="M4030 4361 c0 -11 -3 -26 -6 -35 -3 -9 -1 -16 5 -16 6 0 11 9 11 20
0 27 16 25 24 -2 7 -27 21 -16 31 25 5 17 3 27 -4 27 -6 0 -11 -10 -12 -22 l0
-23 -11 23 c-13 27 -38 29 -38 3z"/>
<path d="M3912 4335 c-1 -19 3 -35 8 -35 6 0 10 16 10 35 0 19 -4 35 -8 35 -5
0 -9 -16 -10 -35z"/>
<path d="M4300 4300 c0 -5 5 -10 11 -10 5 0 7 5 4 10 -3 6 -8 10 -11 10 -2 0
-4 -4 -4 -10z"/>
<path d="M4682 4078 c5 -15 28 -23 28 -10 0 5 -7 13 -16 16 -10 4 -14 1 -12
-6z"/>
<path d="M4180 4050 c0 -5 5 -10 11 -10 5 0 7 5 4 10 -3 6 -8 10 -11 10 -2 0
-4 -4 -4 -10z"/>
<path d="M3500 4041 c0 -5 9 -11 20 -14 24 -6 27 8 4 17 -21 8 -24 8 -24 -3z"/>
<path d="M3580 4030 c20 -13 33 -13 25 0 -3 6 -14 10 -23 10 -15 0 -15 -2 -2
-10z"/>
<path d="M3415 4020 c-7 -11 9 -11 45 0 24 8 24 8 -7 9 -17 1 -35 -3 -38 -9z"/>
<path d="M3640 3995 c7 -8 17 -15 22 -15 6 0 5 7 -2 15 -7 8 -17 15 -22 15 -6
0 -5 -7 2 -15z"/>
<path d="M3872 3978 c-19 -19 -14 -29 8 -16 20 13 27 28 12 28 -4 0 -13 -5
-20 -12z"/>
<path d="M4025 3981 c3 -5 -3 -12 -12 -14 -10 -3 2 -5 27 -5 25 0 37 2 28 5
-10 2 -18 9 -18 14 0 5 -7 9 -16 9 -8 0 -13 -4 -9 -9z"/>
<path d="M3541 3971 c-8 -5 -20 -7 -28 -4 -9 4 -13 -4 -13 -26 0 -17 4 -31 10
-31 5 0 7 8 3 18 -6 15 -4 15 15 -2 l22 -19 0 31 c0 36 17 44 22 10 2 -12 9
-23 16 -26 9 -3 11 3 6 24 -5 19 -4 25 5 20 6 -4 11 -2 11 3 0 13 -49 14 -69
2z"/>
<path d="M4117 3969 c7 -7 15 -10 18 -7 3 3 -2 9 -12 12 -14 6 -15 5 -6 -5z"/>
<path d="M3674 3954 c3 -9 6 -20 6 -25 0 -5 4 -9 9 -9 4 0 6 11 3 25 -2 14 -9
25 -14 25 -6 0 -7 -7 -4 -16z"/>
<path d="M3472 3938 c-5 -21 -6 -21 -14 -2 -6 16 -7 15 -5 -6 1 -14 9 -26 20
-28 13 -3 17 3 17 27 0 36 -9 41 -18 9z"/>
<path d="M4160 3941 c0 -17 12 -41 20 -41 10 0 1 38 -11 46 -5 3 -9 1 -9 -5z"/>
<path d="M3370 3928 c0 -4 -9 -8 -20 -8 -16 0 -20 -7 -20 -30 0 -16 5 -30 10
-30 6 0 10 9 10 20 0 11 7 20 15 20 8 0 15 -7 15 -15 0 -8 5 -15 10 -15 6 0
10 4 10 9 0 5 9 7 20 4 17 -4 20 0 20 25 0 28 -3 30 -35 29 -19 -1 -35 -5 -35
-9z"/>
<path d="M3835 3919 c-10 -30 0 -33 13 -4 6 14 7 25 2 25 -5 0 -12 -9 -15 -21z"/>
<path d="M3867 3912 c-3 -15 -1 -31 4 -36 5 -6 9 -2 9 12 0 15 6 22 20 22 13
0 18 -5 14 -15 -4 -8 -1 -15 6 -15 6 0 10 11 8 26 -2 21 -9 28 -29 30 -22 2
-28 -2 -32 -24z"/>
<path d="M3947 3923 c-11 -11 -8 -51 5 -59 18 -11 39 25 27 47 -10 20 -21 24
-32 12z m19 -40 c-10 -10 -19 5 -10 18 6 11 8 11 12 0 2 -7 1 -15 -2 -18z"/>
<path d="M4108 3918 c7 -7 12 -20 12 -30 0 -10 5 -18 10 -18 6 0 10 6 10 14 0
8 3 21 6 30 5 12 0 16 -22 16 -22 0 -25 -3 -16 -12z"/>
<path d="M3623 3893 c-7 -3 -13 -10 -13 -16 0 -7 -9 -18 -20 -25 -23 -14 -25
-31 -7 -56 13 -18 47 -13 47 6 0 6 -7 7 -16 4 -14 -5 -15 -4 -4 9 8 10 9 15 2
15 -6 0 -9 7 -5 15 5 14 7 14 23 0 19 -17 34 -20 25 -5 -3 6 3 10 14 10 13 0
21 -7 21 -17 0 -11 3 -14 10 -7 6 6 7 25 4 44 -6 29 -9 31 -19 16 -15 -20 -24
-20 -39 -2 -6 7 -17 12 -23 9z"/>
<path d="M3500 3854 c0 -16 5 -24 13 -21 6 2 12 10 12 18 0 8 5 17 10 21 6 4
0 8 -12 8 -18 0 -23 -6 -23 -26z"/>
<path d="M3446 3854 c-7 -19 1 -34 19 -34 15 0 24 19 18 38 -6 17 -30 15 -37
-4z"/>
<path d="M3810 3838 c0 -19 2 -20 10 -8 13 19 13 30 0 30 -5 0 -10 -10 -10
-22z"/>
<path d="M4180 3840 c0 -11 4 -20 9 -20 5 0 7 9 4 20 -3 11 -7 20 -9 20 -2 0
-4 -9 -4 -20z"/>
<path d="M3950 3830 c0 -15 5 -20 18 -18 9 2 17 10 17 18 0 8 -8 16 -17 18
-13 2 -18 -3 -18 -18z"/>
<path d="M4000 3823 c0 -14 1 -24 3 -22 1 2 11 14 21 27 19 22 19 22 -2 22
-17 0 -22 -6 -22 -27z"/>
<path d="M4486 3841 c-3 -5 6 -11 19 -14 29 -5 43 8 19 17 -22 8 -32 8 -38 -3z"/>
<path d="M4410 3820 c-16 -13 -20 -20 -10 -19 16 0 50 22 50 33 0 11 -14 6
-40 -14z"/>
<path d="M4565 3830 c-3 -5 -3 -10 2 -10 4 0 19 -3 33 -6 24 -5 24 -5 6 10
-23 19 -32 20 -41 6z"/>
<path d="M3522 3804 c-12 -8 -22 -12 -22 -8 0 5 -5 3 -11 -3 -11 -11 -2 -63
12 -63 5 0 9 11 9 25 0 14 5 25 10 25 6 0 10 -7 10 -15 0 -8 6 -15 14 -15 9 0
13 10 11 30 -3 40 -7 43 -33 24z"/>
<path d="M4640 3813 c0 -5 11 -13 25 -20 29 -13 34 1 6 17 -23 12 -31 13 -31
3z"/>
<path d="M3433 3793 c-12 -4 -19 -63 -8 -63 3 0 16 9 27 20 19 18 20 22 8 34
-8 7 -21 12 -27 9z"/>
<path d="M3303 3776 c9 -7 17 -22 16 -32 0 -11 -3 -13 -6 -6 -8 19 -23 14 -23
-9 0 -15 5 -20 23 -17 17 2 22 9 22 31 -1 15 3 27 7 27 4 0 8 5 8 10 0 6 -15
10 -32 10 -30 -1 -31 -2 -15 -14z"/>
<path d="M4375 3764 c-20 -30 -11 -46 10 -18 13 18 20 44 11 44 -2 0 -11 -12
-21 -26z"/>
<path d="M4427 3784 c-11 -12 -8 -76 3 -69 6 3 10 14 10 24 0 10 7 18 15 18 9
0 15 -10 15 -24 0 -37 17 -27 22 13 4 38 -5 52 -26 35 -8 -7 -16 -7 -22 -1 -6
6 -13 7 -17 4z"/>
<path d="M3362 3753 c2 -20 9 -28 23 -28 14 0 21 8 23 28 2 16 -2 27 -8 27 -7
0 -10 -6 -7 -13 3 -8 1 -20 -4 -28 -6 -10 -9 -7 -9 14 0 15 -5 27 -11 27 -6 0
-9 -12 -7 -27z"/>
<path d="M4512 3768 c-15 -15 -16 -45 -2 -53 16 -10 41 16 38 38 -4 25 -20 31
-36 15z m26 -20 c-2 -6 -10 -14 -16 -16 -7 -2 -10 2 -6 12 7 18 28 22 22 4z"/>
<path d="M3640 3755 c-14 -16 -10 -18 14 -9 9 3 16 10 16 15 0 14 -16 11 -30
-6z"/>
<path d="M3907 3764 c-4 -4 -7 -16 -7 -27 0 -11 3 -17 7 -14 3 4 12 2 20 -4
10 -9 13 -7 13 10 0 11 0 24 1 29 0 10 -25 14 -34 6z"/>
<path d="M3968 3735 c7 -37 19 -39 24 -5 4 23 1 30 -12 30 -13 0 -16 -6 -12
-25z"/>
<path d="M4170 3741 c-13 -25 -13 -34 0 -26 16 10 32 45 21 45 -6 0 -15 -9
-21 -19z"/>
<path d="M4560 3725 c0 -42 25 -48 40 -9 15 39 11 53 -6 22 -18 -35 -23 -35
-16 -3 2 15 0 25 -7 25 -6 0 -11 -16 -11 -35z"/>
<path d="M4718 3748 c18 -18 14 -30 -6 -19 -15 8 -17 4 -17 -30 0 -22 4 -38
10 -35 5 2 9 11 9 20 -1 9 4 16 12 16 7 0 15 4 19 10 7 11 -16 50 -29 50 -6 0
-5 -5 2 -12z"/>
<path d="M4628 3744 c-12 -21 -18 -64 -8 -64 5 0 10 8 11 18 0 13 2 12 9 -5
12 -30 18 -29 31 4 7 18 6 30 -1 37 -7 7 -10 6 -10 -4 0 -10 -4 -8 -13 5 -8
10 -16 14 -19 9z"/>
<path d="M3610 3715 c-17 -21 -8 -28 15 -11 11 8 14 15 8 19 -6 4 -16 0 -23
-8z"/>
<path d="M4358 3714 c-5 -4 -8 -19 -8 -33 0 -18 3 -22 11 -14 6 6 9 21 7 33
-1 12 -6 18 -10 14z"/>
<path d="M4737 3671 c-2 -10 -1 -24 3 -31 6 -10 19 17 20 43 0 15 -18 6 -23
-12z"/>
<path d="M4905 3670 c-4 -6 5 -10 20 -10 15 0 24 4 20 10 -3 6 -12 10 -20 10
-8 0 -17 -4 -20 -10z"/>
<path d="M3330 3660 c0 -4 14 -13 30 -19 17 -5 30 -6 30 -1 0 4 -13 13 -30 19
-16 5 -30 6 -30 1z"/>
<path d="M3500 3660 c0 -13 40 -13 60 0 11 7 5 10 -22 10 -21 0 -38 -4 -38
-10z"/>
<path d="M4491 3652 c-8 -15 -7 -23 2 -30 17 -14 40 1 35 23 -5 26 -25 30 -37
7z m29 -6 c0 -3 -4 -8 -10 -11 -5 -3 -10 -1 -10 4 0 6 5 11 10 11 6 0 10 -2
10 -4z"/>
<path d="M4547 3638 c-8 -30 -1 -35 23 -13 25 23 26 35 1 35 -11 0 -21 -9 -24
-22z"/>
<path d="M4860 3650 c-13 -8 -13 -10 2 -10 9 0 20 5 23 10 8 13 -5 13 -25 0z"/>
<path d="M4980 3650 c20 -13 43 -13 35 0 -3 6 -16 10 -28 10 -18 0 -19 -2 -7
-10z"/>
<path d="M3420 3640 c0 -5 14 -10 30 -10 17 0 30 5 30 10 0 6 -13 10 -30 10
-16 0 -30 -4 -30 -10z"/>
<path d="M4394 3636 c-8 -21 -1 -49 13 -53 13 -5 49 44 39 54 -3 4 -13 -2 -22
-13 -13 -16 -15 -16 -10 -2 6 22 -12 35 -20 14z"/>
<path d="M4885 3630 c-20 -22 -14 -40 7 -22 14 11 43 -10 30 -23 -7 -7 25 -30
43 -30 6 0 16 -4 23 -9 14 -8 42 9 42 26 0 6 -7 5 -15 -2 -13 -11 -14 -10 -9
4 4 11 1 16 -10 16 -9 0 -16 5 -16 11 0 6 -7 9 -15 5 -9 -3 -15 0 -15 10 0 10
-6 14 -15 10 -9 -3 -15 0 -15 9 0 21 -14 19 -35 -5z"/>
<path d="M4025 3630 c-4 -6 5 -10 19 -10 14 0 26 5 26 10 0 6 -9 10 -19 10
-11 0 -23 -4 -26 -10z"/>
<path d="M4350 3609 c0 -16 4 -28 9 -25 8 5 3 56 -5 56 -2 0 -4 -14 -4 -31z"/>
<path d="M5050 3630 c20 -13 43 -13 35 0 -3 6 -16 10 -28 10 -18 0 -19 -2 -7
-10z"/>
<path d="M4824 3616 c-10 -8 -15 -18 -11 -22 4 -4 15 0 24 9 22 21 12 31 -13
13z"/>
<path d="M4455 3586 c-20 -29 -14 -56 12 -56 13 0 14 3 5 12 -17 17 -15 31 4
24 12 -5 15 -2 10 10 -5 12 -2 15 10 10 10 -4 14 -1 12 6 -8 23 -36 20 -53 -6z"/>
<path d="M4728 3580 c-5 -35 7 -41 16 -7 8 30 7 37 -3 37 -5 0 -11 -13 -13
-30z"/>
<path d="M5110 3603 c1 -10 39 -60 40 -51 0 14 -23 58 -32 58 -4 0 -8 -3 -8
-7z"/>
<path d="M4515 3549 c-4 -12 -2 -26 4 -32 8 -8 11 -6 12 9 0 14 3 12 11 -8 14
-40 28 -35 28 10 0 24 -3 32 -9 24 -7 -11 -9 -11 -14 2 -9 22 -24 20 -32 -5z"/>
<path d="M4650 3551 c0 -10 8 -22 18 -26 16 -7 15 -8 -3 -15 -19 -7 -19 -7 3
-19 18 -10 27 -10 38 0 15 12 20 34 6 25 -5 -3 -16 4 -25 15 -9 10 -12 19 -7
19 6 0 10 5 10 10 0 6 -9 10 -20 10 -13 0 -20 -7 -20 -19z"/>
<path d="M4776 3554 c-4 -10 -1 -14 6 -12 15 5 23 28 10 28 -5 0 -13 -7 -16
-16z"/>
<path d="M5036 3551 c-20 -22 -20 -32 -1 -25 9 4 15 0 15 -7 1 -9 8 -5 20 10
13 15 20 18 20 9 0 -8 -6 -20 -12 -27 -11 -11 -9 -13 12 -7 14 3 29 6 33 6 18
0 -15 39 -42 48 -24 9 -32 7 -45 -7z"/>
<path d="M4585 3550 c-3 -6 -3 -19 0 -31 10 -31 40 -20 43 16 l2 30 -15 -30
c-12 -23 -14 -25 -11 -8 4 25 -8 40 -19 23z"/>
<path d="M3628 3544 c-5 -4 -8 -18 -8 -31 0 -18 5 -23 25 -23 14 0 25 5 25 10
0 6 -6 10 -14 10 -8 0 -16 9 -18 21 -2 11 -6 17 -10 13z"/>
<path d="M4372 3528 c8 -12 21 -24 28 -26 8 -3 6 5 -6 21 -23 32 -42 36 -22 5z"/>
<path d="M3691 3513 c-12 -27 -9 -39 7 -29 13 8 22 45 13 51 -5 2 -13 -7 -20
-22z"/>
<path d="M3805 3520 c-3 -5 -21 -8 -39 -5 -28 3 -35 0 -44 -21 -7 -13 -8 -24
-3 -24 5 0 12 6 14 13 4 9 8 8 16 -3 10 -13 13 -12 26 5 15 19 16 19 13 -5 -2
-20 2 -25 22 -28 25 -3 25 -2 5 14 -16 14 -17 16 -2 11 19 -7 24 8 5 17 -7 3
-3 3 10 0 27 -7 29 11 3 26 -13 6 -22 7 -26 0z"/>
<path d="M5140 3518 c0 -7 5 -20 10 -28 8 -12 10 -11 10 7 0 12 -4 25 -10 28
-5 3 -10 0 -10 -7z"/>
<path d="M4922 3508 c-17 -17 -15 -38 3 -38 16 0 38 34 28 44 -9 9 -18 7 -31
-6z"/>
<path d="M4784 3489 c-15 -16 -16 -21 -4 -19 8 1 23 2 34 1 15 -1 16 -4 6 -16
-7 -9 -10 -18 -7 -22 8 -8 47 39 40 49 -2 5 -11 8 -19 8 -8 0 -14 5 -14 10 0
16 -16 11 -36 -11z"/>
<path d="M4746 3478 c-3 -13 -1 -27 4 -32 7 -7 10 1 10 22 0 37 -5 41 -14 10z"/>
<path d="M4952 3476 c-10 -22 -9 -25 9 -23 12 1 18 6 14 15 -3 10 0 12 10 8 8
-3 15 -1 15 3 0 7 -23 21 -34 21 -2 0 -8 -11 -14 -24z"/>
<path d="M4420 3482 c0 -5 11 -14 25 -20 29 -14 34 2 6 18 -24 12 -31 13 -31
2z"/>
<path d="M4620 3463 c-32 -6 -51 -23 -24 -23 30 0 64 11 64 21 0 5 -3 8 -7 8
-5 -1 -19 -4 -33 -6z"/>
<path d="M3911 3451 c-18 -12 -6 -42 14 -35 8 3 15 15 15 25 0 21 -8 23 -29
10z"/>
<path d="M4170 3445 c-10 -12 -10 -18 0 -30 7 -8 17 -15 22 -15 9 0 29 -21 78
-80 26 -33 43 -39 33 -13 -4 10 -2 14 4 10 6 -4 13 2 16 13 7 26 -13 38 -28
17 -17 -23 -28 -21 -20 3 9 29 -21 73 -45 67 -11 -3 -24 1 -31 9 -8 10 -8 14
0 14 6 0 11 5 11 10 0 15 -26 12 -40 -5z"/>
<path d="M4505 3450 c-4 -6 7 -10 27 -9 27 0 30 2 13 9 -27 12 -33 12 -40 0z"/>
<path d="M4846 3431 c-10 -11 -15 -25 -11 -30 10 -16 28 -13 22 3 -4 11 -1 13
10 9 12 -5 14 -3 8 7 -6 10 -4 12 8 7 9 -3 19 -2 22 2 4 8 -16 21 -34 21 -4 0
-16 -9 -25 -19z"/>
<path d="M5151 3434 c0 -11 3 -14 6 -6 3 7 2 16 -1 19 -3 4 -6 -2 -5 -13z"/>
<path d="M3952 3428 c-21 -21 -14 -36 13 -30 17 3 25 10 23 20 -4 20 -21 25
-36 10z"/>
<path d="M4760 3415 c0 -24 16 -51 22 -39 3 5 -1 20 -8 34 -12 22 -14 22 -14
5z"/>
<path d="M5090 3417 c0 -9 5 -19 11 -22 6 -4 8 -13 5 -21 -3 -8 -2 -14 2 -14
12 0 31 59 21 66 -5 3 -9 0 -9 -7 0 -8 -4 -8 -15 1 -12 10 -15 10 -15 -3z"/>
<path d="M4023 3386 c3 -7 0 -19 -6 -25 -8 -8 -8 -11 0 -11 7 0 15 5 18 10 4
6 11 8 16 4 6 -4 6 -11 -1 -19 -8 -9 -8 -15 0 -20 5 -3 10 -3 10 2 0 4 4 2 9
-6 7 -11 11 -10 20 7 9 17 6 24 -24 46 -38 29 -50 33 -42 12z"/>
<path d="M5121 3349 c-27 -36 -18 -55 10 -20 16 20 26 51 16 51 -2 0 -13 -14
-26 -31z"/>
<path d="M4879 3300 c13 -11 28 -20 35 -20 6 1 0 10 -13 20 -13 11 -28 20 -35
20 -6 -1 0 -10 13 -20z"/>
<path d="M5050 3305 c-24 -14 -24 -14 -3 -15 12 0 25 5 28 11 11 17 2 18 -25
4z"/>
<path d="M4955 3280 c3 -5 15 -10 26 -10 11 0 17 5 14 10 -3 6 -15 10 -26 10
-11 0 -17 -4 -14 -10z"/>
<path d="M4357 3273 c-12 -12 -7 -33 7 -33 8 0 16 -4 18 -9 2 -5 14 -4 28 1
l25 9 -25 19 c-26 21 -42 24 -53 13z"/>
<path d="M4235 3230 c-18 -20 -18 -21 8 -45 16 -16 32 -22 43 -18 13 5 15 2 9
-15 -3 -13 -2 -22 4 -22 12 0 31 33 31 54 0 18 -31 21 -47 5 -12 -12 -33 -4
-33 11 0 5 9 12 21 15 16 5 18 10 8 21 -15 19 -23 18 -44 -6z"/>
<path d="M4441 3202 c-7 -13 -6 -23 1 -30 19 -19 25 -14 25 18 0 34 -12 39
-26 12z"/>
<path d="M4336 3141 c-21 -23 -20 -28 5 -42 17 -9 23 -8 30 2 24 38 -6 72 -35
40z m20 -28 c-10 -10 -19 5 -10 18 6 11 8 11 12 0 2 -7 1 -15 -2 -18z"/>
<path d="M4630 3091 c0 -20 34 -33 75 -28 12 1 19 -3 17 -12 -2 -9 3 -11 14
-7 12 4 15 2 11 -9 -8 -19 10 -30 27 -16 11 9 15 6 20 -11 l7 -23 9 23 c5 12
14 22 20 22 6 0 8 5 4 11 -3 6 -15 9 -25 6 -10 -3 -19 -1 -21 3 -2 4 -25 17
-52 29 -46 20 -49 20 -62 4 -12 -17 -13 -16 -14 5 0 13 -6 22 -15 22 -8 0 -15
-9 -15 -19z"/>
<path d="M4860 3021 c0 -5 -3 -17 -6 -25 -5 -12 -2 -15 10 -10 10 4 16 1 16
-7 0 -8 9 -3 21 11 19 23 19 23 9 2 -11 -23 -6 -42 12 -42 5 0 8 7 4 15 -3 8
-1 15 5 15 6 0 7 5 4 10 -4 6 -3 9 2 8 16 -6 15 16 -1 27 -11 7 -22 6 -36 -3
-12 -7 -20 -8 -20 -2 0 5 -4 10 -10 10 -5 0 -10 -4 -10 -9z"/>
<path d="M4962 2987 c-25 -27 -29 -42 -8 -34 8 3 17 1 19 -6 2 -7 10 0 17 16
19 39 1 55 -28 24z"/>
<path d="M5002 2965 c-15 -32 -15 -38 -2 -30 6 3 13 -2 17 -12 6 -16 8 -15 13
6 3 14 12 27 19 29 11 4 13 -3 8 -27 -7 -34 8 -43 18 -11 3 11 11 20 16 20 22
0 6 19 -21 25 -16 4 -30 11 -30 16 0 19 -27 8 -38 -16z"/>
<path d="M4587 2523 c-15 -14 -6 -24 16 -18 35 11 44 25 16 25 -14 0 -29 -3
-32 -7z"/>
<path d="M4650 2522 c0 -11 49 -26 58 -17 8 7 0 12 -31 20 -16 4 -27 3 -27 -3z"/>
<path d="M4521 2491 c-8 -5 -9 -11 -3 -15 13 -8 42 3 42 15 0 11 -21 11 -39 0z"/>
<path d="M4735 2492 c6 -6 24 -14 40 -18 21 -4 27 -3 20 4 -5 6 -23 14 -40 18
-21 4 -27 3 -20 -4z"/>
<path d="M4180 2462 c0 -14 8 -19 30 -19 32 0 41 21 14 31 -28 11 -44 6 -44
-12z"/>
<path d="M4490 2455 c-17 -21 -8 -28 15 -11 11 8 14 15 8 19 -6 4 -16 0 -23
-8z"/>
<path d="M4824 2435 c26 -19 42 -19 26 0 -7 8 -20 15 -29 15 -13 -1 -13 -3 3
-15z"/>
<path d="M4500 2400 c-6 -11 -8 -21 -5 -21 3 -1 8 -2 13 -3 4 -1 13 -5 20 -9
6 -5 17 -5 23 -2 7 5 8 -5 3 -32 -4 -26 -3 -35 4 -28 15 15 26 95 13 95 -5 0
-13 -4 -16 -10 -9 -15 -25 -12 -25 4 0 24 -18 28 -30 6z"/>
<path d="M4180 2402 c0 -14 39 -32 46 -21 4 6 0 15 -7 20 -17 11 -39 12 -39 1z"/>
<path d="M4450 2389 c-13 -24 -4 -41 10 -19 10 16 13 40 5 40 -2 0 -9 -9 -15
-21z"/>
<path d="M4880 2380 c6 -11 15 -20 21 -20 6 0 6 7 -1 20 -6 11 -15 20 -21 20
-6 0 -6 -7 1 -20z"/>
<path d="M4180 2361 c0 -5 6 -12 13 -14 7 -3 5 -6 -5 -6 -24 -1 -23 -18 3 -31
24 -13 41 -4 19 10 -12 8 -12 10 3 10 10 0 17 5 15 12 -5 14 -48 31 -48 19z"/>
<path d="M4600 2351 c-15 -28 -12 -51 6 -58 21 -8 44 21 44 54 0 29 -35 32
-50 4z m26 -27 c-4 -9 -9 -15 -11 -12 -3 3 -3 13 1 22 4 9 9 15 11 12 3 -3 3
-13 -1 -22z"/>
<path d="M4669 2343 c-12 -33 -4 -56 18 -51 18 3 46 48 36 58 -3 3 -8 0 -10
-6 -2 -6 -11 -20 -19 -30 -14 -18 -15 -16 -9 19 7 43 -1 49 -16 10z"/>
<path d="M4485 2339 c-4 -11 -4 -23 0 -27 7 -7 25 17 25 36 0 20 -18 14 -25
-9z"/>
<path d="M4730 2320 c-7 -17 -10 -33 -7 -36 9 -10 27 6 28 24 1 10 4 7 8 -7 4
-14 12 -26 18 -28 11 -4 37 56 28 66 -8 7 -25 -21 -19 -31 3 -4 1 -8 -5 -8 -5
0 -11 10 -13 22 -5 33 -24 32 -38 -2z"/>
<path d="M4422 2315 c-7 -15 -8 -26 -2 -30 8 -5 30 33 30 51 0 14 -18 0 -28
-21z"/>
<path d="M4820 2331 c0 -5 7 -11 15 -15 11 -4 13 -11 6 -30 -10 -25 -5 -39 10
-30 5 3 9 16 9 30 0 21 4 24 20 19 34 -11 22 10 -13 23 -40 14 -47 15 -47 3z"/>
<path d="M4910 2291 c0 -23 5 -41 10 -41 6 0 10 15 10 34 0 19 -4 38 -10 41
-6 4 -10 -10 -10 -34z"/>
<path d="M4170 2278 c0 -19 2 -20 10 -8 7 11 10 11 10 2 0 -7 5 -10 10 -7 6 3
10 -1 10 -10 0 -9 5 -13 10 -10 18 11 10 43 -12 49 -35 9 -38 8 -38 -16z"/>
<path d="M4403 2240 c-12 -28 -6 -47 9 -32 5 5 8 20 6 33 l-5 24 -10 -25z"/>
<path d="M4584 2225 c-7 -18 3 -35 21 -35 15 0 28 27 19 41 -8 14 -34 11 -40
-6z"/>
<path d="M4636 2214 c-10 -26 -7 -34 12 -27 17 7 32 22 32 36 0 14 -38 7 -44
-9z"/>
<path d="M4895 2199 c-4 -12 -2 -26 4 -32 8 -8 11 -2 11 21 0 37 -6 41 -15 11z"/>
<path d="M4176 2192 c-11 -19 11 -72 30 -72 17 0 19 27 2 33 -10 3 -10 7 -1
19 7 8 10 18 6 21 -9 10 -31 9 -37 -1z"/>
<path d="M4446 2150 c1 -34 14 -55 14 -22 0 13 6 22 15 22 8 0 15 5 15 10 0 6
-4 10 -9 10 -5 0 -15 2 -23 5 -9 4 -13 -4 -12 -25z"/>
<path d="M4390 2151 c0 -11 5 -23 10 -26 6 -4 10 5 10 19 0 14 -4 26 -10 26
-5 0 -10 -9 -10 -19z"/>
<path d="M4488 2127 c-12 -23 -1 -38 12 -17 8 12 10 11 10 -5 1 -20 1 -20 15
-1 8 11 15 25 15 31 0 18 -41 12 -52 -8z"/>
<path d="M4557 2133 c-14 -13 -7 -53 9 -53 8 0 12 5 9 10 -3 6 -1 10 5 10 6 0
8 5 5 10 -3 6 -1 10 5 10 6 0 8 5 5 10 -7 11 -28 13 -38 3z"/>
<path d="M4612 2118 c-7 -7 -12 -21 -12 -32 0 -16 3 -17 12 -8 14 14 42 16 33
2 -3 -5 -1 -10 4 -10 6 0 11 4 11 9 0 5 3 17 7 27 5 14 3 16 -12 10 -10 -3
-21 -2 -25 4 -4 6 -10 6 -18 -2z"/>
<path d="M4866 2114 c-11 -28 -6 -39 9 -20 8 11 15 23 15 28 0 14 -18 9 -24
-8z"/>
<path d="M4680 2105 c-6 -8 -10 -22 -8 -32 3 -14 14 -18 56 -19 33 -1 52 2 52
10 0 6 4 5 9 -3 11 -17 27 -8 34 19 6 22 -8 28 -16 8 -3 -8 -6 -6 -6 5 -1 24
-16 21 -29 -5 l-11 -23 0 24 c-1 20 -5 22 -26 17 -14 -4 -25 -2 -25 4 0 15
-16 12 -30 -5z m16 -32 c-10 -10 -19 5 -10 18 6 11 8 11 12 0 2 -7 1 -15 -2
-18z m46 -5 c-7 -7 -12 -8 -12 -2 0 14 12 26 19 19 2 -3 -1 -11 -7 -17z"/>
<path d="M4420 2089 c0 -9 7 -22 15 -29 19 -16 19 0 0 26 -12 16 -14 16 -15 3z"/>
<path d="M4830 2041 c-13 -25 -13 -34 0 -26 16 10 32 45 21 45 -6 0 -15 -9
-21 -19z"/>
<path d="M4480 2031 c0 -10 31 -31 45 -31 11 0 -5 20 -26 30 -12 7 -19 7 -19
1z"/>
<path d="M4566 1991 c-7 -10 16 -21 47 -21 13 0 17 4 12 9 -16 15 -53 22 -59
12z"/>
<path d="M4750 1988 c-20 -9 -22 -12 -8 -15 9 -2 29 3 45 11 23 12 24 15 8 15
-11 0 -31 -5 -45 -11z"/>
<path d="M4662 1983 c-19 -8 -4 -23 24 -23 16 0 24 5 22 13 -5 13 -26 18 -46
10z"/>
<path d="M4167 1920 c3 -11 9 -17 14 -14 5 3 9 0 9 -5 0 -6 5 -11 10 -11 16 0
11 37 -6 44 -26 10 -32 7 -27 -14z"/>
<path d="M4150 1870 c0 -5 5 -10 10 -10 17 0 11 -18 -7 -23 -10 -3 -1 -5 20
-6 45 -1 48 13 7 34 -17 9 -30 11 -30 5z"/>
<path d="M4161 1793 l-24 -5 24 -12 c27 -14 39 -11 39 10 0 8 -3 13 -7 13 -5
-1 -19 -4 -32 -6z"/>
<path d="M4140 1725 c0 -14 4 -25 10 -25 5 0 7 7 4 15 -9 21 6 19 26 -5 16
-19 18 -19 24 -3 8 20 -17 43 -46 43 -13 0 -18 -8 -18 -25z"/>
<path d="M4808 1591 c-74 -40 -97 -58 -58 -46 44 13 140 65 140 75 0 14 -7 12
-82 -29z"/>
<path d="M4835 1523 c-126 -66 -278 -109 -427 -121 -48 -4 -84 -5 -80 -1 19
16 119 51 199 69 119 27 202 53 181 58 -9 2 -47 -6 -85 -18 -90 -28 -253 -42
-502 -44 -126 -1 -206 -5 -208 -11 -2 -6 16 -9 44 -8 96 5 464 8 451 5 -7 -3
-43 -17 -80 -33 -59 -26 -78 -29 -172 -29 -59 0 -108 -4 -111 -10 -4 -6 11
-10 37 -10 123 -1 -148 -60 -344 -76 -43 -3 -78 -10 -78 -16 0 -6 13 -8 33 -5
17 3 64 9 102 12 110 10 245 34 305 54 69 24 97 28 258 40 139 11 184 19 306
58 92 29 220 86 230 102 11 17 -4 13 -59 -16z"/>
<path d="M3850 1520 c-12 -8 -11 -10 8 -10 12 0 22 5 22 10 0 13 -11 13 -30 0z"/>
<path d="M4849 1441 c-64 -32 -229 -93 -292 -108 -103 -24 -258 -51 -327 -58
-151 -14 -256 -28 -270 -36 -13 -7 -12 -8 2 -9 14 0 15 -5 7 -28 -11 -31 -39
-39 -39 -11 0 10 -5 21 -11 24 -7 5 -9 -4 -7 -26 3 -32 4 -32 61 -36 39 -2 56
0 52 7 -3 5 -16 11 -28 11 -17 1 -18 2 -4 6 20 5 22 19 5 26 -7 3 2 6 20 6 28
1 32 -2 32 -23 0 -14 5 -28 10 -31 6 -4 10 7 10 24 0 35 4 36 43 19 29 -14 38
-32 11 -21 -12 4 -15 2 -12 -8 3 -8 13 -14 24 -14 15 0 19 7 19 37 l1 37 -62
-6 c-33 -3 -69 -1 -78 4 -13 7 20 13 116 22 139 12 260 30 388 57 106 23 124
28 230 72 128 53 150 64 150 74 0 12 -10 10 -51 -11z"/>
<path d="M3969 1376 c-2 -2 -37 -7 -78 -10 -88 -7 -106 -16 -34 -16 72 0 143
11 137 21 -5 9 -18 12 -25 5z"/>
<path d="M3600 1250 c0 -6 5 -8 12 -4 8 5 10 -3 6 -27 l-6 -34 49 0 c27 0 49
4 49 10 0 5 5 3 10 -6 6 -10 21 -14 42 -13 18 1 38 -2 45 -8 14 -11 36 -1 27
13 -3 5 -10 7 -15 4 -5 -4 -9 1 -9 9 0 9 7 16 16 16 14 0 14 3 4 15 -12 14
-15 14 -31 -1 -18 -16 -19 -16 -19 -1 0 22 -19 22 -35 0 -12 -15 -12 -14 -8
11 5 23 3 27 -13 24 -10 -2 -21 -14 -25 -28 -6 -23 -9 -20 -13 13 -1 15 -86
23 -86 7z m67 -6 c-3 -3 -12 -4 -19 -1 -8 3 -5 6 6 6 11 1 17 -2 13 -5z m3
-33 c0 -5 -9 -7 -20 -4 -11 3 -20 7 -20 9 0 2 9 4 20 4 11 0 20 -4 20 -9z"/>
<path d="M3857 1223 c-4 -3 -7 -19 -7 -35 0 -21 5 -28 20 -28 16 0 19 5 16 25
-3 14 0 25 5 25 6 0 7 5 4 10 -7 11 -28 13 -38 3z"/>
</g>
</svg>
