<?xml version="1.0" standalone="no"?>
<!DOCTYPE svg PUBLIC "-//W3C//DTD SVG 20010904//EN"
 "http://www.w3.org/TR/2001/REC-SVG-20010904/DTD/svg10.dtd">
<svg version="1.0" xmlns="http://www.w3.org/2000/svg"
 width="2000.000000pt" height="2000.000000pt" viewBox="0 0 2000.000000 2000.000000"
 preserveAspectRatio="xMidYMid meet">

<g transform="translate(0.000000,2000.000000) scale(0.100000,-0.100000)"
fill="#000000" stroke="none">
<path d="M0 10000 l0 -10000 10000 0 10000 0 0 10000 0 10000 -10000 0 -10000
0 0 -10000z m10365 8394 c220 -108 338 -451 375 -1094 9 -160 6 -945 -4 -1015
-3 -16 -7 -97 -11 -180 -7 -194 -31 -564 -50 -783 -19 -215 -19 -307 0 -597
14 -234 46 -864 65 -1300 15 -341 20 -1037 9 -1190 -11 -140 -1 -252 26 -306
32 -61 101 -26 145 73 49 111 60 203 70 563 8 299 30 752 45 945 45 581 87
968 141 1306 48 300 64 481 104 1129 52 843 110 1233 226 1500 43 98 92 167
142 199 103 65 275 88 364 48 120 -53 221 -229 268 -469 l13 -63 228 0 c222 0
229 -1 229 -20 0 -19 -7 -20 -226 -20 l-226 0 6 -27 c30 -147 47 -450 47 -843
0 -462 -21 -879 -72 -1475 -16 -184 -21 -357 -26 -870 -12 -1266 38 -2052 144
-2264 25 -49 32 -56 61 -59 83 -8 161 160 257 553 60 247 96 433 215 1120 86
497 124 687 155 774 13 36 26 100 30 141 69 812 218 1340 422 1496 54 41 131
58 243 51 140 -7 229 -66 297 -193 54 -102 102 -303 103 -429 0 -35 4 -42 33
-55 17 -8 38 -27 45 -42 l13 -28 325 0 c317 0 324 0 324 -20 0 -20 -7 -20
-321 -20 l-320 0 -32 -33 c-18 -19 -38 -36 -45 -38 -8 -3 -14 -30 -17 -79 -3
-41 -7 -120 -10 -175 -7 -110 -37 -408 -59 -580 -9 -69 -17 -258 -20 -510 -5
-350 -16 -591 -42 -942 l-7 -93 227 0 c219 0 226 -1 226 -20 0 -19 -7 -20
-230 -20 -177 0 -230 -3 -230 -12 0 -7 -9 -94 -20 -193 -30 -268 -75 -568
-124 -828 -42 -220 -45 -245 -51 -474 l-7 -243 246 0 c239 0 246 -1 246 -20 0
-19 -7 -20 -245 -20 l-245 0 -4 -22 c-2 -13 -9 -120 -15 -238 -25 -485 -99
-994 -167 -1147 -15 -34 -17 -103 -18 -710 l-1 -673 168 0 c160 0 167 -1 167
-20 0 -19 -7 -20 -169 -20 l-169 0 -7 -97 c-36 -548 -90 -944 -176 -1284 -71
-285 -138 -453 -273 -691 -281 -496 -437 -1136 -485 -1993 -13 -217 -48 -308
-159 -406 -69 -60 -141 -93 -287 -127 -502 -120 -1171 -202 -1648 -202 l-128
0 3 -180 3 -180 -22 0 c-23 0 -23 0 -23 180 l0 180 -29 0 c-73 0 -401 22 -536
36 -408 42 -920 142 -1050 205 -103 50 -196 155 -237 267 -19 49 -22 77 -20
192 2 255 -20 629 -44 752 l-6 28 -294 0 c-287 0 -294 0 -294 20 0 20 7 20
290 20 225 0 290 3 290 13 0 45 -58 227 -96 305 -95 195 -254 353 -1066 1058
-227 198 -439 383 -470 411 l-58 53 -265 0 c-258 0 -265 1 -265 20 0 19 7 20
242 20 l241 0 -94 87 c-254 237 -431 431 -479 527 -17 34 -82 207 -144 386
-63 179 -149 418 -191 533 l-78 207 -203 0 c-197 0 -204 1 -204 20 0 19 7 20
195 20 107 0 195 2 195 4 0 2 -32 86 -71 187 -234 610 -431 1062 -561 1291
l-61 108 -279 0 c-271 0 -278 0 -278 20 0 19 7 20 261 20 l260 0 -45 62 c-66
90 -157 240 -205 336 -112 224 -120 406 -23 514 69 76 162 104 316 95 316 -19
726 -205 1027 -464 174 -151 239 -240 373 -515 316 -648 761 -1258 917 -1258
36 0 44 12 68 100 48 170 71 622 71 1365 0 404 3 494 20 645 21 185 58 412 91
569 19 88 20 107 10 325 -6 127 -13 306 -17 399 l-7 167 -253 0 c-247 0 -254
1 -254 20 0 19 7 20 249 20 138 0 252 3 254 8 3 4 1 104 -4 222 -17 466 -27
757 -45 1421 l-6 226 -36 9 c-25 6 -43 20 -57 41 l-20 32 -321 1 c-313 0 -322
1 -327 20 -5 20 0 20 324 20 271 0 329 2 329 14 0 22 51 66 76 66 13 0 24 7
26 18 3 9 2 127 0 262 -11 649 78 1606 194 2075 77 309 173 504 277 556 134
69 351 -20 467 -191 186 -275 256 -738 205 -1366 l-15 -188 30 -300 c87 -874
120 -1343 126 -1776 4 -255 9 -355 25 -465 81 -561 188 -1058 241 -1122 18
-22 36 -14 47 20 56 181 101 1084 131 2612 12 596 31 907 100 1620 90 924 214
1712 312 1973 54 145 190 312 298 365 110 54 268 58 365 11z m2725 -1024 c23
-15 -1 -44 -39 -48 -17 -2 -31 -6 -31 -10 0 -4 -7 -54 -15 -112 -20 -145 -20
-140 15 -140 25 0 30 -4 30 -24 0 -22 -5 -25 -52 -31 -83 -10 -132 -3 -136 19
-5 22 13 36 45 36 26 0 28 6 43 135 14 125 14 125 -14 125 -33 0 -53 25 -36
45 14 17 164 21 190 5z m815 -35 c0 -23 -5 -31 -22 -33 -19 -3 -23 1 -23 26 0
33 8 44 30 40 9 -2 15 -14 15 -33z m330 0 c0 -23 -4 -30 -20 -30 -21 0 -31 25
-21 51 11 28 41 12 41 -21z m-761 -42 l-7 -36 39 6 c46 7 67 -3 62 -29 -2 -15
-15 -20 -58 -24 -51 -5 -55 -7 -61 -35 -4 -16 -7 -51 -8 -77 -1 -56 16 -64 47
-21 13 17 25 24 36 20 39 -15 2 -81 -55 -99 -34 -10 -42 -9 -60 8 -20 18 -21
26 -16 112 4 73 3 92 -8 92 -7 0 -15 6 -18 13 -7 20 4 37 23 37 18 0 30 19 30
49 0 27 20 42 42 30 15 -8 17 -17 12 -46z m564 8 l-3 -36 42 0 c48 -1 67 -13
57 -38 -5 -13 -19 -17 -59 -17 -59 0 -58 2 -70 -102 -6 -49 -5 -58 8 -58 17 0
47 26 47 41 0 5 9 9 20 9 51 0 24 -71 -37 -96 -72 -30 -99 7 -88 124 6 63 4
75 -11 86 -21 16 -12 46 14 46 15 0 21 10 26 39 6 39 19 52 44 43 9 -3 12 -18
10 -41z m-850 -59 l3 -23 31 26 c22 18 40 25 62 23 45 -4 61 -43 59 -145 -2
-88 -15 -126 -41 -121 -19 4 -21 36 -9 128 6 42 4 60 -7 75 -14 19 -15 18 -44
-13 -17 -18 -40 -61 -52 -96 -26 -79 -40 -99 -63 -90 -20 7 -21 22 -7 135 16
127 17 131 43 127 14 -2 23 -11 25 -26z m471 14 c9 -11 8 -28 -4 -74 -21 -82
-20 -124 2 -120 23 4 59 68 79 141 14 48 20 57 39 57 13 0 25 -5 27 -11 7 -20
-20 -231 -30 -241 -16 -16 -42 -1 -42 24 0 21 0 21 -28 -5 -31 -30 -73 -35
-92 -12 -19 23 -23 89 -10 162 16 89 33 111 59 79z m230 5 c12 -8 12 -27 2
-128 -14 -127 -15 -133 -35 -133 -30 0 -33 24 -20 138 16 135 19 144 53 123z
m339 -6 c9 -18 -15 -236 -28 -249 -17 -17 -40 3 -40 36 0 66 22 213 34 220 17
11 24 10 34 -7z m231 -13 c71 -71 35 -217 -60 -242 -95 -26 -160 51 -129 153
7 23 21 50 31 60 10 10 19 22 19 28 0 14 39 28 78 28 24 1 42 -7 61 -27z m129
0 l3 -23 31 26 c44 37 87 31 111 -15 15 -29 17 -50 13 -117 -7 -100 -13 -115
-40 -111 -23 3 -25 16 -11 125 9 70 -3 100 -34 83 -20 -10 -63 -88 -81 -145
-19 -61 -32 -73 -59 -56 -11 7 -11 25 -2 102 20 161 19 161 44 157 14 -2 23
-11 25 -26z m911 -2037 c73 -37 62 -155 -20 -204 l-29 -18 32 -43 c66 -87 63
-79 45 -97 -23 -23 -35 -12 -141 133 -1 1 -11 4 -22 8 -20 6 -22 2 -28 -63 -7
-67 -16 -83 -43 -73 -19 7 -17 61 12 275 5 34 3 37 -20 37 -27 0 -44 25 -28
41 29 29 189 32 242 4z m268 -100 c29 -21 46 -75 34 -108 -12 -30 -60 -47
-133 -47 -51 0 -51 0 -42 -24 13 -34 42 -39 90 -15 72 35 91 -9 22 -51 -36
-22 -88 -26 -119 -10 -68 37 -65 193 6 248 33 26 109 30 142 7z m266 2 c15 -2
30 -7 34 -11 6 -6 -13 -194 -23 -228 -6 -20 -34 -24 -51 -7 -8 8 -18 6 -36 -6
-33 -21 -83 -9 -111 28 -28 38 -27 122 4 171 38 62 72 72 183 53z m241 -18
c34 -27 33 -72 -1 -77 -15 -2 -23 2 -23 12 0 26 -36 39 -67 24 -37 -18 -35
-30 7 -40 94 -23 123 -54 100 -107 -25 -61 -115 -76 -174 -30 -51 40 -21 80
32 43 27 -19 86 -15 90 6 2 11 -16 21 -60 35 -52 17 -65 25 -73 48 -27 79 97
142 169 86z m244 1 c35 -33 46 -92 27 -155 -20 -69 -51 -95 -115 -95 -114 0
-146 134 -56 233 30 32 41 37 79 37 29 0 50 -6 65 -20z m130 -8 l3 -23 30 26
c83 69 140 0 124 -149 -7 -74 -22 -100 -49 -90 -15 6 -17 14 -12 43 13 77 17
147 8 160 -23 33 -73 -31 -112 -144 -10 -31 -24 -51 -35 -53 -32 -7 -36 11
-25 104 17 152 18 156 43 152 14 -2 23 -11 25 -26z m-11088 -700 c104 -77 63
-314 -63 -361 -72 -28 -155 1 -187 64 -23 45 -19 151 7 200 59 112 165 154
243 97z m-1803 -93 c21 -111 34 -142 53 -123 5 5 34 60 65 122 41 84 60 112
74 112 11 0 21 -5 23 -11 2 -5 -3 -88 -10 -182 -15 -182 -26 -218 -57 -186
-13 12 -14 31 -7 107 4 51 7 92 6 92 0 0 -17 -24 -37 -54 -20 -30 -46 -57 -57
-61 -27 -9 -55 16 -72 61 -7 19 -15 34 -18 34 -4 0 -12 -35 -18 -77 -14 -87
-34 -120 -56 -90 -11 14 -9 44 15 180 16 89 29 168 29 175 0 6 10 12 23 12 21
0 24 -9 44 -111z m2351 98 c8 -10 6 -58 -9 -178 -11 -90 -22 -170 -24 -176 -5
-16 -45 -17 -45 -3 0 7 -6 7 -19 0 -51 -27 -116 1 -141 60 -10 25 -10 42 -1
86 20 88 88 141 152 117 25 -10 27 -8 33 19 3 17 6 41 6 53 0 21 10 32 31 34
4 1 11 -5 17 -12z m-1025 -9 c4 -12 -27 -286 -38 -335 -5 -23 -38 -32 -50 -13
-5 8 30 320 40 348 2 6 13 12 24 12 10 0 21 -6 24 -12z m-479 -60 l-1 -37 51
-3 c39 -2 52 -7 54 -21 4 -19 -4 -23 -70 -32 -52 -7 -53 -8 -64 -97 -6 -54 -5
-58 14 -58 11 0 27 11 36 25 33 50 70 20 42 -34 -17 -32 -80 -59 -110 -48 -27
11 -38 57 -31 130 6 57 4 71 -10 87 -21 23 -13 50 13 50 15 0 21 10 26 41 6
34 10 40 29 37 18 -2 22 -9 21 -40z m-408 -50 c34 -33 40 -78 16 -108 -17 -21
-30 -25 -96 -28 -42 -2 -76 -6 -76 -7 0 -2 4 -15 10 -29 11 -31 47 -35 90 -10
15 10 35 14 45 11 28 -11 12 -41 -35 -65 -56 -29 -95 -23 -132 18 -55 60 -29
197 44 234 43 22 104 15 134 -16z m734 15 c43 -11 45 -19 30 -145 -13 -103
-24 -123 -59 -101 -12 8 -22 7 -36 -3 -32 -23 -74 -17 -107 16 -29 29 -30 34
-26 95 5 74 25 110 79 138 33 17 47 17 119 0z m1390 2 c35 -18 50 -43 50 -82
0 -53 -32 -73 -119 -73 -52 0 -61 -3 -61 -18 0 -43 46 -54 94 -23 52 35 81 -8
31 -47 -112 -88 -229 36 -165 175 32 72 106 101 170 68z m-1999 -30 c5 -25 7
-27 14 -12 11 25 63 50 91 43 36 -9 54 -55 53 -133 -2 -103 -9 -128 -39 -128
-19 0 -24 5 -23 20 2 11 6 55 9 97 6 67 5 78 -10 84 -9 3 -23 0 -32 -7 -20
-16 -58 -92 -75 -148 -14 -47 -33 -61 -54 -40 -11 12 -11 33 1 123 7 61 16
116 19 124 9 24 39 8 46 -23z m1384 15 c4 -7 12 -7 25 0 28 15 77 12 94 -6 17
-17 22 -79 7 -88 -16 -10 -40 5 -43 27 -2 12 -9 22 -17 22 -25 0 -53 -51 -70
-126 -14 -61 -20 -75 -38 -77 -11 -2 -23 3 -25 10 -5 15 9 216 16 235 6 15 42
17 51 3z m753 -6 c8 -14 10 -14 21 0 17 20 70 20 99 0 26 -18 30 -65 7 -84
-18 -15 -33 -6 -46 26 -19 51 -67 -13 -84 -112 -12 -69 -15 -75 -38 -72 -21 3
-22 7 -19 108 1 58 5 115 7 128 6 26 39 30 53 6z m8308 -1364 c15 -96 32 -160
44 -160 14 0 45 49 91 148 31 67 48 92 61 92 10 0 21 -6 24 -14 8 -20 -24
-358 -35 -369 -5 -5 -17 -7 -27 -3 -15 6 -16 18 -10 109 l7 102 -38 -58 c-47
-71 -76 -83 -109 -42 -12 15 -26 42 -31 59 -8 28 -10 24 -22 -49 -16 -91 -25
-115 -47 -115 -26 0 -26 27 1 192 33 200 30 190 57 186 19 -3 24 -12 34 -78z
m1661 54 c6 -15 -21 -281 -34 -331 -3 -16 -13 -23 -29 -23 -18 0 -24 5 -24 23
0 37 39 327 45 338 10 15 35 11 42 -7z m-369 -20 c4 -29 -23 -51 -43 -34 -16
13 -20 42 -8 54 14 14 48 1 51 -20z m-693 -37 l0 -37 46 0 c34 0 49 -4 53 -16
11 -28 -13 -44 -64 -44 -54 0 -54 0 -66 -103 -8 -67 3 -73 47 -25 26 29 30 31
44 17 33 -33 -27 -99 -89 -99 -49 0 -67 63 -47 167 7 36 6 42 -10 46 -29 8
-24 45 6 53 14 3 25 12 25 19 0 32 21 66 38 63 12 -3 17 -13 17 -41z m-168
-34 c18 -3 37 -11 42 -17 11 -13 -14 -225 -28 -239 -9 -9 -41 2 -41 15 0 5
-10 2 -22 -6 -12 -9 -39 -16 -58 -16 -116 0 -120 209 -6 261 23 11 50 17 61
14 11 -3 35 -8 52 -12z m493 -11 c33 -25 46 -77 25 -108 -18 -28 -51 -39 -122
-39 -29 0 -53 -1 -53 -2 0 -1 4 -13 10 -27 11 -30 54 -36 86 -11 25 19 53 19
61 0 14 -38 -70 -82 -133 -70 -48 9 -74 52 -74 126 0 122 112 196 200 131z
m557 16 c15 -6 36 -10 46 -9 27 4 31 -23 18 -132 -13 -108 -28 -140 -55 -118
-11 9 -20 10 -35 2 -22 -12 -81 -14 -97 -3 -46 32 -59 129 -25 192 17 32 81
79 108 80 6 0 24 -5 40 -12z m-441 -23 c5 -13 8 -13 27 0 28 19 67 19 95 -1
26 -18 31 -81 7 -90 -20 -8 -47 15 -41 33 4 10 -1 13 -16 11 -29 -4 -56 -53
-72 -130 -9 -46 -18 -64 -30 -66 -10 -2 -22 0 -27 5 -10 10 5 225 16 243 9 15
35 12 41 -5z m238 6 c3 -5 1 -48 -4 -97 -17 -146 -19 -154 -40 -154 -10 0 -22
5 -25 11 -6 9 11 208 20 237 5 14 41 16 49 3z m-12358 -391 c17 -108 33 -160
49 -160 8 0 39 51 71 116 55 113 75 137 96 116 12 -12 -16 -360 -31 -375 -5
-5 -17 -7 -27 -3 -15 6 -16 18 -10 109 l7 102 -38 -58 c-36 -56 -69 -77 -93
-62 -7 4 -22 29 -35 56 l-22 49 -13 -78 c-15 -88 -24 -112 -46 -112 -26 0 -26
27 1 192 33 200 30 190 57 186 19 -3 24 -12 34 -78z m2152 55 c43 -36 55 -74
50 -159 -9 -133 -63 -197 -173 -204 -63 -4 -66 -3 -99 30 -56 56 -68 145 -31
233 7 17 32 51 57 78 44 46 46 47 105 47 51 0 67 -4 91 -25z m-486 3 c3 -7 -4
-89 -16 -181 -16 -131 -25 -171 -37 -178 -38 -20 -41 11 -19 182 11 90 22 170
25 177 2 6 13 12 24 12 10 0 21 -6 23 -12z m1032 3 c6 -9 -31 -339 -40 -352
-8 -13 -44 -11 -44 3 0 9 -3 9 -12 0 -22 -22 -92 -15 -121 12 -89 82 12 286
122 248 l30 -11 7 47 c3 26 8 50 11 55 6 10 41 9 47 -2z m-1406 -27 c2 -11 -4
-27 -13 -34 -22 -19 -50 9 -40 39 9 29 49 25 53 -5z m9908 11 c9 -23 -15 -45
-47 -45 -16 0 -29 -3 -29 -7 0 -5 -7 -55 -15 -113 -20 -144 -20 -140 14 -140
31 0 45 -18 31 -41 -7 -10 -33 -14 -97 -14 -87 0 -88 0 -88 25 0 21 5 26 32
28 37 4 36 1 52 138 15 124 15 124 -13 124 -33 0 -53 25 -36 45 18 22 188 22
196 0z m809 -30 c0 -23 -5 -31 -22 -33 -19 -3 -23 1 -23 26 0 33 8 44 30 40 9
-2 15 -14 15 -33z m-11410 -18 l0 -37 48 0 c33 0 49 -5 53 -15 11 -27 -16 -45
-66 -45 -53 0 -53 1 -66 -96 -8 -66 6 -76 46 -32 27 29 31 31 45 17 33 -33
-27 -99 -89 -99 -44 0 -60 38 -51 126 6 65 5 77 -11 88 -21 16 -12 46 16 53
11 3 20 14 20 25 0 31 20 60 38 56 12 -3 17 -14 17 -41z m11213 -16 l-3 -36
42 0 c46 0 69 -15 60 -39 -5 -12 -21 -16 -61 -16 -61 0 -59 3 -71 -102 -6 -49
-5 -58 8 -58 9 0 25 12 36 26 22 28 54 29 59 2 5 -24 -48 -75 -83 -83 -19 -3
-38 0 -50 9 -18 13 -20 25 -18 107 1 75 -1 95 -14 104 -21 16 -10 45 17 45 15
0 20 7 20 29 0 35 24 63 46 54 11 -4 14 -16 12 -42z m834 -5 l-3 -39 38 6 c45
7 66 -3 61 -29 -2 -15 -15 -20 -58 -24 -51 -5 -55 -7 -61 -35 -4 -16 -7 -51
-8 -77 -1 -56 16 -64 47 -21 13 17 25 24 36 20 38 -15 6 -79 -49 -97 -30 -10
-40 -9 -62 5 -25 17 -26 18 -20 111 4 75 3 94 -8 94 -7 0 -15 6 -18 13 -7 20
4 37 24 37 12 0 21 9 25 28 11 49 14 53 36 50 20 -3 23 -8 20 -42z m-12226
-11 c31 -8 59 -16 61 -18 2 -3 -2 -49 -8 -103 -16 -139 -28 -164 -61 -130 -12
11 -17 11 -33 0 -25 -18 -75 -18 -102 1 -51 36 -54 149 -5 206 20 25 65 54 89
59 1 0 28 -7 59 -15z m504 -14 c33 -24 46 -76 25 -107 -18 -28 -51 -39 -122
-39 -55 0 -60 -4 -43 -36 13 -23 58 -25 86 -4 48 36 87 -2 41 -41 -56 -48
-143 -39 -172 17 -23 44 -19 130 8 170 44 66 117 82 177 40z m570 16 c70 -19
68 -14 52 -134 -15 -114 -29 -146 -56 -124 -11 9 -20 10 -35 2 -22 -12 -70
-14 -96 -5 -43 17 -59 126 -29 190 21 44 64 75 114 82 3 1 25 -4 50 -11z
m1427 -13 c25 -16 36 -47 31 -90 -4 -38 -45 -58 -120 -58 -45 -1 -58 -4 -58
-16 0 -40 57 -53 98 -24 27 19 52 12 52 -14 0 -24 -68 -62 -110 -62 -41 0 -86
44 -95 93 -26 137 95 239 202 171z m-1877 -9 c15 -14 18 -14 30 0 16 20 60 19
88 -1 31 -21 28 -89 -3 -89 -13 0 -21 8 -23 23 -4 29 -37 29 -57 -1 -8 -13
-23 -57 -33 -98 -14 -54 -23 -75 -36 -77 -10 -2 -22 0 -26 5 -7 8 5 214 15
241 6 16 25 15 45 -3z m236 1 c3 -7 -1 -65 -8 -127 -11 -96 -16 -114 -32 -117
-10 -2 -22 0 -27 5 -11 11 9 223 23 241 14 16 37 15 44 -2z m1012 2 c9 -9 15
-9 24 0 17 17 59 15 86 -4 31 -21 28 -89 -3 -89 -13 0 -21 8 -23 23 -4 29 -37
29 -57 -1 -8 -13 -23 -57 -33 -98 -17 -67 -21 -74 -43 -74 -20 0 -24 5 -23 30
1 56 15 209 20 217 8 12 38 10 52 -4z m748 -3 c5 -12 9 -12 31 2 36 24 94 8
107 -30 18 -51 -28 -87 -49 -39 -5 12 -17 22 -26 22 -20 0 -55 -68 -64 -125
-12 -69 -15 -76 -38 -73 -21 3 -22 7 -20 98 4 133 9 160 34 160 11 0 22 -7 25
-15z m9438 4 c49 -23 62 -104 16 -104 -20 0 -26 6 -28 27 -6 55 -83 43 -107
-17 -19 -44 -19 -75 1 -103 20 -29 56 -28 90 3 30 27 40 30 49 14 12 -19 -4
-54 -34 -72 -47 -28 -107 -23 -142 12 -25 26 -29 37 -29 86 0 98 51 164 127
165 18 0 43 -5 57 -11z m-1186 -27 l3 -23 30 26 c80 66 138 -4 123 -150 -8
-74 -22 -102 -49 -91 -18 7 -18 18 1 146 4 22 0 42 -9 55 -15 19 -16 19 -45
-12 -16 -18 -39 -60 -51 -95 -35 -97 -42 -107 -70 -89 -11 7 -12 27 -1 127 7
66 15 123 17 127 10 17 48 2 51 -21z m360 8 c34 -21 43 -55 20 -78 -18 -18
-27 -15 -38 14 -9 22 -15 25 -47 22 -59 -5 -56 -32 4 -47 78 -20 109 -62 83
-112 -13 -24 -61 -49 -96 -49 -37 0 -104 40 -104 62 0 28 23 31 62 8 29 -17
41 -19 63 -10 38 14 27 31 -33 50 -64 21 -82 36 -82 67 0 37 18 63 53 78 45
20 77 18 115 -5z m349 4 c10 -26 -17 -228 -33 -244 -12 -13 -16 -13 -28 0 -13
13 -13 30 -1 128 8 62 17 117 20 122 9 15 35 12 42 -6z m111 -12 l3 -23 31 26
c44 37 87 31 111 -15 15 -29 17 -50 13 -117 -7 -97 -12 -113 -36 -113 -29 0
-30 11 -18 103 9 68 9 89 -1 101 -9 11 -18 13 -30 6 -21 -11 -65 -90 -82 -148
-16 -54 -34 -71 -55 -50 -12 12 -13 29 -3 114 6 54 15 109 20 122 12 29 43 25
47 -6z m-1090 -1597 c16 -93 41 -175 52 -175 5 0 34 51 65 113 63 129 70 138
90 131 18 -7 19 -63 2 -249 -12 -129 -12 -130 -37 -130 -25 0 -25 1 -22 80 1
44 5 91 8 105 4 20 0 17 -22 -15 -42 -62 -66 -85 -88 -85 -22 1 -48 30 -60 68
-13 39 -22 24 -34 -54 -7 -42 -15 -80 -18 -85 -8 -13 -41 -11 -47 4 -4 11 47
326 58 355 3 8 13 12 22 10 14 -2 21 -21 31 -73z m1079 24 c7 -7 9 -24 6 -40
-5 -27 -4 -28 43 -31 45 -3 49 -5 49 -28 0 -23 -4 -25 -55 -30 -51 -5 -55 -7
-61 -35 -9 -39 -11 -125 -3 -125 16 0 44 23 44 35 0 9 10 15 25 15 19 0 25 -5
25 -22 -1 -43 -45 -78 -98 -78 -48 0 -55 19 -50 120 4 69 2 90 -7 90 -15 0
-28 27 -19 41 3 5 14 9 24 9 13 0 21 10 25 33 11 51 30 68 52 46z m-642 -93
c50 -50 42 -166 -15 -218 -42 -39 -116 -40 -152 -3 -58 57 -43 144 38 228 27
27 99 23 129 -7z m121 9 c4 -8 -1 -52 -10 -97 -11 -55 -13 -85 -7 -91 18 -18
49 21 77 97 40 108 45 115 73 97 11 -7 12 -27 1 -125 -13 -121 -26 -150 -55
-126 -8 7 -15 18 -15 26 0 8 -10 4 -26 -11 -33 -31 -57 -32 -85 -4 -20 20 -21
29 -16 108 2 47 10 98 16 114 11 29 38 36 47 12z m242 -13 l4 -23 25 25 c36
36 86 36 110 -1 14 -21 18 -46 17 -108 -2 -93 -16 -138 -42 -133 -19 4 -21 35
-9 128 6 42 4 60 -7 75 -14 20 -14 20 -36 0 -22 -20 -57 -90 -79 -157 -10 -30
-18 -38 -37 -38 -18 0 -24 5 -24 21 0 29 21 211 26 227 7 23 49 10 52 -16z
m575 17 c34 -15 50 -52 33 -75 -15 -20 -46 -13 -46 10 0 20 -32 28 -64 16 -39
-14 -28 -31 34 -51 30 -10 60 -25 67 -35 32 -44 -4 -107 -68 -119 -58 -11
-139 35 -125 70 7 20 28 19 68 -4 24 -14 39 -17 56 -10 37 14 26 36 -25 49
-54 13 -93 44 -93 72 0 65 94 109 163 77z m-12120 -779 c-1 -55 -53 -217 -91
-285 -21 -39 -33 -51 -55 -53 -26 -3 -30 2 -54 56 l-27 60 -37 -58 c-20 -31
-45 -60 -55 -64 -49 -19 -77 82 -72 259 3 99 3 100 28 100 l25 0 3 -135 c1
-74 7 -139 12 -144 10 -10 77 118 85 166 7 40 17 51 41 46 16 -3 19 -13 20
-68 2 -72 20 -154 34 -145 11 6 64 154 85 237 20 76 22 80 43 76 13 -3 17 -14
15 -48z m202 10 c9 -15 -35 -344 -48 -358 -10 -10 -16 -10 -29 0 -16 12 -16
24 3 168 24 197 25 200 49 200 10 0 21 -4 25 -10z m111 -4 c9 -23 -35 -350
-48 -357 -20 -13 -38 3 -38 33 0 52 31 292 40 316 11 25 38 30 46 8z m-220
-10 c7 -19 -14 -58 -28 -54 -19 7 -32 34 -25 52 8 20 46 21 53 2z m-13 -99 c4
-10 -13 -188 -23 -244 -1 -8 -40 -1 -45 8 -6 9 11 208 20 237 6 16 42 16 48
-1z m-238 -1521 c18 -8 38 -23 44 -34 29 -54 -1 -150 -54 -174 -14 -6 -25 -14
-25 -18 0 -4 15 -26 33 -50 17 -24 36 -48 41 -55 13 -18 -1 -47 -21 -43 -10 2
-41 35 -71 73 -62 81 -86 92 -96 44 -3 -17 -6 -44 -6 -59 0 -32 -21 -53 -44
-44 -19 7 -19 0 -1 154 20 165 20 160 -11 160 -20 0 -25 4 -22 22 2 14 13 25
28 29 45 13 169 9 205 -5z m292 -120 c29 -35 31 -86 2 -112 -15 -13 -40 -20
-90 -22 -72 -4 -85 -15 -53 -46 21 -22 46 -20 78 5 30 24 56 19 56 -11 0 -29
-56 -60 -108 -60 -54 0 -88 33 -97 94 -10 62 9 119 52 156 33 29 41 32 87 27
38 -3 55 -11 73 -31z m251 18 c18 -3 34 -9 36 -13 6 -9 -21 -219 -29 -232 -9
-13 -43 -11 -47 3 -3 7 -13 5 -31 -7 -20 -12 -37 -15 -62 -11 -98 19 -101 190
-5 254 35 24 50 25 138 6z m232 -9 c36 -19 49 -60 27 -82 -13 -14 -19 -14 -31
-3 -9 7 -16 19 -16 26 0 19 -64 18 -79 0 -10 -12 -8 -17 8 -25 11 -6 27 -11
36 -11 26 0 73 -28 86 -51 25 -47 -32 -109 -101 -109 -50 0 -114 47 -103 76 7
20 26 18 68 -7 30 -18 40 -20 61 -10 36 16 25 34 -32 49 -63 18 -84 37 -84 77
0 65 92 105 160 70z m241 5 c65 -35 62 -200 -4 -243 -88 -56 -177 -10 -177 92
0 53 11 78 53 124 28 30 42 37 72 37 20 0 45 -5 56 -10z m147 -18 l3 -23 31
26 c22 18 40 25 62 23 45 -4 61 -43 59 -145 -1 -84 -13 -123 -38 -123 -24 0
-26 17 -16 95 13 92 3 132 -30 115 -21 -12 -89 -141 -89 -171 0 -23 -24 -41
-44 -33 -19 7 -19 21 -6 134 15 125 17 132 43 128 14 -2 23 -11 25 -26z m9468
-135 c39 -20 59 -65 49 -114 -14 -77 -70 -123 -148 -123 l-44 0 -7 -61 c-5
-40 -12 -62 -22 -66 -34 -13 -38 12 -25 149 7 73 15 143 18 156 4 18 1 22 -21
22 -21 0 -26 5 -26 24 0 30 19 35 120 32 45 -2 87 -9 106 -19z m1568 -13 c8
-22 -12 -56 -32 -52 -18 3 -27 30 -18 54 7 19 42 18 50 -2z m-1322 -85 c26
-14 50 -73 42 -103 -7 -31 -67 -56 -133 -56 -44 0 -49 -2 -44 -20 11 -42 53
-45 104 -8 21 15 49 4 49 -20 0 -24 -68 -62 -110 -62 -66 0 -100 45 -100 130
0 92 49 150 127 150 24 0 53 -5 65 -11z m492 -10 c22 -17 27 -28 24 -58 -2
-29 -8 -37 -25 -39 -18 -3 -23 1 -23 20 0 54 -46 63 -91 19 -23 -24 -29 -38
-29 -73 0 -24 4 -49 9 -57 14 -22 68 -17 94 7 28 26 43 28 51 6 15 -38 -44
-84 -108 -84 -77 0 -122 82 -96 176 26 92 128 135 194 83z m-364 -4 c10 -12
15 -12 36 1 26 18 75 12 94 -11 6 -8 10 -29 8 -47 -4 -42 -34 -51 -48 -14 -22
60 -60 19 -88 -95 -14 -54 -23 -75 -36 -77 -10 -2 -22 0 -26 5 -7 8 5 214 15
241 6 16 30 15 45 -3z m478 2 c8 -10 7 -28 -3 -68 -19 -70 -20 -129 -1 -129
19 0 38 32 73 125 32 83 39 91 62 76 13 -8 13 -26 3 -128 -7 -65 -17 -122 -23
-128 -14 -14 -45 9 -41 30 3 15 -2 13 -28 -8 -38 -32 -63 -34 -90 -7 -23 23
-27 103 -9 180 15 65 35 84 57 57z m341 -2 c32 -16 44 -39 36 -66 -8 -25 -45
-24 -52 1 -7 25 -33 33 -67 20 -39 -14 -28 -33 30 -48 67 -19 86 -38 82 -81
-2 -27 -11 -41 -37 -58 -42 -28 -70 -29 -122 -3 -45 24 -57 43 -39 65 11 13
16 13 45 -5 38 -23 78 -26 94 -6 15 18 6 24 -56 39 -30 8 -53 22 -66 39 -18
24 -19 30 -7 59 22 52 101 75 159 44z m245 -6 c35 -27 33 -72 -2 -77 -17 -3
-25 2 -29 17 -7 26 -26 32 -63 19 -42 -14 -33 -30 26 -45 49 -12 94 -50 94
-78 0 -7 -12 -27 -26 -44 -43 -51 -118 -51 -173 0 -38 36 0 66 43 34 22 -17
64 -19 85 -6 21 13 5 29 -42 42 -66 17 -87 35 -87 72 0 33 26 68 60 80 35 13
88 6 114 -14z m115 8 c8 -10 7 -44 -3 -127 -14 -110 -24 -134 -53 -123 -16 6
-16 18 -2 141 13 115 29 143 58 109z m223 2 c25 -13 48 -68 48 -111 -1 -43
-32 -111 -61 -132 -33 -23 -110 -21 -136 4 -49 45 -50 136 -3 190 11 13 20 26
20 30 0 24 96 38 132 19z m138 -15 l0 -26 31 26 c30 25 72 33 96 18 20 -13 33
-61 33 -125 0 -83 -16 -137 -39 -137 -26 0 -30 18 -19 79 11 65 7 133 -9 138
-22 8 -62 -47 -92 -126 -28 -72 -51 -96 -71 -74 -8 8 14 226 25 243 3 6 15 10
26 10 14 0 19 -7 19 -26z m-11703 -1424 c17 -10 37 -29 43 -41 15 -27 6 -91
-18 -131 -20 -35 -86 -68 -134 -68 -35 0 -35 0 -44 -57 -8 -49 -12 -58 -31
-61 -21 -3 -23 1 -23 42 0 24 4 78 9 118 21 163 21 158 0 158 -22 0 -34 22
-25 45 9 24 181 21 223 -5z m863 -5 c18 -22 3 -57 -23 -53 -25 3 -34 32 -17
53 16 19 24 19 40 0z m-605 -91 c19 -3 37 -9 39 -13 3 -4 -2 -54 -9 -111 -8
-58 -15 -111 -15 -117 0 -16 -50 -17 -50 -2 0 7 -10 5 -25 -5 -48 -31 -104
-17 -130 34 -49 95 30 241 123 225 17 -3 48 -8 67 -11z m247 -21 c24 -22 32
-51 18 -68 -19 -22 -39 -18 -50 10 -11 29 -45 33 -76 11 -24 -18 -17 -25 38
-37 71 -16 102 -60 82 -114 -17 -44 -108 -58 -162 -25 -37 23 -50 46 -33 63 9
9 22 5 56 -13 37 -20 47 -22 69 -12 39 17 32 30 -27 47 -30 9 -62 22 -72 29
-24 17 -24 70 0 96 36 40 119 46 157 13z m236 1 c18 -12 22 -23 20 -47 -4 -41
-34 -49 -48 -13 -7 18 -17 26 -34 26 -57 0 -79 -35 -28 -46 73 -16 112 -46
112 -87 0 -10 -13 -32 -29 -48 -23 -23 -38 -29 -72 -29 -50 0 -109 33 -109 61
0 27 27 35 49 15 26 -24 75 -31 90 -12 18 21 7 33 -39 41 -105 18 -123 108
-29 150 38 17 81 13 117 -11z m335 6 c87 -68 40 -243 -68 -256 -52 -6 -85 12
-109 59 -16 33 -17 44 -7 84 28 109 118 165 184 113z m136 6 c6 -7 8 -22 4
-32 -5 -14 4 -10 30 14 46 39 78 41 106 6 18 -22 21 -40 20 -108 -1 -103 -9
-130 -37 -134 -23 -3 -23 -3 -16 102 7 103 6 106 -14 106 -28 0 -66 -56 -93
-138 -21 -64 -41 -84 -62 -63 -8 8 -8 41 1 127 7 64 15 121 18 125 8 13 30 11
43 -5z m-355 -4 c7 -12 -13 -202 -24 -229 -11 -26 -38 -31 -46 -8 -6 15 14
223 23 238 6 10 41 9 47 -1z m-353 -1734 c0 -7 0 -34 -1 -59 l-1 -47 45 5 c45
5 46 5 61 -30 16 -40 21 -202 6 -225 -5 -8 -17 -12 -27 -10 -17 3 -19 12 -15
111 3 92 1 107 -12 107 -36 0 -77 -78 -77 -144 0 -52 -41 -90 -56 -52 -6 15
24 334 32 348 8 13 44 9 45 -4z m823 -4 c80 -39 72 -164 -14 -209 l-30 -16 27
-37 c15 -20 36 -47 46 -59 11 -12 17 -29 14 -37 -13 -33 -44 -15 -96 55 -29
39 -60 73 -68 76 -20 8 -33 -14 -33 -54 0 -17 -4 -43 -10 -57 -10 -29 -37 -35
-46 -11 -5 13 5 138 22 262 6 38 4 41 -13 37 -27 -7 -50 21 -33 40 23 29 181
35 234 10z m-914 -9 c24 -29 4 -44 -62 -47 l-63 -3 -15 -145 c-8 -80 -19 -151
-23 -157 -10 -16 -33 -17 -42 -3 -6 10 6 155 21 267 l6 42 -58 3 c-51 3 -59 6
-59 23 0 25 37 32 181 34 79 1 104 -2 114 -14z m2100 -54 l0 -40 48 -3 c39 -3
47 -6 47 -23 0 -17 -9 -21 -57 -28 -62 -10 -56 0 -73 -114 -6 -37 -4 -43 11
-43 10 0 28 12 40 27 14 17 26 24 37 20 40 -15 -1 -89 -58 -103 -66 -17 -94
37 -76 146 8 48 7 56 -10 68 -26 18 -24 40 5 48 18 4 27 15 32 37 9 43 12 47
35 47 16 0 19 -7 19 -39z m225 -1 c0 -35 0 -35 50 -40 37 -4 51 -9 53 -23 4
-19 -4 -23 -70 -32 -52 -7 -53 -8 -64 -97 -6 -52 -4 -58 12 -58 10 0 28 12 40
28 21 25 24 26 39 10 16 -15 16 -18 -1 -47 -22 -37 -85 -62 -112 -44 -26 16
-36 66 -26 135 8 56 7 65 -10 79 -23 19 -15 49 12 49 15 0 21 10 26 41 6 34
10 40 29 37 18 -2 22 -9 22 -38z m-1905 -35 c35 -18 50 -43 50 -82 0 -53 -32
-73 -119 -73 -52 0 -61 -3 -61 -18 0 -43 46 -54 94 -23 32 21 56 18 56 -9 0
-38 -82 -76 -134 -62 -100 27 -97 214 4 264 43 22 72 23 110 3z m762 2 c26 -7
49 -15 53 -18 3 -3 -2 -53 -10 -110 -8 -57 -15 -110 -15 -116 0 -7 -11 -13
-25 -13 -14 0 -25 5 -25 10 0 6 -13 4 -30 -5 -41 -21 -75 -19 -106 8 -23 20
-28 34 -31 83 -5 72 24 130 77 156 41 21 49 21 112 5z m508 -12 c27 -25 36
-73 17 -93 -19 -19 -44 -3 -49 31 -2 16 -11 23 -33 25 -61 6 -107 -88 -71
-143 20 -30 54 -32 89 -5 35 28 57 26 57 -4 0 -35 -51 -69 -107 -70 -38 -1
-49 4 -74 32 -25 28 -29 40 -29 90 0 67 23 111 72 143 38 23 98 21 128 -6z
m256 -7 c34 -33 40 -78 16 -108 -17 -21 -30 -25 -96 -28 -42 -2 -76 -6 -76 -7
0 -2 4 -15 10 -29 12 -32 49 -35 95 -6 29 18 34 18 45 5 17 -21 7 -41 -32 -61
-51 -27 -103 -23 -135 8 -21 22 -27 39 -31 87 -8 104 54 177 142 167 23 -3 49
-14 62 -28z m710 0 c34 -33 40 -78 16 -108 -17 -21 -30 -25 -96 -28 -42 -2
-76 -6 -76 -7 0 -2 4 -15 10 -29 11 -31 47 -35 90 -10 15 10 35 14 45 11 29
-12 12 -41 -38 -66 -60 -30 -101 -21 -134 28 -51 75 -14 202 67 234 30 12 93
-1 116 -25z m-1232 8 c36 -15 51 -43 41 -77 -9 -26 -37 -21 -50 9 -11 24 -43
29 -76 11 -28 -14 -16 -25 46 -44 62 -18 90 -48 80 -88 -10 -39 -40 -59 -92
-64 -75 -7 -148 51 -102 80 12 7 24 4 47 -13 26 -19 37 -22 59 -14 44 15 38
32 -18 48 -29 9 -61 23 -71 33 -39 35 -13 105 45 122 45 13 53 13 91 -3z
m2380 -2097 c44 -20 58 -104 24 -146 -7 -8 -5 -20 6 -35 21 -30 20 -83 -1
-119 -32 -54 -139 -85 -220 -63 -27 7 -37 32 -22 51 7 7 17 66 24 131 10 100
9 119 -3 128 -21 15 -11 47 18 55 41 11 147 10 174 -2z m1145 2 c13 -8 12 -33
-7 -182 -12 -95 -26 -177 -31 -182 -18 -18 -41 1 -41 35 1 49 37 314 44 327 9
13 16 14 35 2z m1380 -17 c25 -31 27 -57 6 -74 -17 -15 -33 -6 -45 26 -12 31
-38 31 -50 -2 -14 -37 -13 -44 13 -44 60 -1 65 -53 5 -58 l-36 -3 -7 -77 c-9
-106 -8 -104 -27 -116 -32 -20 -40 4 -31 100 7 82 6 90 -12 105 -16 14 -17 19
-6 33 7 9 19 16 26 16 7 0 16 15 19 34 11 55 41 86 86 86 30 0 43 -6 59 -26z
m298 11 c3 -9 -2 -62 -11 -120 -9 -57 -16 -125 -16 -151 l0 -47 85 7 c73 6 86
5 91 -9 11 -29 -12 -38 -112 -43 -117 -6 -124 -1 -124 95 0 59 32 252 45 273
9 15 35 12 42 -5z m468 -10 c28 -27 32 -57 10 -75 -20 -17 -45 -5 -45 20 0 29
-30 38 -46 15 -22 -30 -18 -55 10 -55 29 0 49 -22 40 -44 -4 -10 -18 -16 -40
-16 -19 0 -34 -3 -35 -7 -14 -177 -22 -202 -55 -189 -14 6 -16 17 -9 100 6 80
4 94 -9 99 -23 9 -19 34 8 52 14 9 27 30 30 49 14 74 91 102 141 51z m-220
-20 c0 -23 -4 -30 -20 -30 -21 0 -31 25 -21 51 11 28 41 12 41 -21z m-1533
-39 l-3 -39 38 6 c45 7 66 -3 61 -29 -2 -15 -15 -20 -58 -24 -51 -5 -55 -7
-61 -35 -4 -16 -7 -51 -8 -77 -1 -56 16 -64 47 -21 21 29 52 27 52 -4 0 -31
-29 -62 -70 -74 -35 -11 -42 -10 -61 7 -20 17 -21 27 -17 112 4 70 2 92 -8 92
-7 0 -14 6 -17 13 -7 20 4 37 24 37 12 0 21 9 25 28 11 49 14 53 36 50 20 -3
23 -8 20 -42z m-1055 -28 c61 -15 61 -11 42 -161 -12 -92 -24 -111 -58 -90
-12 8 -22 7 -36 -3 -31 -23 -74 -17 -106 15 -25 26 -29 37 -29 86 0 64 16 102
60 139 36 29 52 31 127 14z m262 -3 c42 -21 57 -80 27 -104 -17 -14 -46 10
-46 39 0 43 -76 30 -101 -17 -20 -38 -17 -102 6 -119 28 -20 50 -17 85 12 28
24 33 25 47 12 32 -33 -31 -88 -102 -88 -49 0 -74 15 -91 55 -55 132 60 270
175 210z m252 0 c50 -26 65 -97 28 -130 -14 -14 -42 -21 -94 -25 l-74 -5 12
-25 c10 -20 20 -25 46 -23 18 0 41 9 51 18 23 21 50 13 50 -15 0 -44 -109 -77
-161 -50 -49 27 -64 123 -29 194 33 70 104 95 171 61z m363 4 c32 -15 60 -72
52 -106 -9 -32 -60 -53 -131 -53 -59 0 -63 -4 -39 -38 19 -27 39 -28 83 -1 30
18 36 19 48 6 35 -35 -39 -83 -117 -75 -98 9 -110 202 -16 259 35 21 83 24
120 8z m2157 -18 c23 -23 29 -38 29 -71 0 -37 -3 -42 -35 -56 -19 -7 -59 -14
-90 -14 -59 0 -70 -13 -39 -44 21 -21 42 -20 83 5 31 19 35 19 50 5 14 -15 13
-18 -11 -42 -38 -39 -119 -46 -154 -13 -65 61 -44 205 37 246 44 23 97 16 130
-16z m-3381 -2 c0 -6 8 -5 19 1 37 19 89 12 107 -14 23 -36 15 -71 -16 -71
-18 0 -26 6 -28 23 -2 12 -9 22 -16 22 -24 0 -46 -36 -62 -106 -24 -100 -33
-114 -63 -95 -11 7 -12 29 -4 126 10 117 19 140 50 128 7 -3 13 -9 13 -14z
m1694 7 c39 -16 52 -45 36 -76 -14 -25 -31 -22 -45 8 -11 24 -57 30 -85 12
-13 -9 -12 -12 4 -25 11 -8 28 -15 38 -15 27 0 75 -26 82 -45 13 -36 5 -64
-26 -90 -27 -23 -39 -26 -76 -22 -48 5 -95 34 -100 61 -4 21 26 33 47 18 35
-26 61 -32 86 -20 36 16 26 30 -35 48 -96 28 -113 94 -38 140 39 24 67 25 112
6z m449 -12 c51 -51 44 -169 -13 -217 -42 -36 -82 -42 -128 -20 -76 37 -78
146 -3 224 49 49 103 55 144 13z m784 10 c10 -26 -17 -228 -33 -244 -12 -13
-16 -13 -28 0 -13 13 -13 30 -1 128 8 62 17 117 20 122 9 15 35 12 42 -6z"/>
<path d="M10122 17390 c-19 -12 -43 -20 -54 -18 -17 2 -26 -12 -55 -84 -19
-49 -38 -88 -42 -88 -3 0 -19 41 -34 90 -15 51 -33 90 -40 90 -21 -1 -172 -68
-172 -77 0 -4 7 -25 15 -46 15 -41 11 -40 85 -21 18 5 25 -12 75 -180 30 -102
57 -186 60 -186 3 0 35 78 70 174 36 95 70 175 75 176 6 2 23 -17 38 -42 22
-35 30 -62 34 -120 6 -86 -2 -100 -70 -119 -23 -6 -48 -13 -56 -15 -21 -7 25
-42 72 -55 90 -24 167 37 167 133 0 62 -26 113 -85 169 -62 58 -70 74 -55 109
15 36 51 52 101 44 44 -7 51 6 21 42 -38 48 -96 57 -150 24z"/>
<path d="M11564 16875 c-42 -25 -74 -80 -74 -125 0 -71 78 -150 147 -150 83 0
153 73 153 160 l0 40 155 0 155 0 0 50 0 50 -247 0 c-246 0 -248 0 -289 -25z
m106 -95 c25 -25 25 -35 0 -60 -15 -15 -25 -17 -42 -11 -30 11 -37 60 -12 78
24 17 30 17 54 -7z"/>
<path d="M11940 16713 c-49 -18 -90 -83 -90 -143 l0 -40 -155 0 -155 0 0 -50
0 -50 253 0 c291 0 302 3 339 86 32 73 5 154 -62 189 -28 15 -100 19 -130 8z
m88 -105 c27 -27 7 -78 -29 -78 -21 0 -49 26 -49 45 0 35 53 58 78 33z"/>
<path d="M7945 16607 c-54 -22 -84 -48 -105 -91 -35 -73 -24 -154 28 -209 44
-47 77 -59 151 -55 l66 3 3 -107 3 -108 49 0 50 0 0 108 0 108 64 -4 c54 -4
71 0 106 19 76 43 113 140 85 220 -22 61 -60 97 -122 115 -60 17 -101 12 -151
-18 l-34 -21 -38 22 c-47 26 -115 34 -155 18z m113 -117 c15 -15 22 -33 22
-60 0 -52 -38 -84 -90 -76 -65 10 -91 77 -49 130 26 33 84 36 117 6z m271 -6
c28 -36 27 -79 -4 -109 -72 -73 -178 28 -114 109 16 20 29 26 59 26 30 0 43
-6 59 -26z"/>
<path d="M9560 15443 c0 -40 4 -50 23 -59 12 -7 45 -24 72 -39 66 -35 124 -31
193 13 58 38 85 40 126 9 74 -57 150 -59 232 -8 61 37 80 38 125 8 42 -27 85
-47 104 -47 11 0 15 13 15 49 0 47 -1 49 -52 82 -48 30 -60 34 -124 34 -61 0
-75 -4 -105 -26 -56 -43 -78 -43 -140 -3 -50 33 -59 35 -119 32 -52 -3 -72 -9
-100 -30 -50 -38 -81 -43 -110 -20 -39 30 -87 52 -115 52 -23 0 -25 -3 -25
-47z"/>
<path d="M11615 15396 c-73 -32 -125 -109 -125 -184 0 -16 -14 -37 -41 -61
-36 -32 -42 -43 -46 -87 -6 -60 12 -102 57 -134 72 -51 171 -26 209 54 12 23
21 50 21 59 0 35 -32 93 -66 122 -35 30 -36 31 -25 72 9 31 19 44 45 57 42 20
50 20 85 1 55 -28 57 -56 17 -227 -39 -163 -43 -206 -24 -241 26 -50 98 -76
150 -54 51 22 71 51 76 112 l4 55 -51 0 c-50 0 -51 -1 -51 -30 0 -29 -23 -51
-37 -36 -3 3 10 75 31 160 20 84 36 170 36 190 0 125 -150 222 -265 172z m-45
-320 c19 -23 8 -61 -18 -64 -44 -7 -67 32 -36 62 19 20 38 20 54 2z"/>
<path d="M9560 15230 c0 -29 5 -50 11 -50 6 0 31 -14 56 -32 78 -53 165 -50
236 9 39 31 70 29 124 -9 39 -29 53 -33 107 -33 52 0 69 5 112 33 28 17 59 32
69 32 10 0 39 -13 65 -30 25 -16 61 -33 78 -36 l32 -6 0 48 0 49 -63 38 c-93
55 -159 51 -248 -16 -30 -22 -78 -17 -101 10 -21 25 -73 43 -126 43 -38 0 -60
-7 -102 -35 -30 -19 -62 -35 -70 -35 -9 0 -40 16 -70 35 -30 19 -67 35 -82 35
-27 0 -28 -2 -28 -50z"/>
<path d="M13640 14997 c-45 -11 -91 -46 -110 -83 -18 -36 -29 -44 -57 -44 -18
0 -22 -7 -25 -50 l-3 -50 83 0 82 0 0 45 c0 53 28 85 75 85 47 0 75 -32 75
-85 l0 -45 85 0 85 0 0 53 c0 53 0 54 -29 49 -25 -3 -33 1 -55 36 -46 73 -129
109 -206 89z"/>
<path d="M7850 14913 c0 -32 29 -95 61 -135 l21 -26 -25 -34 c-91 -119 -71
-272 47 -357 41 -29 57 -35 120 -39 63 -4 78 -1 123 21 90 46 133 116 133 217
0 68 -14 110 -54 157 l-28 33 30 37 c31 41 52 92 52 129 0 22 -4 24 -50 24
-41 0 -50 -3 -50 -17 0 -61 -98 -131 -163 -118 -50 11 -95 50 -108 95 -12 39
-13 40 -61 40 -46 0 -48 -1 -48 -27z m326 -244 c56 -52 69 -119 34 -177 -41
-67 -124 -91 -187 -52 -92 56 -94 177 -3 238 46 31 118 27 156 -9z"/>
<path d="M13450 14665 l0 -55 240 0 240 0 0 55 0 55 -240 0 -240 0 0 -55z"/>
<path d="M13351 13651 c-20 -25 -31 -50 -31 -70 0 -35 14 -40 32 -11 7 11 18
20 25 20 10 0 13 -30 13 -121 l0 -120 48 3 47 3 3 105 c2 81 6 108 20 123 16
18 17 13 22 -104 l5 -124 48 -3 47 -3 0 108 c0 103 7 133 32 133 4 0 8 -59 8
-130 0 -143 7 -170 57 -206 61 -45 95 -40 168 27 47 44 54 59 32 78 -10 8 -19
4 -36 -19 -27 -37 -68 -40 -99 -7 -21 22 -22 33 -22 190 l0 167 -54 0 c-44 0
-56 -4 -69 -22 l-16 -23 0 23 c-1 20 -6 22 -56 22 -40 0 -57 -4 -61 -15 -4 -8
-10 -15 -15 -15 -5 0 -9 7 -9 15 0 11 -13 15 -54 15 -51 0 -56 -2 -85 -39z"/>
<path d="M9686 13571 c-3 -4 -5 -29 -4 -55 0 -39 4 -46 21 -46 48 0 126 -73
92 -86 -21 -9 -22 -104 0 -104 8 0 15 -4 15 -9 0 -17 -68 -69 -99 -76 -30 -6
-31 -9 -31 -56 0 -47 1 -49 28 -49 67 0 183 86 198 148 6 22 24 31 24 11 0 -6
14 -30 30 -54 36 -52 97 -91 158 -101 l42 -7 0 51 c0 48 -1 51 -31 57 -31 7
-99 59 -99 76 0 5 7 9 15 9 23 0 21 89 -2 105 -16 12 -15 16 16 44 18 17 47
35 65 39 29 8 31 11 31 58 l0 49 -35 -3 c-70 -7 -153 -68 -182 -133 -13 -29
-28 -39 -28 -18 0 26 -68 103 -110 124 -51 25 -107 38 -114 26z"/>
<path d="M11340 13130 c-23 -29 -30 -48 -28 -71 l3 -32 33 27 32 28 0 -121 0
-121 50 0 50 0 0 103 c0 91 2 106 20 122 20 18 20 17 20 -103 l0 -122 50 0 50
0 0 103 c0 91 2 106 20 122 20 18 20 17 20 -111 0 -148 7 -167 69 -184 55 -15
108 6 149 59 36 47 39 68 17 110 -22 43 -95 102 -117 95 -16 -5 -18 2 -18 65
l0 71 -52 0 c-34 0 -58 -6 -70 -17 -17 -15 -18 -15 -18 0 0 14 -10 17 -52 17
-34 0 -58 -6 -70 -17 -17 -15 -18 -15 -18 0 0 14 -10 17 -54 17 -51 0 -56 -2
-86 -40z m463 -148 c9 -8 17 -27 17 -42 0 -26 -32 -70 -50 -70 -6 0 -10 32
-10 71 0 73 2 75 43 41z"/>
<path d="M7996 12994 c-9 -26 -16 -49 -16 -50 0 -1 14 -5 30 -9 l30 -7 0 -163
0 -163 -30 -10 -29 -11 16 -46 c14 -43 18 -46 42 -41 94 22 148 24 225 11 44
-8 81 -13 82 -12 3 4 34 79 34 84 0 2 -13 9 -30 14 l-30 11 0 163 0 163 30 7
c35 8 35 7 13 63 -13 36 -20 43 -37 38 -104 -28 -188 -28 -292 0 -18 5 -24 -1
-38 -42z m222 -231 l3 -143 -41 0 -40 0 0 146 0 145 38 -3 37 -3 3 -142z"/>
<path d="M13428 12287 c-60 -17 -108 -36 -108 -42 0 -6 9 -18 20 -28 11 -9 20
-20 20 -25 0 -4 -40 -48 -90 -97 l-90 -89 -46 22 c-25 13 -66 25 -90 29 l-44
6 0 -52 c0 -39 4 -51 15 -51 9 0 32 -7 52 -15 l37 -15 -37 -38 -37 -38 34 -33
35 -34 37 32 c42 37 53 32 61 -28 l6 -41 54 0 55 0 -7 43 c-3 23 -17 64 -30
91 l-24 50 88 88 c87 87 112 102 128 74 24 -44 49 7 97 197 8 34 3 34 -136 -6z"/>
<path d="M9852 11428 c-22 -29 -32 -53 -32 -77 l0 -35 28 27 c15 15 31 27 35
27 4 0 7 -54 7 -120 l0 -120 50 0 50 0 0 108 c0 101 7 132 31 132 4 0 9 -62
11 -137 3 -127 5 -141 27 -169 13 -18 40 -39 60 -49 45 -20 79 -10 129 38 46
43 56 65 42 82 -10 12 -16 9 -37 -15 -32 -39 -73 -40 -102 -4 -19 25 -21 40
-21 190 l0 164 -55 0 c-40 0 -57 -4 -61 -15 -4 -8 -10 -15 -15 -15 -5 0 -9 7
-9 15 0 11 -13 15 -53 15 -50 0 -54 -2 -85 -42z"/>
<path d="M9475 11410 c18 -58 77 -186 121 -262 113 -192 288 -386 459 -506 84
-59 250 -149 341 -183 l41 -16 6 -114 c8 -136 9 -449 2 -449 -12 0 -188 92
-293 154 -362 211 -655 447 -866 696 l-38 45 23 -40 c105 -184 364 -443 644
-647 138 -101 342 -226 510 -313 17 -9 20 -22 23 -95 3 -84 -25 -633 -33 -658
-6 -16 -62 26 -285 211 -199 165 -355 268 -555 366 -261 129 -494 213 -746
272 -123 28 -338 63 -345 56 -2 -2 40 -14 94 -26 262 -63 552 -171 822 -305
169 -85 190 -97 353 -205 118 -78 146 -99 325 -254 63 -53 161 -134 218 -179
104 -81 105 -82 100 -117 -3 -20 -8 -65 -11 -101 -3 -36 -15 -128 -25 -205
-93 -671 -110 -1090 -64 -1600 38 -430 155 -1038 254 -1325 5 -14 18 -59 31
-100 44 -151 176 -496 186 -487 2 3 -3 22 -12 43 -28 68 -114 363 -160 549
-152 619 -218 1158 -219 1780 0 369 10 512 65 940 53 423 58 457 64 463 3 3
31 -13 62 -35 143 -99 440 -259 649 -348 233 -100 525 -186 744 -220 141 -22
440 -31 555 -16 94 12 238 41 233 46 -2 2 -35 0 -73 -5 -185 -24 -478 -5 -714
46 -416 89 -893 300 -1329 588 l-123 81 6 70 c9 109 25 478 25 598 0 59 2 107
3 107 2 0 82 -34 178 -76 191 -83 437 -177 569 -217 623 -189 1142 -287 1783
-337 147 -12 272 -20 278 -18 5 2 -108 23 -253 47 -1040 171 -1732 361 -2453
674 -122 52 -111 30 -119 250 -7 187 -10 241 -21 340 -3 26 -2 47 2 47 5 0 60
-12 123 -27 108 -25 130 -27 360 -27 290 -1 412 17 630 91 240 81 483 255 608
436 44 64 88 147 77 147 -2 0 -17 -19 -33 -42 -88 -127 -281 -286 -440 -364
-362 -176 -898 -221 -1289 -109 -40 12 -54 21 -57 38 -2 12 -14 92 -26 177
-32 237 -123 680 -136 667 -3 -2 5 -51 15 -108 29 -149 91 -654 91 -735 0 -8
-93 31 -184 77 -153 78 -277 169 -412 303 -131 131 -203 223 -302 386 -35 58
-61 94 -57 80z"/>
<path d="M11290 11379 c-100 -45 -161 -138 -162 -248 -1 -164 116 -281 283
-281 113 0 228 88 259 198 35 127 -27 269 -142 326 -67 34 -170 36 -238 5z
m172 -89 c69 -20 128 -118 114 -192 -25 -134 -183 -193 -283 -105 -94 83 -81
227 26 284 48 25 86 28 143 13z"/>
<path d="M11374 11190 c-11 -4 -27 -22 -34 -40 -12 -28 -11 -34 7 -58 25 -33
76 -41 104 -16 29 26 25 78 -7 103 -29 23 -38 24 -70 11z"/>
<path d="M8015 11166 c-62 -30 -127 -111 -118 -146 11 -41 116 -50 167 -14 11
8 28 14 37 14 28 0 74 -66 100 -140 15 -46 27 -66 33 -60 6 6 45 10 88 10 l78
0 0 -135 0 -135 50 0 50 0 -2 283 -3 282 -47 3 -48 3 0 -100 0 -101 -89 0 -88
0 -7 38 c-8 50 -58 152 -88 179 -31 29 -76 37 -113 19z"/>
<path d="M12632 11136 c7 -60 43 -132 89 -176 l38 -37 -38 -37 c-65 -64 -86
-117 -86 -221 0 -81 3 -95 30 -144 36 -66 92 -115 159 -140 47 -17 51 -21 54
-55 l3 -36 -50 0 -51 0 0 -50 0 -50 50 0 50 0 0 -125 0 -125 55 0 55 0 0 125
0 125 50 0 50 0 0 50 0 50 -50 0 -50 0 0 35 c0 25 5 37 18 41 102 32 166 87
208 178 23 52 26 67 22 140 -5 93 -27 144 -83 197 -19 18 -35 37 -35 41 0 4
18 26 39 48 48 50 73 101 79 163 l5 47 -52 0 c-45 0 -51 -3 -51 -20 0 -30 -27
-91 -53 -119 -57 -61 -178 -80 -252 -38 -46 26 -82 75 -98 135 l-11 42 -49 0
-50 0 5 -44z m420 -301 c102 -73 116 -218 30 -308 -105 -111 -289 -70 -338 75
-21 64 -14 116 23 176 40 65 98 94 180 89 50 -2 71 -9 105 -32z"/>
<path d="M11162 10104 c6 -144 24 -198 60 -185 32 11 69 71 112 178 41 106 44
123 17 123 -15 0 -24 -15 -41 -67 -34 -104 -71 -183 -86 -183 -16 0 -15 -8
-23 135 -5 97 -8 110 -25 113 -18 4 -19 -2 -14 -114z"/>
<path d="M11389 10102 c-55 -49 -48 -168 12 -187 50 -16 118 17 105 50 -5 13
-10 13 -41 -2 -39 -19 -67 -11 -73 21 -3 13 6 16 50 16 92 0 128 51 73 105
-34 35 -85 34 -126 -3z m99 -24 c26 -26 13 -38 -38 -38 -52 0 -60 8 -34 34 18
19 55 21 72 4z"/>
<path d="M11585 10111 c-14 -24 -36 -184 -26 -194 11 -11 41 7 41 25 0 21 55
120 72 129 27 15 38 -24 26 -90 -5 -29 -7 -60 -3 -69 5 -14 7 -14 22 1 13 13
17 36 18 98 0 68 -3 83 -19 95 -27 20 -40 18 -73 -10 -29 -24 -29 -24 -29 -4
1 23 -18 35 -29 19z"/>
<path d="M11794 10102 c-29 -18 -46 -166 -22 -190 16 -16 49 -15 75 3 19 13
21 13 26 -7 5 -17 9 -19 20 -10 15 13 42 176 32 192 -9 14 -35 12 -35 -2 0
-24 -63 -148 -76 -148 -22 0 -23 14 -7 84 15 66 10 93 -13 78z"/>
<path d="M11992 10088 c-26 -13 -39 -54 -25 -77 6 -9 29 -23 52 -32 45 -16 52
-28 27 -44 -11 -7 -26 -4 -50 9 -59 32 -73 -4 -15 -38 40 -24 93 -14 115 20
24 36 7 68 -48 86 -48 16 -57 41 -16 46 19 2 30 -3 38 -17 15 -29 40 -27 40 3
0 46 -64 70 -118 44z"/>
<path d="M8410 9692 c127 -71 399 -248 420 -271 3 -4 32 -26 65 -50 245 -181
506 -442 684 -685 207 -280 372 -625 447 -931 58 -239 68 -337 68 -660 0 -256
-3 -325 -23 -470 -77 -573 -266 -1002 -582 -1322 -127 -129 -300 -252 -417
-299 -24 -9 -41 -19 -38 -21 8 -8 159 57 231 99 228 133 400 301 555 539 225
347 348 777 381 1331 35 576 -90 1084 -379 1547 -134 215 -227 330 -436 536
-307 304 -630 524 -1040 709 -43 20 -81 36 -85 36 -3 0 64 -40 149 -88z"/>
<path d="M11019 9265 c-17 -36 -35 -65 -40 -65 -5 0 -9 -11 -9 -24 0 -13 -9
-43 -20 -67 -24 -53 -25 -79 -5 -79 9 0 26 24 42 60 14 33 31 60 37 60 6 0 30
-6 53 -13 l41 -12 -24 -55 c-28 -66 -29 -80 -6 -80 11 0 25 19 41 58 14 31 30
64 38 73 7 8 13 23 13 33 0 9 9 34 20 56 25 48 25 70 2 70 -12 0 -24 -16 -37
-51 -11 -28 -24 -54 -30 -58 -5 -4 -31 -1 -57 6 l-47 14 25 56 c24 56 25 83 4
83 -6 0 -25 -29 -41 -65z"/>
<path d="M8480 9164 c-47 -13 -102 -29 -124 -35 l-38 -10 27 -29 28 -30 -44
-47 c-24 -27 -58 -60 -75 -75 -31 -27 -33 -27 -68 -13 -99 42 -229 2 -296 -90
-33 -47 -35 -53 -35 -130 0 -73 3 -86 30 -130 44 -71 108 -108 195 -113 56 -3
74 0 117 22 58 29 109 85 123 136 15 52 12 136 -5 177 l-16 37 75 75 75 75 26
-24 c15 -14 29 -20 34 -14 7 7 71 223 71 239 0 7 -7 6 -100 -21z m-307 -350
c68 -50 75 -155 13 -211 -41 -38 -73 -48 -121 -39 -126 24 -153 188 -42 257
39 25 111 21 150 -7z"/>
<path d="M11226 9139 c-56 -44 -74 -126 -36 -167 25 -27 100 -31 120 -7 18 22
5 30 -48 30 -44 0 -47 2 -50 29 -3 24 -1 28 15 21 37 -15 89 -24 111 -18 45
11 41 87 -7 116 -39 23 -73 22 -105 -4z m85 -29 c10 -6 19 -20 19 -31 0 -19
-4 -20 -37 -14 -58 11 -68 19 -48 38 19 20 38 21 66 7z"/>
<path d="M11450 9093 c-24 -9 -61 -45 -76 -75 -34 -65 -2 -132 59 -126 20 2
37 -3 44 -12 16 -20 25 -10 68 79 35 71 39 101 14 101 -7 0 -20 6 -28 14 -19
17 -60 27 -81 19z m63 -69 c6 -33 -53 -97 -86 -92 -18 2 -22 9 -21 41 2 48 28
77 69 77 27 0 34 -4 38 -26z"/>
<path d="M11623 9032 c-17 -11 -75 -161 -69 -178 9 -22 30 -7 55 42 14 25 35
54 48 64 28 22 56 16 48 -10 -3 -11 1 -20 10 -24 19 -7 41 34 32 59 -8 19 -55
38 -75 30 -8 -3 -20 1 -26 10 -6 8 -16 11 -23 7z"/>
<path d="M11833 9011 c-10 -17 -22 -30 -28 -30 -24 3 -35 -2 -35 -15 0 -8 5
-16 11 -18 7 -2 6 -17 -6 -43 -45 -104 -39 -135 24 -135 45 0 83 32 63 52 -10
10 -17 10 -32 0 -11 -6 -27 -12 -36 -12 -18 0 -13 22 17 82 18 36 19 36 60 27
51 -12 76 3 45 27 -11 8 -28 14 -38 14 -20 0 -23 12 -8 40 7 13 6 21 -5 30
-12 10 -18 7 -32 -19z"/>
<path d="M12975 9020 c-33 -10 -86 -26 -118 -35 l-59 -17 28 -29 28 -29 -59
-62 c-33 -34 -66 -68 -73 -76 -11 -12 -18 -12 -52 2 -54 22 -145 20 -195 -3
-154 -71 -189 -273 -69 -395 114 -114 319 -76 390 73 24 49 24 155 2 199 l-17
34 77 73 77 74 27 -26 c15 -15 29 -25 31 -22 3 4 35 111 61 207 18 62 16 62
-79 32z m-335 -349 c131 -70 70 -273 -77 -258 -77 8 -126 62 -126 138 0 73 66
139 138 139 17 0 46 -8 65 -19z"/>
<path d="M9074 8711 c-74 -52 -119 -93 -136 -124 -8 -16 -1 -28 48 -73 32 -30
63 -54 70 -54 32 0 22 25 -26 69 l-53 47 48 42 c26 23 71 58 101 77 36 24 51
40 48 50 -10 24 -27 18 -100 -34z"/>
<path d="M9271 8601 c-14 -9 -9 -41 7 -41 15 0 34 28 27 40 -8 12 -16 13 -34
1z"/>
<path d="M9146 8499 c-63 -49 -75 -63 -66 -75 14 -16 18 -14 80 35 76 61 80
65 80 78 0 28 -22 19 -94 -38z"/>
<path d="M9330 8515 c-14 -8 -37 -14 -52 -15 -21 0 -28 -5 -28 -19 0 -10 -25
-40 -55 -66 -53 -44 -63 -64 -38 -72 6 -2 37 19 70 46 l60 50 21 -22 c15 -15
25 -18 32 -11 12 12 3 44 -11 44 -19 0 -8 17 18 29 33 15 53 0 36 -28 -17 -28
5 -46 29 -24 25 23 23 68 -4 87 -27 19 -45 20 -78 1z"/>
<path d="M10857 8338 c-13 -18 -30 -44 -37 -58 -7 -14 -19 -29 -26 -33 -8 -4
-14 -16 -14 -25 0 -9 -11 -37 -25 -61 -28 -49 -32 -71 -11 -71 8 0 29 25 46
55 17 30 33 55 35 55 2 0 24 -9 50 -20 l47 -20 -31 -55 c-36 -63 -38 -75 -13
-75 10 0 29 21 47 52 17 28 41 70 53 92 13 23 32 56 43 74 10 18 19 40 19 48
0 28 -34 10 -57 -31 -13 -22 -27 -46 -32 -54 -7 -11 -16 -11 -55 4 -25 10 -46
20 -46 23 0 3 12 29 27 58 20 39 24 57 16 65 -8 8 -18 1 -36 -23z"/>
<path d="M9320 8322 c-49 -47 -55 -95 -16 -131 31 -29 89 -34 94 -8 3 12 -3
17 -22 17 -29 0 -56 24 -56 50 0 34 20 32 60 -4 44 -40 78 -46 103 -18 46 51
-6 132 -83 132 -32 0 -47 -7 -80 -38z m130 -21 c14 -27 13 -51 -4 -51 -20 0
-66 39 -66 56 0 22 57 18 70 -5z"/>
<path d="M11044 8166 c-65 -28 -101 -113 -70 -161 10 -14 29 -31 44 -36 33
-13 87 1 87 21 0 10 -11 15 -30 16 -59 2 -64 4 -70 25 -9 26 9 46 27 32 7 -6
30 -16 51 -23 52 -16 87 5 87 53 0 60 -66 98 -126 73z m77 -52 c6 -8 9 -20 6
-29 -5 -12 -12 -12 -39 -3 -47 15 -56 27 -35 43 20 15 51 10 68 -11z"/>
<path d="M11206 8069 c-60 -47 -76 -134 -30 -164 14 -9 37 -15 50 -12 14 2 25
-1 28 -9 11 -28 32 -12 68 49 56 93 56 95 17 128 -42 36 -94 39 -133 8z m102
-50 c2 -20 -6 -34 -33 -58 -49 -43 -81 -39 -78 7 2 47 38 84 78 80 24 -2 31
-8 33 -29z"/>
<path d="M11578 8032 c-9 -9 -21 -27 -27 -40 l-12 -23 -26 21 c-33 26 -62 25
-104 -3 -85 -57 -81 -179 5 -179 14 0 27 -7 30 -14 9 -23 25 -16 49 24 72 114
117 194 117 207 0 22 -16 26 -32 7z m-94 -68 c29 -11 19 -59 -19 -93 -29 -26
-39 -29 -55 -21 -29 16 -25 57 9 91 31 30 39 33 65 23z"/>
<path d="M8785 7637 c-83 -33 -147 -90 -186 -167 -16 -34 -22 -63 -23 -115 0
-104 27 -170 99 -239 30 -28 119 -76 143 -76 7 0 12 -14 12 -35 l0 -35 -55 0
-55 0 0 -55 0 -55 55 0 55 0 0 -120 0 -120 50 0 50 0 0 120 0 120 55 0 55 0 0
55 0 55 -55 0 -55 0 0 33 c0 30 4 35 38 45 61 19 131 71 167 126 108 163 49
366 -130 451 -42 19 -69 25 -122 24 -37 0 -81 -6 -98 -12z m182 -108 c159 -77
154 -305 -9 -374 -134 -55 -278 41 -278 186 0 154 151 254 287 188z"/>
<path d="M12110 7269 c-64 -18 -161 -62 -153 -69 4 -4 40 -20 78 -36 186 -77
263 -271 174 -440 -35 -66 -80 -105 -174 -150 -72 -34 -86 -44 -70 -50 11 -4
44 -18 73 -31 267 -119 570 58 589 345 12 174 -69 320 -222 397 -70 36 -84 39
-168 42 -51 1 -108 -2 -127 -8z m247 -125 c60 -29 116 -88 145 -154 30 -66 29
-179 0 -245 -43 -95 -140 -168 -240 -182 l-47 -6 36 44 c107 131 128 306 53
453 -15 30 -40 68 -56 85 -15 16 -28 33 -28 37 0 13 85 -7 137 -32z"/>
<path d="M10750 7179 c0 -8 -16 -10 -49 -6 -26 3 -52 2 -57 -3 -5 -5 -38 -10
-74 -12 -50 -2 -65 -7 -65 -18 0 -12 16 -15 75 -16 l74 -1 11 -49 c7 -32 15
-49 25 -49 12 0 14 11 12 53 -3 52 -2 52 27 52 28 0 30 -3 46 -75 11 -49 21
-75 30 -75 23 0 24 12 10 80 -8 38 -10 71 -5 80 6 12 3 22 -11 33 -22 19 -49
22 -49 6z"/>
<path d="M10572 6980 c-48 -20 -52 -98 -6 -141 33 -31 111 -33 151 -3 32 24
44 85 21 108 -41 40 -114 56 -166 36z m88 -39 c0 -5 10 -11 23 -13 15 -2 23
-11 25 -29 3 -22 -2 -29 -28 -37 -44 -16 -90 -4 -101 25 -14 37 5 63 46 63 19
0 35 -4 35 -9z"/>
<path d="M10656 6789 c-124 -13 -133 -43 -16 -51 38 -3 77 -11 85 -18 19 -16
19 -40 0 -40 -8 0 -15 -9 -15 -20 0 -24 32 -27 54 -4 20 20 20 53 1 81 -11 15
-12 22 -3 25 15 5 3 38 -14 37 -7 -1 -49 -5 -92 -10z"/>
<path d="M10760 6616 c0 -9 -20 -16 -65 -21 -76 -8 -111 -30 -100 -63 16 -51
85 -85 85 -42 0 11 -4 20 -9 20 -5 0 -17 7 -26 16 -13 14 -14 19 -3 25 21 14
118 11 122 -3 14 -55 23 -73 36 -73 11 0 14 10 12 43 -4 41 -3 42 27 42 44 0
41 27 -3 36 -19 3 -37 12 -40 20 -7 18 -36 18 -36 0z"/>
<path d="M10681 6429 c-65 -13 -77 -46 -34 -91 21 -22 23 -28 10 -28 -17 0
-24 -25 -9 -33 4 -3 47 -2 97 2 74 5 90 9 93 23 2 11 -5 19 -20 22 -111 21
-138 29 -148 41 -18 21 7 30 85 30 56 0 70 3 70 15 0 17 -93 29 -144 19z"/>
<path d="M10737 6241 c-42 -3 -77 -9 -77 -13 0 -5 0 -12 0 -17 0 -5 32 -16 72
-25 66 -15 108 -37 108 -57 0 -12 -70 -29 -122 -29 -35 0 -48 -4 -48 -14 0
-22 31 -27 104 -17 103 15 133 55 81 107 -29 29 -31 34 -9 34 23 0 13 35 -11
36 -11 0 -55 -2 -98 -5z"/>
<path d="M10723 6024 c-23 -17 -33 -34 -33 -52 0 -38 35 -92 60 -92 26 0 25
14 -1 49 -24 33 -18 71 10 71 14 0 20 -10 24 -40 11 -82 62 -115 107 -70 90
90 -65 215 -167 134z m146 -50 c12 -26 0 -64 -20 -64 -12 0 -29 43 -29 75 0
31 33 23 49 -11z"/>
<path d="M10435 4733 c-22 -2 -125 -19 -230 -38 -299 -54 -617 -95 -1080 -140
-300 -29 -297 -33 30 -34 185 0 393 5 515 14 244 17 236 16 560 62 249 35 260
35 485 30 245 -6 312 -13 810 -82 507 -70 544 -70 755 5 107 38 275 114 284
128 2 4 -54 -12 -124 -36 -321 -107 -360 -107 -890 -7 -263 49 -459 78 -635
95 -103 9 -389 11 -480 3z"/>
<path d="M10505 4230 c-27 -4 -117 -19 -199 -34 -81 -14 -336 -51 -565 -81
-533 -71 -775 -105 -781 -112 -11 -12 648 12 880 32 249 21 510 55 635 82 125
26 405 24 670 -7 55 -7 268 -34 473 -61 205 -27 376 -49 380 -48 25 2 -197 64
-433 120 -167 40 -426 86 -575 103 -136 14 -405 18 -485 6z"/>
<path d="M14363 17193 c-10 -16 -23 -32 -30 -36 -16 -10 -17 -79 -1 -95 22
-22 65 -14 88 16 18 22 21 36 17 76 -6 69 -43 88 -74 39z"/>
<path d="M15360 15126 c0 -24 -3 -51 -6 -59 -4 -12 5 -17 41 -22 40 -6 49 -4
71 16 16 15 24 33 24 56 0 39 -25 53 -91 53 l-39 0 0 -44z"/>
<path d="M15658 15053 c-34 -40 -32 -43 31 -43 54 0 61 2 61 20 0 37 -65 54
-92 23z"/>
<path d="M15909 15040 c-26 -26 -30 -36 -27 -76 5 -82 52 -87 92 -9 47 91 1
152 -65 85z"/>
<path d="M16419 15030 c-6 -16 -17 -30 -25 -30 -10 0 -14 -13 -14 -45 0 -39 4
-47 25 -57 51 -23 95 21 95 97 0 64 -62 91 -81 35z"/>
<path d="M5420 14330 c-11 -11 -20 -26 -20 -34 0 -7 -10 -20 -22 -28 -18 -12
-23 -27 -26 -81 -4 -63 -3 -68 26 -97 34 -33 56 -37 107 -16 39 17 68 67 79
134 8 54 -8 118 -34 132 -32 17 -88 12 -110 -10z"/>
<path d="M5945 14220 c-11 -12 -20 -41 -23 -74 -4 -48 -2 -55 18 -66 33 -17
66 10 83 68 12 41 12 50 -1 70 -18 27 -53 28 -77 2z"/>
<path d="M4084 14232 c-6 -4 -16 -17 -23 -29 -11 -23 -11 -23 44 -23 59 0 79
16 55 45 -13 16 -57 20 -76 7z"/>
<path d="M4819 14227 c-39 -30 -53 -112 -23 -141 21 -22 31 -20 58 9 33 35 51
97 37 124 -13 23 -47 27 -72 8z"/>
<path d="M6217 14222 c-29 -31 -21 -42 31 -42 61 0 78 10 63 39 -15 27 -71 29
-94 3z"/>
<path d="M15094 12806 c-30 -21 -47 -69 -40 -110 12 -65 67 -52 101 23 32 71
-6 125 -61 87z"/>
<path d="M15578 12803 c-34 -40 -32 -43 31 -43 52 0 61 3 61 18 0 41 -63 58
-92 25z"/>
<path d="M16165 12798 c-20 -17 -28 -36 -32 -68 -10 -96 53 -105 97 -15 18 37
21 53 14 74 -12 34 -45 38 -79 9z"/>
<path d="M5695 12465 c-14 -13 -25 -29 -25 -35 0 -7 -10 -20 -22 -30 -20 -16
-23 -28 -23 -83 0 -56 4 -69 25 -92 22 -23 31 -26 70 -22 58 7 94 45 110 120
23 101 -7 167 -75 167 -25 0 -44 -8 -60 -25z"/>
<path d="M6210 12348 c-12 -19 -20 -51 -20 -76 0 -36 4 -44 25 -54 32 -15 58
7 78 66 13 36 13 46 0 69 -20 39 -58 36 -83 -5z"/>
<path d="M4024 12368 c-12 -5 -27 -20 -34 -32 -16 -31 -9 -106 12 -120 38 -24
107 91 85 142 -11 24 -29 27 -63 10z"/>
<path d="M4498 12363 c-34 -40 -32 -43 31 -43 52 0 61 3 61 18 0 41 -63 58
-92 25z"/>
<path d="M5080 12351 c-23 -23 -30 -38 -30 -68 0 -22 6 -48 14 -58 22 -30 62
-6 87 52 38 87 -9 136 -71 74z"/>
<path d="M6490 12360 c-33 -33 -25 -41 37 -38 60 3 74 16 48 42 -22 22 -61 20
-85 -4z"/>
<path d="M15052 10678 c-7 -7 -12 -18 -12 -25 0 -7 -9 -17 -20 -23 -25 -13
-27 -71 -4 -94 41 -42 104 6 104 78 0 62 -36 96 -68 64z"/>
<path d="M3676 8253 c-11 -68 -8 -78 25 -90 38 -15 72 -3 94 31 34 52 0 96
-76 96 -34 0 -37 -2 -43 -37z"/>
<path d="M3974 8167 c-16 -14 -24 -29 -20 -35 12 -20 116 -12 116 9 0 14 -39
49 -54 49 -8 0 -27 -11 -42 -23z"/>
<path d="M4260 8182 c-50 -16 -81 -83 -61 -135 20 -51 78 -23 102 50 18 56 -2
98 -41 85z"/>
<path d="M4748 8169 c-10 -5 -18 -16 -18 -22 0 -7 -9 -20 -20 -30 -39 -33 -17
-107 31 -107 35 0 58 19 68 56 13 46 4 92 -20 104 -21 12 -20 12 -41 -1z"/>
<path d="M14306 7959 c-3 -40 -4 -74 -2 -77 3 -2 22 -1 42 2 50 10 84 46 84
90 0 42 -20 56 -78 56 l-39 0 -7 -71z"/>
<path d="M14588 7919 c-10 -5 -22 -19 -28 -29 -10 -19 -7 -20 50 -20 53 0 60
2 60 20 0 33 -47 50 -82 29z"/>
<path d="M16132 7908 c-7 -7 -12 -18 -12 -25 0 -7 -9 -17 -20 -23 -37 -20 -18
-110 23 -110 51 1 77 33 77 96 0 63 -35 95 -68 62z"/>
<path d="M4520 6454 c0 -22 -3 -56 -6 -76 l-7 -38 37 0 c48 0 96 44 96 88 0
38 -16 50 -74 58 l-46 7 0 -39z"/>
<path d="M4780 6355 c-17 -18 -23 -37 -24 -69 -2 -91 57 -97 96 -10 26 61 18
104 -21 104 -16 0 -37 -10 -51 -25z"/>
<path d="M5631 6346 c-5 -13 -17 -26 -25 -29 -19 -8 -22 -77 -4 -95 17 -17 73
-15 88 3 19 22 25 112 10 130 -20 24 -59 19 -69 -9z"/>
<path d="M5850 4614 c-6 -14 -10 -40 -10 -58 0 -28 5 -36 31 -47 27 -10 36
-10 58 2 31 18 55 62 46 89 -4 11 -21 24 -43 30 -56 15 -72 12 -82 -16z"/>
<path d="M5376 4508 c-24 -34 -20 -38 38 -38 61 0 68 5 55 38 -12 31 -71 31
-93 0z"/>
<path d="M6132 4507 c-31 -33 -39 -96 -15 -126 17 -21 22 -22 42 -11 32 16 64
93 56 130 -5 24 -12 30 -34 30 -16 0 -37 -10 -49 -23z"/>
<path d="M6894 4522 c-6 -4 -16 -17 -23 -29 -11 -23 -11 -23 44 -23 59 0 79
16 55 45 -13 16 -57 20 -76 7z"/>
<path d="M7590 4508 c-11 -12 -20 -25 -20 -30 0 -4 27 -8 60 -8 51 0 60 3 60
18 0 44 -65 58 -100 20z"/>
<path d="M8747 2423 c-4 -3 -7 -26 -7 -50 l0 -43 39 0 c23 0 46 7 55 16 19 18
21 55 4 72 -13 13 -80 17 -91 5z"/>
<path d="M8725 2215 c-4 -31 -5 -58 -2 -61 10 -10 81 7 103 24 56 44 32 92
-46 92 l-49 0 -6 -55z"/>
<path d="M9252 2313 c-31 -12 -52 -94 -36 -137 8 -21 47 -20 67 2 26 29 48 90
41 117 -5 19 -12 25 -33 24 -14 0 -32 -3 -39 -6z"/>
<path d="M9780 2323 c-19 -7 -40 -33 -40 -50 0 -14 64 -18 94 -7 22 8 20 41
-3 54 -21 11 -28 11 -51 3z"/>
<path d="M10125 2304 c-14 -15 -22 -30 -19 -35 6 -10 58 -12 92 -3 31 9 29 42
-4 54 -37 14 -42 13 -69 -16z"/>
<path d="M12265 2306 c-34 -34 -24 -48 28 -42 23 3 48 5 55 5 13 1 16 20 4 38
-4 6 -19 14 -34 18 -21 5 -33 1 -53 -19z"/>
<path d="M11058 2309 c-10 -5 -18 -16 -18 -24 0 -8 -9 -19 -20 -25 -22 -12
-27 -58 -10 -91 11 -19 54 -26 76 -11 35 23 47 118 18 146 -18 19 -23 19 -46
5z"/>
</g>
</svg>
